{"glyphs":{"0":{"ha":747,"x_min":0,"x_max":0,"o":"m 181 11 b 450 -117 285 -78 363 -117 b 760 189 622 -117 760 10 l 760 669 b 656 917 760 758 722 833 b 374 1057 578 1014 479 1057 b 60 746 200 1057 60 929 l 60 265 b 181 11 60 158 110 72 z m 492 265 b 374 151 492 194 446 151 b 326 189 333 151 326 160 l 326 669 b 450 789 326 744 374 789 b 492 746 489 789 492 781 z m 518 746 b 374 888 518 835 463 888 b 229 746 285 888 229 835 l 229 265 b 374 126 229 178 285 126 b 518 265 463 126 518 178 z m 547 265 b 374 97 547 161 465 97 b 201 265 282 97 201 161 l 201 746 b 374 915 201 851 282 915 b 547 746 465 915 547 851 z m 575 746 b 374 944 575 864 490 944 b 172 746 257 944 172 864 l 172 265 b 374 68 172 150 257 68 b 575 265 490 68 575 150 z m 604 265 b 374 39 604 131 492 39 b 143 265 256 39 143 131 l 143 746 b 374 974 143 882 256 974 b 604 746 492 974 604 882 z m 633 746 b 374 1001 633 901 506 1001 b 113 746 242 1001 113 901 l 113 265 b 374 11 113 113 242 11 b 633 265 506 11 633 113 z m 663 265 b 374 -19 663 99 533 -19 b 85 265 214 -19 85 99 l 85 746 b 374 1031 85 914 214 1031 b 663 746 533 1031 663 914 z "},"1":{"ha":442,"x_min":0,"x_max":0,"o":"m 372 1039 l 190 1039 l 24 847 l 176 704 l 176 -25 l 257 -97 l 444 -97 l 444 958 z m 78 829 l 58 849 l 203 1014 l 240 1014 z m 231 0 l 203 0 l 203 792 l 165 753 l 144 772 l 231 869 z m 347 0 l 317 0 l 317 1014 l 347 1014 z m 289 0 l 260 0 l 260 950 l 121 790 l 101 810 l 278 1014 l 289 1014 z "},"2":{"ha":747,"x_min":0,"x_max":0,"o":"m 667 169 l 329 169 l 329 246 b 486 374 329 331 371 354 b 765 683 643 400 765 501 b 663 914 765 768 729 838 b 379 1057 578 1008 488 1057 b 64 717 190 1057 64 904 l 143 644 l 331 644 b 456 790 331 733 374 790 b 504 743 497 790 504 781 b 367 628 504 663 457 651 b 185 554 300 611 236 593 b 63 319 114 501 63 432 l 63 -25 l 143 -97 l 739 -97 l 739 89 z m 640 0 l 88 0 l 88 319 b 200 533 88 424 136 486 b 435 621 268 585 350 594 b 531 743 499 638 531 672 b 379 889 531 833 461 889 b 233 743 283 889 233 832 l 203 743 l 203 757 b 379 922 203 840 271 922 b 558 746 478 922 558 851 b 442 593 558 663 515 619 b 218 514 363 565 286 567 b 115 319 157 465 115 408 l 115 29 l 640 29 z m 640 58 l 144 58 l 144 322 b 233 494 144 393 179 456 b 451 569 306 547 376 542 b 586 747 533 599 586 661 b 379 947 586 865 496 947 b 175 743 254 947 175 850 l 146 743 b 383 982 146 864 238 982 b 614 750 504 982 614 881 b 465 542 614 646 553 578 b 251 472 390 514 321 526 b 172 322 204 435 172 382 l 172 86 l 640 86 z m 640 115 l 203 115 l 203 322 b 265 450 203 375 226 422 b 475 518 336 503 407 492 b 638 757 576 554 638 636 b 379 1007 638 900 522 1007 b 117 743 221 1007 117 882 l 89 743 b 379 1031 89 901 206 1031 b 668 758 538 1031 668 928 b 488 493 668 618 597 536 b 281 428 419 464 353 478 b 232 322 247 406 232 368 l 232 143 l 640 143 z "},"3":{"ha":740,"x_min":0,"x_max":0,"o":"m 281 415 l 361 343 l 440 343 b 493 281 474 343 493 336 b 364 143 493 204 444 143 b 308 226 314 143 308 167 l 235 307 l 49 307 b 200 -12 49 174 99 76 b 440 -117 278 -82 351 -117 b 753 204 629 -117 753 10 b 660 429 753 306 722 369 b 753 656 714 475 753 546 b 644 918 753 756 719 833 b 364 1057 565 1008 478 1057 b 49 707 172 1057 49 921 l 128 635 l 308 635 b 440 799 308 725 357 799 b 493 732 478 799 493 788 b 364 597 493 642 438 597 l 281 597 z m 307 572 l 364 572 b 518 732 453 572 518 625 b 364 896 518 822 461 896 b 210 732 267 896 210 822 l 183 732 b 364 921 183 833 247 921 b 547 732 481 921 547 833 b 364 546 547 611 469 546 l 307 546 z m 307 467 l 364 467 b 547 281 469 467 547 401 b 364 93 547 179 481 93 b 183 281 247 93 183 179 l 210 281 b 364 117 210 190 267 117 b 518 281 461 117 518 190 b 364 442 518 383 453 442 l 307 442 z m 307 518 l 364 518 b 574 732 500 518 574 613 b 364 946 574 849 497 946 b 156 732 232 946 156 849 l 128 732 b 364 975 128 867 219 975 b 600 732 508 975 600 867 b 444 506 600 614 539 532 b 600 281 539 482 600 399 b 364 38 600 144 508 38 b 128 281 219 38 128 144 l 156 281 b 364 67 156 164 232 67 b 574 281 497 67 574 164 b 364 494 574 400 500 494 l 307 494 z m 103 281 b 364 11 103 122 204 11 b 626 281 524 11 626 122 b 506 506 626 383 592 458 b 626 732 592 554 626 628 b 364 1001 626 892 524 1001 b 103 732 204 1001 103 892 l 74 732 b 364 1031 74 914 188 1031 b 654 732 540 1031 654 914 b 549 506 654 614 610 549 b 654 281 610 464 654 399 b 364 -19 654 99 540 -19 b 74 281 188 -19 74 99 z "},"4":{"ha":744,"x_min":0,"x_max":0,"o":"m 706 381 l 669 381 l 669 958 l 597 1039 l 413 1039 l 24 186 l 107 113 l 401 113 l 401 -25 l 482 -97 l 669 -97 l 669 113 l 778 113 l 778 300 z m 514 0 l 486 0 l 486 268 l 153 268 l 493 1014 l 514 1014 l 514 297 l 681 297 l 681 268 l 514 268 z m 486 297 l 486 929 l 197 297 z m 457 0 l 428 0 l 428 211 l 64 211 l 428 1014 l 458 1014 l 110 239 l 457 239 z m 458 325 l 239 325 l 458 788 z m 681 324 l 544 324 l 544 1014 l 572 1014 l 572 354 l 681 354 z m 572 0 l 544 0 l 544 239 l 681 239 l 681 211 l 572 211 z m 428 354 l 428 661 l 285 354 z "},"5":{"ha":758,"x_min":0,"x_max":0,"o":"m 65 301 b 213 -7 65 188 113 83 b 463 -117 296 -82 374 -117 b 774 213 640 -117 774 32 b 665 471 774 304 739 385 b 386 610 585 563 503 610 l 338 610 l 338 771 l 728 771 l 728 958 l 656 1039 l 71 1039 l 71 414 l 151 342 l 461 342 b 513 289 508 342 513 331 b 386 158 513 210 461 158 b 332 221 339 158 332 172 l 260 301 z m 233 276 b 386 132 233 188 293 132 b 538 289 476 132 538 194 b 385 440 538 379 478 440 l 97 440 l 97 1014 l 631 1014 l 631 983 l 125 983 l 125 471 l 386 471 b 567 288 503 471 567 389 b 386 99 567 181 488 99 b 206 276 278 99 206 175 z m 176 276 b 386 72 176 163 263 72 b 593 288 503 72 593 167 b 386 500 593 406 518 500 l 154 500 l 154 954 l 631 954 l 631 926 l 182 926 l 182 529 l 386 529 b 624 289 538 529 624 421 b 386 39 624 143 513 39 b 147 276 247 39 147 147 z m 118 276 b 386 14 118 139 229 14 b 647 289 532 14 647 143 b 386 557 647 436 554 557 l 211 557 l 211 897 l 631 897 l 631 868 l 240 868 l 240 585 l 386 585 b 675 289 572 585 675 451 b 386 -19 675 119 551 -19 b 90 276 208 -19 90 117 z "},"6":{"ha":749,"x_min":0,"x_max":0,"o":"m 206 -10 b 446 -117 286 -82 365 -117 b 761 201 619 -117 761 36 b 651 457 761 288 726 372 b 376 601 567 550 483 601 b 326 597 360 601 343 600 l 326 669 b 447 789 326 744 372 789 b 488 746 486 789 488 778 l 488 710 l 567 638 l 756 638 l 756 669 b 653 913 756 758 721 835 b 371 1057 567 1008 476 1057 b 60 746 196 1057 60 929 l 60 278 b 206 -10 60 165 111 75 z m 492 278 b 376 157 492 207 449 157 b 326 163 357 157 342 158 b 324 201 324 175 324 188 b 453 326 324 274 371 326 b 492 278 486 326 492 318 z m 518 278 b 376 425 518 367 464 425 b 226 278 281 425 226 363 b 376 131 226 192 278 131 b 518 278 465 131 518 192 z m 549 278 b 376 100 549 183 478 100 b 200 278 272 100 200 174 b 378 454 200 413 299 454 b 549 278 478 454 549 378 z m 664 278 b 369 -19 664 124 532 -19 b 85 278 218 -19 85 104 l 85 746 b 371 1031 85 914 211 1031 b 657 746 532 1031 657 914 l 657 735 l 628 735 l 628 746 b 371 1001 628 901 503 1001 b 113 746 239 1001 113 901 l 113 278 b 376 15 113 119 238 15 b 633 278 518 15 633 143 b 376 544 633 414 531 544 b 201 471 282 544 247 524 l 201 746 b 371 915 201 851 279 915 b 542 746 463 915 542 851 l 542 735 l 513 735 l 513 746 b 371 888 513 835 460 888 b 229 746 282 888 229 835 l 229 532 b 376 576 267 563 322 576 b 664 278 549 576 664 428 z m 576 278 b 376 486 576 388 493 486 b 172 278 264 486 172 411 b 376 72 172 153 263 72 b 576 278 496 72 576 172 z m 606 278 b 369 40 606 154 507 40 b 143 278 247 40 143 142 l 143 746 b 371 974 143 882 253 974 b 599 746 489 974 599 882 l 599 735 l 569 735 l 569 746 b 371 944 569 864 488 944 b 172 746 254 944 172 864 l 172 386 b 376 517 201 453 260 517 b 606 278 514 517 606 401 z "},"7":{"ha":636,"x_min":0,"x_max":0,"o":"m 619 1039 l 39 1039 l 39 843 l 119 771 l 326 771 l 42 -25 l 124 -97 l 311 -97 l 690 958 z m 107 0 l 78 0 l 389 868 l 65 868 l 65 897 l 428 897 z m 163 0 l 135 0 l 467 926 l 65 926 l 65 954 l 504 954 z m 219 0 l 192 0 l 544 983 l 65 983 l 65 1014 l 583 1014 z "},"8":{"ha":764,"x_min":0,"x_max":0,"o":"m 60 283 b 206 -14 60 164 108 72 b 458 -117 286 -83 365 -117 b 776 207 649 -117 776 11 b 683 436 776 307 747 371 b 772 658 736 482 772 550 b 668 915 772 757 738 836 b 383 1057 585 1011 497 1057 b 65 735 189 1057 65 932 b 154 511 65 625 99 557 b 60 283 97 464 60 397 z m 383 143 b 329 153 363 143 344 146 b 322 207 324 169 322 188 b 458 349 322 293 383 349 b 506 340 475 349 490 346 b 517 283 513 324 517 306 b 383 143 517 207 465 143 z m 325 658 b 458 799 325 736 374 799 b 511 735 499 799 511 788 b 383 603 511 646 456 603 b 331 611 364 603 347 606 b 325 658 326 625 325 640 z m 383 117 b 542 283 481 117 542 193 b 383 446 542 386 471 446 b 224 283 293 446 224 383 b 383 117 224 193 283 117 z m 228 735 b 383 578 228 633 293 578 b 536 735 471 578 536 628 b 383 896 536 824 481 896 b 228 735 283 896 228 824 z m 564 735 b 383 550 564 614 489 550 b 200 735 275 550 200 614 b 383 921 200 836 264 921 b 564 735 501 921 564 836 z m 569 283 b 383 93 569 181 501 93 b 194 283 264 93 194 181 b 383 472 194 404 275 472 b 569 283 489 472 569 404 z m 383 524 b 592 735 518 524 592 615 b 383 946 592 851 517 946 b 172 735 247 946 172 851 b 383 524 172 615 246 524 z m 168 283 b 383 67 168 167 247 67 b 596 283 517 67 596 167 b 383 500 596 403 518 500 b 168 283 246 500 168 403 z m 301 511 b 146 735 206 536 146 617 b 383 975 146 869 233 975 b 619 735 529 975 619 869 b 464 511 619 617 558 536 b 624 283 558 488 624 401 b 383 38 624 147 529 38 b 142 283 233 38 142 147 b 301 511 142 401 206 488 z m 239 511 b 114 283 151 463 114 386 b 383 11 114 125 219 11 b 650 283 546 11 650 125 b 525 511 650 386 613 463 b 644 735 613 560 644 631 b 383 1001 644 893 546 1001 b 119 735 219 1001 119 893 b 239 511 119 631 151 560 z m 85 283 b 194 511 85 401 132 469 b 90 735 132 553 90 617 b 383 1031 90 917 204 1031 b 674 735 560 1031 674 917 b 569 511 674 617 632 553 b 679 283 632 469 679 401 b 383 -19 679 100 560 -19 b 85 283 204 -19 85 100 z "},"9":{"ha":754,"x_min":0,"x_max":0,"o":"m 60 733 b 214 439 60 628 113 529 b 451 335 290 371 364 335 b 499 338 469 335 482 336 l 499 265 b 383 151 499 194 454 151 b 338 189 340 151 338 154 l 338 224 l 265 304 l 71 304 l 71 265 b 217 -14 71 156 122 68 b 458 -117 294 -82 371 -117 b 765 189 632 -117 765 10 l 765 657 b 658 908 765 749 728 831 b 382 1057 569 1008 481 1057 b 60 733 206 1057 60 901 z m 328 657 b 451 785 328 729 375 785 b 501 733 489 785 501 771 b 375 608 501 664 453 608 b 332 614 360 608 344 610 b 328 657 329 626 328 642 z m 231 733 b 375 582 231 644 288 582 b 526 733 469 582 526 649 b 375 882 526 818 474 882 b 231 733 286 882 231 818 z m 201 733 b 375 913 201 826 272 913 b 553 733 478 913 553 836 b 374 554 553 599 453 554 b 201 733 272 554 201 633 z m 85 733 b 382 1031 85 888 219 1031 b 668 733 533 1031 668 906 l 668 265 b 383 -19 668 99 543 -19 b 97 265 222 -19 97 99 l 97 278 l 125 278 l 125 265 b 383 11 125 113 250 11 b 639 265 514 11 639 113 l 639 733 b 375 999 639 892 513 999 b 114 733 232 999 114 867 b 375 463 114 596 221 463 b 551 540 468 463 506 488 l 551 265 b 383 97 551 161 474 97 b 213 265 292 97 213 161 l 213 278 l 240 278 l 240 265 b 383 126 240 178 293 126 b 524 265 471 126 524 178 l 524 479 b 375 432 486 447 428 432 b 85 733 201 432 85 582 z m 172 733 b 375 522 172 622 258 522 b 582 733 488 522 582 600 b 375 940 582 858 489 940 b 172 733 256 940 172 838 z m 143 733 b 382 972 143 857 243 972 b 610 733 503 972 610 868 l 610 265 b 383 39 610 131 501 39 b 154 265 264 39 154 131 l 154 278 l 185 278 l 185 265 b 383 68 185 150 265 68 b 581 265 500 68 581 150 l 581 624 b 375 492 551 558 492 492 b 143 733 236 492 143 608 z "},"\u0017":{"ha":333,"x_min":0,"x_max":0,"o":""}," ":{"ha":333,"x_min":0,"x_max":0,"o":""},"!":{"ha":386,"x_min":0,"x_max":0,"o":"m 292 1039 l 96 1039 l 96 193 l 139 157 b 94 72 113 139 94 108 b 142 -12 94 35 118 10 l 201 -71 b 268 -97 218 -87 242 -97 b 365 -4 321 -97 365 -57 b 338 63 365 22 353 44 l 279 121 l 364 121 l 364 958 z m 175 72 b 192 92 175 82 183 92 b 210 72 203 92 210 82 b 192 56 210 63 203 56 b 175 72 183 56 175 63 z m 149 72 b 192 29 149 49 168 29 b 236 72 218 29 236 49 b 192 117 236 97 218 117 b 149 72 168 117 149 97 z m 119 72 b 192 146 119 113 151 146 b 267 72 233 146 267 113 b 192 0 267 32 233 0 b 119 72 151 0 119 32 z m 265 218 l 236 218 l 236 1014 l 265 1014 z m 207 218 l 179 218 l 179 1014 l 207 1014 z m 149 218 l 121 218 l 121 1014 l 149 1014 z "},"\"":{"ha":611,"x_min":0,"x_max":0,"o":"m 354 1032 l 343 960 l 301 1010 l 110 1032 l 67 765 l 146 693 l 332 665 l 343 740 l 392 693 l 576 665 l 618 929 l 546 1010 z m 368 783 l 340 788 l 375 1004 l 403 1000 z m 428 774 l 397 779 l 431 996 l 461 992 z m 482 765 l 454 771 l 488 986 l 517 983 z m 124 783 l 96 788 l 129 1004 l 158 1000 z m 182 774 l 153 779 l 188 996 l 217 992 z m 238 765 l 208 771 l 243 986 l 272 983 z "},"#":{"ha":728,"x_min":0,"x_max":0,"o":"m 683 717 l 663 717 l 663 728 l 590 808 l 396 808 l 396 738 l 332 808 l 136 808 l 136 717 l 44 717 l 44 521 l 115 458 l 44 458 l 44 263 l 125 190 l 136 190 l 136 171 l 217 97 l 404 97 l 404 169 l 475 97 l 663 97 l 663 190 l 757 190 l 757 378 l 685 449 l 757 449 l 757 638 z m 189 196 l 161 196 l 161 289 l 69 289 l 69 317 l 189 317 z m 189 663 l 69 663 l 69 692 l 161 692 l 161 783 l 189 783 z m 658 289 l 564 289 l 564 196 l 536 196 l 536 317 l 658 317 z m 658 663 l 536 663 l 536 783 l 564 783 l 564 692 l 658 692 z m 189 403 l 69 403 l 69 432 l 161 432 l 161 547 l 69 547 l 69 578 l 189 578 z m 450 196 l 421 196 l 421 289 l 307 289 l 307 196 l 276 196 l 276 317 l 450 317 z m 450 663 l 276 663 l 276 783 l 307 783 l 307 692 l 421 692 l 421 783 l 450 783 z m 658 403 l 536 403 l 536 578 l 658 578 l 658 547 l 564 547 l 564 432 l 658 432 z m 421 432 l 421 547 l 307 547 l 307 432 z m 450 403 l 278 403 l 278 578 l 450 578 z m 478 375 l 478 606 l 247 606 l 247 375 z m 658 346 l 507 346 l 507 196 l 478 196 l 478 346 l 247 346 l 247 196 l 218 196 l 218 346 l 69 346 l 69 375 l 218 375 l 218 606 l 69 606 l 69 635 l 218 635 l 218 783 l 247 783 l 247 635 l 478 635 l 478 783 l 507 783 l 507 635 l 658 635 l 658 606 l 507 606 l 507 375 l 658 375 z "},"$":{"ha":750,"x_min":0,"x_max":0,"o":"m 542 1067 l 469 1147 l 275 1147 l 275 1021 b 61 735 149 981 61 863 b 201 460 61 619 111 540 b 335 371 253 414 293 388 b 493 331 392 347 444 350 b 501 285 497 317 501 301 b 375 164 501 210 450 164 b 326 229 336 164 326 176 l 254 308 l 60 308 b 275 -44 65 150 157 39 l 275 -146 l 354 -218 l 542 -218 l 542 -92 b 763 196 676 -51 763 68 b 656 443 763 296 722 381 b 322 619 549 547 507 575 l 322 642 b 449 767 322 718 371 767 b 492 694 482 767 492 743 l 572 622 l 760 622 b 639 893 760 715 724 806 b 542 985 592 944 567 968 z m 329 -121 l 300 -121 l 300 6 b 85 283 175 38 85 151 l 113 283 b 329 22 113 171 204 47 z m 632 719 b 413 981 632 842 535 956 l 415 981 l 415 1121 l 443 1121 l 443 1000 b 663 719 575 971 663 849 z m 229 283 b 375 139 229 194 281 139 b 526 285 465 139 526 194 b 472 404 526 338 507 381 b 265 468 399 454 335 440 b 86 735 156 511 86 593 b 300 1000 86 858 175 971 l 300 1121 l 329 1121 l 329 979 b 114 732 215 958 114 849 b 278 493 114 611 178 531 b 488 425 347 467 418 476 b 551 281 531 394 551 340 b 375 104 551 193 474 104 b 199 283 286 104 200 179 z m 443 -121 l 415 -121 l 415 22 b 636 274 533 39 636 158 b 535 489 636 360 599 440 b 311 568 468 542 390 542 b 194 722 238 593 194 638 b 372 899 194 814 275 899 b 547 719 468 899 547 814 l 518 719 b 372 864 518 808 463 864 b 224 718 282 864 224 807 b 318 594 224 649 256 614 b 553 508 403 571 485 561 b 665 272 624 458 665 381 b 443 3 665 147 578 36 z m 386 -121 l 357 -121 l 357 49 b 143 283 244 58 143 156 l 172 283 b 375 79 172 171 258 79 b 586 275 483 79 586 167 b 503 447 586 344 553 407 b 289 518 432 503 363 489 b 140 726 200 551 140 622 b 357 957 140 851 244 953 l 357 1121 l 386 1121 l 386 957 b 604 719 510 943 604 843 l 576 719 b 372 924 576 833 486 924 b 168 724 269 924 168 840 b 303 544 168 636 219 575 b 519 469 378 518 449 522 b 611 274 581 425 611 347 b 386 46 611 151 503 50 z "},"%":{"ha":1194,"x_min":0,"x_max":0,"o":"m 344 1049 b 60 774 172 1049 60 935 b 197 506 60 635 113 586 b 443 407 263 443 332 407 l 197 -25 l 279 -97 l 461 -97 l 590 128 b 725 -25 610 82 644 47 b 924 -104 775 -72 843 -104 b 1208 179 1096 -104 1208 22 b 1108 401 1208 271 1168 342 b 849 536 1026 485 972 536 b 819 535 838 536 829 536 l 1061 958 l 992 1039 l 801 1039 l 675 818 b 344 1049 586 954 506 1049 z m 849 160 b 826 161 840 160 833 160 l 826 181 b 924 269 826 231 860 269 b 944 256 938 269 944 263 b 849 160 944 206 910 160 z m 344 671 b 322 672 338 671 329 671 b 421 781 322 742 356 781 b 442 767 431 781 442 775 b 344 671 442 717 407 671 z m 344 646 b 467 767 424 646 467 703 b 344 878 467 829 424 878 b 225 768 265 878 225 831 b 344 646 225 704 269 646 z m 344 619 b 199 769 256 619 199 681 b 346 908 199 864 257 908 b 492 769 440 908 492 853 b 344 619 492 685 428 619 z m 344 590 b 518 767 446 590 518 663 b 347 938 518 864 450 938 b 169 772 239 938 169 865 b 344 590 169 671 242 590 z m 547 765 b 344 558 547 647 467 558 b 144 772 229 558 144 649 b 344 965 144 906 228 965 b 547 765 474 965 547 878 z m 344 504 b 85 774 188 504 85 622 b 344 1024 85 919 188 1024 b 606 767 499 1024 606 917 b 344 504 606 622 503 504 z m 344 533 b 576 767 483 533 576 638 b 344 994 576 896 485 994 b 114 765 207 994 114 897 b 344 533 114 633 207 533 z m 849 135 b 969 256 926 135 969 192 b 849 368 969 318 926 368 b 728 257 769 368 728 319 b 849 135 728 193 774 135 z m 849 107 b 703 258 758 107 703 169 b 849 397 703 351 760 397 b 996 258 944 397 996 340 b 849 107 996 174 933 107 z m 849 79 b 1024 256 950 79 1024 151 b 850 425 1024 353 953 425 b 672 261 743 425 672 354 b 849 79 672 160 746 79 z m 1050 254 b 849 47 1050 136 969 47 b 649 261 733 47 649 138 b 849 454 649 394 732 454 b 1050 254 979 454 1050 367 z m 849 -7 b 589 261 693 -7 589 110 b 849 511 589 408 693 511 b 1110 256 1001 511 1110 406 b 849 -7 1110 111 1007 -7 z m 849 22 b 1079 256 988 22 1079 128 b 849 483 1079 383 989 483 b 619 254 711 483 619 385 b 849 22 619 122 711 22 z m 267 0 l 240 0 l 817 1014 l 843 1014 z m 319 0 l 293 0 l 868 1014 l 894 1014 z m 372 0 l 347 0 l 921 1014 l 949 1014 z "},"&":{"ha":789,"x_min":0,"x_max":0,"o":"m 769 603 l 326 603 l 326 663 b 453 789 326 733 374 789 b 492 714 486 789 492 767 l 572 640 l 760 640 b 638 911 756 758 706 836 b 376 1057 569 988 489 1057 b 60 739 201 1057 60 925 l 60 269 b 210 -6 60 151 106 92 b 454 -117 279 -69 357 -117 b 763 193 624 -117 763 31 l 763 335 l 842 335 l 842 522 z m 494 269 b 369 150 494 189 439 150 b 326 193 343 150 326 169 l 326 335 l 494 335 z m 743 547 l 200 547 l 200 739 b 376 914 200 842 272 914 b 547 739 474 914 547 832 l 518 739 b 376 886 518 826 461 886 b 229 739 283 886 229 822 l 229 578 l 743 578 z m 665 269 b 378 -19 665 118 535 -19 b 85 269 219 -19 85 111 l 85 739 b 376 1031 85 910 215 1031 b 663 739 522 1031 663 908 l 632 739 b 376 1000 632 871 511 1000 b 113 739 238 1000 113 876 l 113 269 b 379 10 113 119 232 10 b 635 269 514 10 635 139 l 635 461 l 743 461 l 743 432 l 665 432 z m 519 432 l 229 432 l 229 269 b 369 125 229 176 279 125 b 519 269 454 125 519 172 z m 549 269 b 371 97 549 171 468 97 b 200 269 272 97 200 169 l 200 461 l 549 461 z m 578 490 l 172 490 l 172 269 b 369 68 172 156 251 68 b 578 269 482 68 578 150 z m 607 269 b 374 36 607 143 506 36 b 143 269 240 36 143 142 l 143 739 b 376 975 143 869 247 975 b 604 739 506 975 604 863 l 575 739 b 376 943 575 849 486 943 b 172 739 265 943 172 850 l 172 518 l 743 518 l 743 490 l 607 490 z "},"'":{"ha":367,"x_min":0,"x_max":0,"o":"m 110 1032 l 67 765 l 146 693 l 331 665 l 372 929 l 300 1010 z m 124 783 l 96 788 l 129 1004 l 158 1000 z m 182 774 l 151 779 l 188 996 l 217 992 z m 236 765 l 208 771 l 243 986 l 271 983 z "},"(":{"ha":442,"x_min":0,"x_max":0,"o":"m 107 833 l 107 181 b 246 -82 107 79 149 0 b 482 -203 329 -154 399 -193 l 482 -15 l 410 65 b 374 104 379 68 374 75 l 374 757 b 482 876 374 819 413 863 l 482 1063 l 410 1143 b 107 833 238 1125 107 1000 z m 247 833 b 383 999 247 924 308 983 l 383 969 b 276 833 315 956 276 908 l 276 181 b 383 43 276 103 315 56 l 383 15 b 247 181 308 29 247 89 z m 189 833 b 383 1057 189 953 279 1040 l 383 1028 b 219 833 286 1014 219 938 l 219 181 b 383 -15 219 76 286 0 l 383 -43 b 189 181 279 -26 189 58 z m 132 833 b 383 1115 132 986 240 1100 l 383 1085 b 160 833 265 1068 160 972 l 160 181 b 383 -72 160 39 265 -56 l 383 -101 b 132 181 240 -86 132 24 z "},")":{"ha":442,"x_min":0,"x_max":0,"o":"m 113 -203 b 407 104 279 -185 407 -64 l 407 757 b 296 994 407 840 371 913 b 33 1143 214 1085 132 1133 l 33 949 l 113 876 b 140 818 136 856 140 842 l 140 181 b 33 65 140 117 100 78 l 33 -129 z m 193 181 b 58 15 193 89 133 29 l 58 43 b 165 181 126 56 165 103 l 165 833 b 58 969 165 908 126 956 l 58 999 b 193 833 133 983 193 924 z m 251 181 b 58 -43 251 58 161 -26 l 58 -15 b 222 181 156 0 222 76 l 222 833 b 58 1028 222 938 156 1014 l 58 1057 b 251 833 161 1040 251 953 z m 308 181 b 58 -101 308 24 201 -86 l 58 -72 b 281 181 176 -56 281 39 l 281 833 b 58 1085 281 972 176 1068 l 58 1115 b 308 833 201 1100 308 986 z "},"*":{"ha":906,"x_min":0,"x_max":0,"o":"m 453 949 l 338 601 l -28 601 l 60 521 l 265 369 l 156 35 l 239 -32 l 529 179 l 818 -32 l 708 308 l 999 521 l 933 601 l 613 601 l 529 860 z m 542 324 l 507 429 l 594 494 l 488 494 l 453 597 l 419 494 l 308 494 l 397 429 l 364 324 l 453 389 z m 590 256 l 453 354 l 314 256 l 367 417 l 228 518 l 399 518 l 453 681 l 506 518 l 676 518 l 539 417 z m 638 189 l 567 408 l 753 542 l 524 542 l 453 761 l 382 542 l 151 542 l 338 408 l 267 189 l 453 324 z m 701 100 l 453 282 l 203 100 l 300 393 l 50 576 l 356 576 l 453 867 l 549 576 l 856 576 l 607 393 z "},"+":{"ha":654,"x_min":0,"x_max":0,"o":"m 585 617 l 494 617 l 494 701 l 422 782 l 228 782 l 228 617 l 69 617 l 69 422 l 150 350 l 228 350 l 228 265 l 308 193 l 494 193 l 494 350 l 657 350 l 657 536 z m 282 292 l 253 292 l 253 447 l 96 447 l 96 475 l 282 475 z m 560 447 l 397 447 l 397 292 l 368 292 l 368 475 l 560 475 z m 282 563 l 96 563 l 96 592 l 253 592 l 253 757 l 282 757 z m 560 563 l 368 563 l 368 757 l 397 757 l 397 592 l 560 592 z m 560 503 l 339 503 l 339 292 l 310 292 l 310 503 l 96 503 l 96 533 l 310 533 l 310 757 l 339 757 l 339 533 l 560 533 z "},",":{"ha":339,"x_min":0,"x_max":0,"o":"m 228 -192 l 322 -65 b 342 -6 338 -44 342 -24 b 286 97 342 32 315 64 b 171 172 242 150 218 172 b 69 71 115 172 69 131 b 128 -19 69 38 83 13 l 92 -68 z m 149 68 b 169 88 149 79 158 88 b 188 68 181 88 188 79 b 169 51 188 60 181 51 b 149 68 158 51 149 60 z m 151 -81 l 128 -62 l 203 38 b 214 68 210 50 214 60 b 169 117 214 99 194 117 b 124 68 143 117 124 101 b 158 24 124 46 142 31 l 144 3 b 96 71 111 15 96 38 b 171 146 96 115 129 146 b 244 71 214 146 244 111 b 229 24 244 56 240 40 z "},"-":{"ha":446,"x_min":0,"x_max":0,"o":"m 394 617 l 51 617 l 51 422 l 131 350 l 467 350 l 467 536 z m 368 563 l 76 563 l 76 592 l 368 592 z m 368 503 l 76 503 l 76 533 l 368 533 z m 368 447 l 76 447 l 76 475 l 368 475 z "},".":{"ha":338,"x_min":0,"x_max":0,"o":"m 69 72 b 114 -17 69 35 89 6 l 176 -71 b 244 -97 194 -86 218 -97 b 339 -4 296 -97 339 -57 b 311 64 339 22 328 44 l 257 128 b 168 172 233 156 204 172 b 69 72 113 172 69 128 z m 150 72 b 168 92 150 82 158 92 b 186 72 178 92 186 82 b 168 56 186 63 178 56 b 150 72 158 56 150 63 z m 125 72 b 168 29 125 49 143 29 b 213 72 192 29 213 49 b 168 117 213 97 192 117 b 125 72 143 117 125 97 z m 96 72 b 168 146 96 113 128 146 b 242 72 208 146 242 113 b 168 0 242 32 208 0 b 96 72 128 0 96 32 z "},"/":{"ha":596,"x_min":0,"x_max":0,"o":"m 586 1039 l 392 1039 l 10 -25 l 92 -97 l 278 -97 l 657 958 z m 74 0 l 46 0 l 410 1014 l 438 1014 z m 131 0 l 101 0 l 467 1014 l 494 1014 z m 188 0 l 158 0 l 522 1014 l 550 1014 z "},":":{"ha":338,"x_min":0,"x_max":0,"o":"m 69 72 b 114 -17 69 35 89 6 l 176 -71 b 244 -97 194 -86 218 -97 b 339 -4 296 -97 339 -57 b 311 64 339 22 328 44 l 257 128 b 168 172 233 156 204 172 b 69 72 113 172 69 128 z m 69 556 b 114 467 69 518 89 488 l 176 413 b 244 385 194 397 218 385 b 339 479 296 385 339 426 b 311 547 339 504 328 528 l 257 611 b 168 654 233 638 204 654 b 69 556 113 654 69 610 z m 150 554 b 168 574 150 564 158 574 b 186 554 178 574 186 564 b 168 538 186 544 178 538 b 150 554 158 538 150 544 z m 125 554 b 168 511 125 531 143 511 b 213 554 192 511 213 531 b 168 599 213 579 192 599 b 125 554 143 599 125 579 z m 96 554 b 168 628 96 594 128 628 b 242 554 208 628 242 594 b 168 482 242 514 208 482 b 96 554 128 482 96 514 z m 150 72 b 168 92 150 82 158 92 b 186 72 178 92 186 82 b 168 56 186 63 178 56 b 150 72 158 56 150 63 z m 125 72 b 168 29 125 49 143 29 b 213 72 192 29 213 49 b 168 117 213 97 192 117 b 125 72 143 117 125 97 z m 96 72 b 168 146 96 113 128 146 b 242 72 208 146 242 113 b 168 0 242 32 208 0 b 96 72 128 0 96 32 z "},";":{"ha":339,"x_min":0,"x_max":0,"o":"m 228 -192 l 322 -65 b 342 -6 338 -44 342 -24 b 286 97 342 32 315 64 b 171 172 242 150 218 172 b 69 71 115 172 69 131 b 128 -19 69 38 83 13 l 92 -68 z m 71 556 b 115 467 71 518 90 488 l 178 413 b 246 385 196 397 218 385 b 340 479 297 385 340 426 b 313 547 340 504 329 528 l 258 611 b 169 654 235 638 206 654 b 71 556 113 654 71 610 z m 151 554 b 169 574 151 564 158 574 b 188 554 179 574 188 564 b 169 538 188 544 179 538 b 151 554 158 538 151 544 z m 126 554 b 169 511 126 531 144 511 b 214 554 193 511 214 531 b 169 599 214 579 193 599 b 126 554 144 599 126 579 z m 97 554 b 169 628 97 594 128 628 b 243 554 210 628 243 594 b 169 482 243 514 210 482 b 97 554 128 482 97 514 z m 149 68 b 169 88 149 79 158 88 b 188 68 181 88 188 79 b 169 51 188 60 181 51 b 149 68 158 51 149 60 z m 151 -81 l 128 -62 l 203 38 b 214 68 210 50 214 60 b 169 117 214 99 194 117 b 124 68 143 117 124 101 b 158 24 124 46 142 31 l 144 3 b 96 71 111 15 96 38 b 171 146 96 115 129 146 b 244 71 214 146 244 111 b 229 24 244 56 240 40 z "},"<":{"ha":653,"x_min":0,"x_max":0,"o":"m 69 392 l 150 318 l 656 146 l 656 353 l 583 432 l 558 442 l 656 474 l 656 683 l 583 764 l 69 592 z m 96 440 l 558 283 l 558 251 l 96 410 z m 96 574 l 558 729 l 558 697 l 96 540 z m 239 490 l 558 597 l 558 565 l 333 490 l 558 414 l 558 382 z m 96 506 l 558 663 l 558 631 l 143 490 l 558 350 l 558 315 l 96 474 z "},"=":{"ha":654,"x_min":0,"x_max":0,"o":"m 585 717 l 69 717 l 69 521 l 142 458 l 69 458 l 69 263 l 150 190 l 657 190 l 657 378 l 586 449 l 657 449 l 657 638 z m 560 403 l 96 403 l 96 432 l 560 432 z m 560 346 l 96 346 l 96 375 l 560 375 z m 560 289 l 96 289 l 96 317 l 560 317 z m 560 663 l 96 663 l 96 692 l 560 692 z m 560 606 l 96 606 l 96 635 l 560 635 z m 560 547 l 96 547 l 96 578 l 560 578 z "},">":{"ha":653,"x_min":0,"x_max":0,"o":"m 583 592 l 69 764 l 69 549 l 161 463 l 69 432 l 69 218 l 150 146 l 656 318 l 656 513 z m 558 474 l 96 315 l 96 350 l 511 490 l 96 631 l 96 663 l 558 506 z m 96 382 l 96 414 l 321 490 l 96 565 l 96 597 l 414 490 z m 558 540 l 96 697 l 96 729 l 558 574 z m 558 410 l 96 251 l 96 283 l 558 440 z "},"?":{"ha":714,"x_min":0,"x_max":0,"o":"m 142 560 l 321 608 b 307 675 310 633 307 660 b 433 793 307 738 363 793 b 485 739 474 793 485 778 b 388 626 485 685 447 643 b 188 356 261 592 188 490 b 204 260 188 331 192 299 l 283 188 l 488 188 b 454 279 458 236 454 261 b 518 367 454 332 486 357 b 744 663 657 406 744 515 b 638 910 744 753 710 831 b 357 1057 549 1007 464 1057 b 40 746 193 1057 40 939 b 63 631 40 714 47 678 z m 218 72 b 263 -17 218 35 238 6 l 325 -71 b 393 -97 343 -86 367 -97 b 488 -4 444 -97 488 -57 b 460 64 488 22 476 44 l 406 128 b 317 172 383 156 353 172 b 218 72 261 172 218 128 z m 299 72 b 315 92 299 82 307 92 b 333 72 325 92 333 82 b 315 56 333 63 325 56 b 299 72 307 56 299 63 z m 272 72 b 315 29 272 49 292 29 b 360 72 340 29 360 49 b 315 117 360 97 340 117 b 272 72 292 117 272 97 z m 243 72 b 315 146 243 113 275 146 b 389 72 356 146 389 113 b 315 0 389 32 356 0 b 243 72 275 0 243 32 z m 222 285 b 214 356 217 307 214 331 b 396 603 214 478 279 569 b 510 739 465 622 510 674 b 357 892 510 829 443 892 b 208 751 274 892 208 825 b 218 701 208 736 213 719 l 189 696 b 181 747 182 714 181 729 b 357 922 181 842 267 922 b 535 743 465 922 535 844 b 404 575 535 663 478 593 b 243 347 307 549 243 464 b 251 285 243 326 247 306 z m 281 285 b 269 349 274 307 269 328 b 413 547 269 453 326 525 b 563 747 506 571 563 653 b 357 947 563 863 475 947 b 150 747 247 947 150 863 b 163 686 150 726 154 704 l 136 679 b 122 750 128 706 122 729 b 358 982 122 875 240 982 b 589 749 493 982 589 868 b 421 519 589 636 522 546 b 300 353 347 503 300 438 b 310 285 300 332 303 308 z m 342 285 b 326 354 331 308 326 333 b 428 492 326 428 368 474 b 617 743 538 522 617 621 b 357 1006 617 889 507 1006 b 96 742 218 1006 96 899 b 106 669 96 715 97 694 l 79 663 b 67 746 69 690 67 717 b 357 1031 67 924 207 1031 b 647 739 522 1031 647 906 b 436 463 647 601 564 503 b 356 356 396 451 356 419 b 372 285 356 333 358 308 z "},"@":{"ha":1026,"x_min":0,"x_max":0,"o":"m 249 -93 b 642 -235 354 -186 475 -235 b 1022 -139 826 -235 978 -168 l 921 13 l 857 76 b 1050 446 978 128 1050 238 b 924 785 1050 575 1014 683 b 528 953 826 893 711 953 b 43 408 275 953 43 743 b 249 -93 43 204 103 38 z m 565 24 b 303 332 363 24 303 144 b 325 474 303 383 310 432 b 321 390 322 449 321 421 b 424 125 321 269 340 194 b 660 46 497 63 563 46 b 746 50 689 46 719 47 b 565 24 699 36 636 24 z m 604 693 b 786 585 699 693 781 683 l 721 660 l 561 660 b 457 647 519 660 486 656 b 604 693 501 676 551 693 z m 481 390 b 560 281 481 319 501 288 l 560 500 b 481 390 503 499 481 471 z m 583 253 b 454 390 486 253 454 292 b 561 526 454 492 483 526 l 588 526 l 588 253 z m 561 553 b 428 390 464 553 428 511 b 583 225 428 271 465 225 l 614 225 l 614 553 z m 888 -10 b 565 -82 854 -33 733 -82 b 124 408 254 -82 124 125 b 528 872 124 693 318 872 b 899 522 794 872 899 728 b 583 199 899 276 775 199 b 399 390 443 199 399 251 b 561 581 399 532 443 581 l 640 581 l 640 228 b 871 522 781 244 871 322 b 528 846 871 713 775 846 b 150 408 333 846 150 675 b 565 -56 150 140 275 -56 b 871 13 726 -56 840 -10 z m 844 522 b 668 260 844 356 774 282 l 668 608 l 561 608 b 372 390 425 608 372 550 b 583 172 372 232 424 172 b 925 522 792 172 925 256 b 528 900 925 743 815 900 b 97 408 304 900 97 710 b 565 -110 97 110 233 -110 b 904 -32 740 -110 868 -57 l 918 -54 b 565 -137 879 -81 744 -137 b 68 408 213 -137 68 96 b 528 926 68 728 289 926 b 953 522 833 926 953 760 b 583 143 953 233 810 143 b 346 390 401 143 346 213 b 561 635 346 571 404 635 l 696 635 l 696 296 b 818 522 767 322 818 394 b 528 790 818 681 736 790 b 204 408 363 790 204 640 b 565 -1 204 169 317 -1 b 839 57 713 -1 814 38 l 856 35 b 565 -28 828 14 719 -28 b 178 408 296 -28 178 154 b 528 818 178 658 347 818 b 844 522 756 818 844 697 z "},"A":{"ha":757,"x_min":0,"x_max":0,"o":"m 144 -97 l 332 -97 l 332 336 l 497 336 l 497 -25 l 578 -97 l 765 -97 l 765 669 b 661 907 765 753 729 831 b 376 1057 572 1006 481 1057 b 65 746 204 1057 65 924 l 65 -25 z m 332 672 b 453 793 332 743 378 793 b 497 749 492 793 497 786 l 497 604 l 332 604 z m 550 0 l 522 0 l 522 433 l 233 433 l 233 0 l 206 0 l 206 461 l 550 461 z m 668 0 l 638 0 l 638 749 b 378 1006 638 882 514 1006 b 118 749 247 1006 118 885 l 118 0 l 90 0 l 90 746 b 376 1031 90 908 218 1031 b 668 746 535 1031 668 904 z m 550 549 l 206 549 l 206 743 b 376 921 206 843 278 921 b 550 743 478 921 550 843 z m 522 578 l 522 749 b 376 892 522 838 463 892 b 233 749 289 892 233 833 l 233 578 z m 608 0 l 581 0 l 581 492 l 176 492 l 176 0 l 147 0 l 147 743 b 376 981 147 876 253 981 b 608 749 507 981 608 868 z m 581 519 l 581 743 b 376 949 581 857 488 949 b 176 749 268 949 176 858 l 176 519 z "},"B":{"ha":756,"x_min":0,"x_max":0,"o":"m 150 -97 l 457 -97 b 768 204 644 -97 768 8 b 676 429 768 304 739 368 b 765 656 731 475 765 546 b 663 907 765 751 735 825 b 381 1039 581 999 496 1039 l 69 1039 l 69 -25 z m 338 338 l 457 338 b 510 281 500 338 510 331 b 381 168 510 207 460 168 l 338 168 z m 338 771 l 457 771 b 507 732 499 771 507 761 b 381 603 507 643 453 603 l 338 603 z m 381 578 b 533 732 468 578 533 625 b 381 868 533 822 476 868 l 239 868 l 239 578 z m 381 143 b 535 281 476 143 535 190 b 381 435 535 383 468 435 l 239 435 l 239 143 z m 210 897 l 381 897 b 560 732 497 897 560 833 b 381 549 560 611 486 549 l 210 549 z m 563 281 b 381 114 563 179 497 114 l 210 114 l 210 461 l 381 461 b 563 281 486 461 563 401 z m 381 519 b 588 732 515 519 588 613 b 381 926 588 849 513 926 l 182 926 l 182 519 z m 182 492 l 182 86 l 381 86 b 589 281 513 86 589 164 b 381 492 589 400 515 492 z m 617 281 b 381 58 617 144 525 58 l 151 58 l 151 954 l 381 954 b 614 732 525 954 614 867 b 461 506 614 614 554 532 b 617 281 554 482 617 399 z m 381 28 b 642 281 540 28 642 122 b 521 506 642 383 608 458 b 639 732 608 554 639 628 b 381 983 639 892 540 983 l 124 983 l 124 28 z m 669 281 b 381 0 669 99 556 0 l 96 0 l 96 1014 l 381 1014 b 668 732 556 1014 668 914 b 564 506 668 614 626 549 b 669 281 626 464 669 399 z "},"C":{"ha":744,"x_min":0,"x_max":0,"o":"m 492 265 b 374 151 492 194 446 151 b 326 189 333 151 326 158 l 326 669 b 450 789 326 744 374 789 b 492 746 483 789 492 781 l 492 692 l 572 619 l 760 619 l 760 669 b 656 913 760 758 726 835 b 374 1057 569 1010 479 1057 b 60 746 200 1057 60 929 l 60 265 b 203 -11 60 158 110 72 b 450 -117 281 -81 363 -117 b 760 189 622 -117 760 10 l 760 236 l 688 317 l 492 317 z m 518 292 l 547 292 l 547 265 b 374 97 547 161 465 97 b 201 265 282 97 201 161 l 201 746 b 374 915 201 851 282 915 b 547 746 465 915 547 851 l 547 717 l 518 717 l 518 746 b 374 888 518 835 463 888 b 229 746 285 888 229 835 l 229 265 b 374 126 229 178 285 126 b 518 265 463 126 518 178 z m 575 292 l 604 292 l 604 265 b 374 39 604 131 492 39 b 143 265 256 39 143 131 l 143 746 b 374 974 143 882 256 974 b 604 746 492 974 604 882 l 604 717 l 575 717 l 575 746 b 374 944 575 864 490 944 b 172 746 257 944 172 864 l 172 265 b 374 68 172 150 257 68 b 575 265 490 68 575 150 z m 633 292 l 663 292 l 663 265 b 374 -19 663 99 533 -19 b 85 265 214 -19 85 99 l 85 746 b 374 1031 85 914 214 1031 b 663 746 533 1031 663 914 l 663 717 l 633 717 l 633 746 b 374 1001 633 901 506 1001 b 113 746 242 1001 113 901 l 113 265 b 374 11 113 113 242 11 b 633 265 506 11 633 113 z "},"D":{"ha":756,"x_min":0,"x_max":0,"o":"m 150 -97 l 463 -97 b 768 217 638 -97 768 36 l 768 644 b 657 900 768 736 731 817 b 386 1039 578 990 492 1039 l 69 1039 l 69 -25 z m 338 771 l 456 771 b 501 728 496 771 501 767 l 501 285 b 379 169 501 213 453 169 l 338 169 z m 239 143 l 379 143 b 526 285 468 143 526 196 l 526 728 b 379 868 526 818 468 868 l 239 868 z m 556 293 b 386 115 556 186 482 115 l 210 115 l 210 897 l 386 897 b 556 721 482 897 556 826 z m 182 86 l 379 86 b 585 293 497 86 585 172 l 585 721 b 379 926 585 840 497 926 l 182 926 z m 614 285 b 386 58 614 161 513 58 l 151 58 l 151 954 l 386 954 b 614 728 513 954 614 851 z m 124 29 l 379 29 b 642 285 529 29 642 143 l 642 728 b 379 983 642 869 529 983 l 124 983 z m 669 293 b 386 0 669 125 549 0 l 96 0 l 96 1014 l 386 1014 b 669 721 549 1014 669 889 z "},"E":{"ha":754,"x_min":0,"x_max":0,"o":"m 503 265 b 383 151 503 194 457 151 b 338 189 343 151 338 158 l 338 335 l 582 335 l 582 522 l 510 603 l 338 603 l 338 669 b 460 789 338 744 383 789 b 503 746 500 789 503 781 l 503 692 l 582 619 l 769 619 l 769 669 b 667 910 769 758 732 833 b 383 1057 582 1007 492 1057 b 69 746 210 1057 69 929 l 69 265 b 211 -8 69 158 119 72 b 460 -117 292 -81 372 -117 b 769 189 632 -117 769 10 l 769 236 l 697 317 l 503 317 z m 528 292 l 556 292 l 556 265 b 383 97 556 161 474 97 b 211 265 293 97 211 161 l 211 461 l 485 461 l 485 432 l 239 432 l 239 265 b 383 126 239 178 294 126 b 528 265 472 126 528 178 z m 239 578 l 485 578 l 485 547 l 211 547 l 211 746 b 383 915 211 851 293 915 b 556 746 474 915 556 851 l 556 717 l 528 717 l 528 746 b 383 888 528 835 472 888 b 239 746 294 888 239 835 z m 183 518 l 485 518 l 485 490 l 183 490 l 183 265 b 383 68 183 150 267 68 b 585 265 501 68 585 150 l 585 292 l 614 292 l 614 265 b 383 39 614 131 503 39 b 153 265 265 39 153 131 l 153 746 b 383 974 153 882 265 974 b 614 746 503 974 614 882 l 614 717 l 585 717 l 585 746 b 383 944 585 864 501 944 b 183 746 267 944 183 864 z m 643 292 l 671 292 l 671 265 b 383 -19 671 99 544 -19 b 96 265 224 -19 96 99 l 96 746 b 383 1031 96 914 224 1031 b 671 746 544 1031 671 914 l 671 717 l 643 717 l 643 746 b 383 1001 643 901 515 1001 b 124 746 251 1001 124 901 l 124 265 b 383 11 124 113 251 11 b 643 265 515 11 643 113 z "},"F":{"ha":722,"x_min":0,"x_max":0,"o":"m 332 669 b 456 789 332 744 379 789 b 497 746 494 789 497 781 l 497 692 l 578 619 l 765 619 l 765 669 b 663 911 765 758 731 835 b 379 1057 575 1010 485 1057 b 65 746 204 1057 65 929 l 65 -25 l 144 -97 l 332 -97 l 332 335 l 578 335 l 578 522 l 504 603 l 332 603 z m 233 0 l 206 0 l 206 461 l 479 461 l 479 432 l 233 432 z m 233 578 l 479 578 l 479 547 l 206 547 l 206 746 b 379 915 206 851 288 915 b 550 746 469 915 550 851 l 550 717 l 522 717 l 522 746 b 379 888 522 835 468 888 b 233 746 290 888 233 835 z m 118 0 l 90 0 l 90 746 b 379 1031 90 914 218 1031 b 668 746 539 1031 668 914 l 668 717 l 638 717 l 638 746 b 379 1001 638 901 510 1001 b 118 746 247 1001 118 901 z m 178 518 l 479 518 l 479 490 l 178 490 l 178 0 l 147 0 l 147 746 b 379 974 147 882 261 974 b 608 746 497 974 608 882 l 608 717 l 579 717 l 579 746 b 379 944 579 864 496 944 b 178 746 263 944 178 864 z "},"G":{"ha":747,"x_min":0,"x_max":0,"o":"m 688 550 l 346 550 l 346 356 l 426 283 l 492 283 l 492 265 b 374 151 492 194 446 151 b 326 189 333 151 326 154 l 326 669 b 450 789 326 744 374 789 b 492 746 489 789 492 781 l 492 692 l 572 619 l 760 619 l 760 669 b 656 913 760 758 729 839 b 374 1057 575 1014 479 1057 b 60 746 200 1057 60 929 l 60 265 b 204 -12 60 158 110 72 b 450 -117 279 -81 363 -117 b 760 189 622 -117 760 10 l 760 471 z m 547 265 b 374 97 547 161 465 97 b 201 265 282 97 201 161 l 201 746 b 374 915 201 851 282 915 b 547 746 465 915 547 851 l 547 717 l 518 717 l 518 746 b 374 888 518 835 463 888 b 229 746 285 888 229 835 l 229 265 b 374 126 229 178 285 126 b 518 265 463 126 518 178 l 518 382 l 371 382 l 371 410 l 547 410 z m 604 265 b 374 39 604 131 492 39 b 143 265 256 39 143 131 l 143 746 b 374 974 143 882 256 974 b 604 746 492 974 604 882 l 604 717 l 575 717 l 575 746 b 374 944 575 864 490 944 b 172 746 257 944 172 864 l 172 265 b 374 68 172 150 257 68 b 575 265 490 68 575 150 l 575 439 l 371 439 l 371 467 l 604 467 z m 663 265 b 374 -19 663 99 533 -19 b 85 265 214 -19 85 99 l 85 746 b 374 1031 85 914 214 1031 b 663 746 533 1031 663 914 l 663 717 l 633 717 l 633 746 b 374 1001 633 901 506 1001 b 113 746 242 1001 113 901 l 113 265 b 374 11 113 113 242 11 b 633 265 506 11 633 113 l 633 496 l 371 496 l 371 525 l 663 525 z "},"H":{"ha":767,"x_min":0,"x_max":0,"o":"m 264 1039 l 69 1039 l 69 -25 l 150 -97 l 338 -97 l 338 335 l 503 335 l 503 -25 l 582 -97 l 769 -97 l 769 958 l 697 1039 l 503 1039 l 503 603 l 338 603 l 338 958 z m 557 0 l 528 0 l 528 432 l 239 432 l 239 0 l 211 0 l 211 461 l 557 461 z m 125 0 l 96 0 l 96 1014 l 125 1014 z m 614 0 l 586 0 l 586 490 l 183 490 l 183 0 l 153 0 l 153 1014 l 183 1014 l 183 518 l 586 518 l 586 1014 l 614 1014 z m 557 547 l 211 547 l 211 1014 l 239 1014 l 239 578 l 528 578 l 528 1014 l 557 1014 z m 671 0 l 643 0 l 643 1014 l 671 1014 z "},"I":{"ha":335,"x_min":0,"x_max":0,"o":"m 264 1039 l 69 1039 l 69 -25 l 150 -97 l 338 -97 l 338 958 z m 239 0 l 211 0 l 211 1014 l 239 1014 z m 183 0 l 153 0 l 153 1014 l 183 1014 z m 125 0 l 96 0 l 96 1014 l 125 1014 z "},"J":{"ha":761,"x_min":0,"x_max":0,"o":"m 264 317 l 69 317 l 69 265 b 206 -7 69 158 117 71 b 460 -117 290 -82 372 -117 b 769 189 632 -117 769 10 l 769 958 l 697 1039 l 503 1039 l 503 265 b 383 151 503 194 457 151 b 338 189 343 151 338 160 l 338 236 z m 239 265 b 383 126 239 178 294 126 b 528 265 472 126 528 178 l 528 1014 l 556 1014 l 556 265 b 383 97 556 161 474 97 b 211 265 293 97 211 161 l 211 292 l 239 292 z m 183 265 b 383 68 183 150 267 68 b 585 265 501 68 585 150 l 585 1014 l 614 1014 l 614 265 b 383 39 614 131 503 39 b 153 265 265 39 153 131 l 153 292 l 183 292 z m 124 265 b 383 11 124 113 251 11 b 643 265 515 11 643 113 l 643 1014 l 671 1014 l 671 265 b 383 -19 671 99 544 -19 b 96 265 224 -19 96 99 l 96 292 l 124 292 z "},"K":{"ha":765,"x_min":0,"x_max":0,"o":"m 338 958 l 264 1039 l 69 1039 l 69 -25 l 150 -97 l 338 -97 l 338 338 l 457 338 b 506 281 504 338 506 322 l 506 -25 l 586 -97 l 774 -97 l 774 204 b 676 429 774 303 740 367 b 767 656 731 475 767 547 l 767 958 l 694 1039 l 500 1039 l 500 732 b 381 603 500 643 453 603 l 338 603 z m 96 0 l 96 1014 l 124 1014 l 124 0 z m 668 732 b 564 506 668 614 626 549 b 675 281 626 464 675 399 l 675 0 l 646 0 l 646 281 b 521 506 646 383 608 458 b 639 732 608 554 639 628 l 639 1014 l 668 1014 z m 210 0 l 210 461 l 381 461 b 560 281 486 461 560 401 l 560 0 l 532 0 l 532 281 b 381 435 532 383 468 435 l 239 435 l 239 0 z m 553 732 b 381 549 553 611 486 549 l 210 549 l 210 1014 l 239 1014 l 239 578 l 381 578 b 525 732 468 578 525 625 l 525 1014 l 553 1014 z m 588 0 l 588 281 b 381 492 588 400 515 492 l 182 492 l 182 0 l 151 0 l 151 1014 l 182 1014 l 182 519 l 381 519 b 582 732 515 519 582 613 l 582 1014 l 611 1014 l 611 732 b 461 506 611 614 554 532 b 618 281 554 482 618 399 l 618 0 z "},"L":{"ha":576,"x_min":0,"x_max":0,"o":"m 540 169 l 338 169 l 338 958 l 264 1039 l 69 1039 l 69 -25 l 78 -25 l 150 -97 l 613 -97 l 613 89 z m 515 0 l 96 0 l 96 1014 l 125 1014 l 125 28 l 515 28 z m 515 58 l 153 58 l 153 1014 l 182 1014 l 182 86 l 515 86 z m 515 115 l 211 115 l 211 1014 l 239 1014 l 239 143 l 515 143 z "},"M":{"ha":1042,"x_min":0,"x_max":0,"o":"m 425 -25 l 504 -97 l 689 -97 l 689 701 b 776 789 689 761 728 789 l 782 789 l 782 -25 l 863 -97 l 1049 -97 l 1049 701 b 956 933 1049 786 1022 857 b 700 1057 882 1017 810 1057 b 519 999 621 1057 563 1039 b 342 1057 475 1035 417 1057 b 65 778 153 1057 65 940 l 65 -25 l 144 -97 l 332 -97 l 332 701 b 418 789 332 761 368 789 l 425 789 z m 450 778 b 342 888 450 851 403 888 b 233 778 279 888 233 851 l 233 0 l 206 0 l 206 778 b 342 915 206 864 263 915 b 478 778 422 915 478 864 l 478 0 l 450 0 z m 807 778 b 700 888 807 851 761 888 b 592 778 638 888 592 851 l 592 0 l 563 0 l 563 778 b 700 915 563 864 621 915 b 835 778 781 915 835 864 l 835 0 l 807 0 z m 924 778 b 700 1001 924 907 849 1001 b 521 921 625 1001 568 976 b 342 1001 474 976 418 1001 b 118 778 192 1001 118 907 l 118 0 l 90 0 l 90 778 b 342 1031 90 925 171 1031 b 519 964 421 1031 479 1004 b 700 1031 558 1004 622 1031 b 951 778 871 1031 951 925 l 951 0 l 924 0 z m 507 778 b 342 944 507 879 446 944 b 178 778 236 944 178 879 l 178 0 l 147 0 l 147 778 b 342 974 147 893 217 974 b 519 849 432 974 507 925 b 700 974 543 933 606 974 b 893 778 826 974 893 893 l 893 0 l 864 0 l 864 778 b 700 944 864 879 804 944 b 535 778 594 944 535 879 l 535 0 l 507 0 z "},"N":{"ha":757,"x_min":0,"x_max":0,"o":"m 144 -97 l 332 -97 l 332 669 b 456 789 332 744 379 789 b 497 746 494 789 497 781 l 497 -25 l 578 -97 l 765 -97 l 765 669 b 658 914 765 758 729 833 b 379 1057 574 1010 485 1057 b 65 746 204 1057 65 929 l 65 -25 z m 233 0 l 206 0 l 206 746 b 379 915 206 851 288 915 b 550 746 469 915 550 851 l 550 0 l 522 0 l 522 746 b 379 888 522 835 468 888 b 233 746 290 888 233 835 z m 178 0 l 147 0 l 147 746 b 379 974 147 882 261 974 b 608 746 497 974 608 882 l 608 0 l 579 0 l 579 746 b 379 944 579 864 496 944 b 178 746 263 944 178 864 z m 118 0 l 90 0 l 90 746 b 379 1031 90 914 218 1031 b 668 746 539 1031 668 914 l 668 0 l 638 0 l 638 746 b 379 1001 638 901 510 1001 b 118 746 247 1001 118 901 z "},"O":{"ha":747,"x_min":0,"x_max":0,"o":"m 181 11 b 450 -117 285 -78 363 -117 b 760 189 622 -117 760 10 l 760 669 b 656 917 760 758 722 833 b 374 1057 578 1014 479 1057 b 60 746 200 1057 60 929 l 60 265 b 181 11 60 158 110 72 z m 492 265 b 374 151 492 194 446 151 b 326 189 333 151 326 160 l 326 669 b 450 789 326 744 374 789 b 492 746 489 789 492 781 z m 518 746 b 374 888 518 835 463 888 b 229 746 285 888 229 835 l 229 265 b 374 126 229 178 285 126 b 518 265 463 126 518 178 z m 547 265 b 374 97 547 161 465 97 b 201 265 282 97 201 161 l 201 746 b 374 915 201 851 282 915 b 547 746 465 915 547 851 z m 575 746 b 374 944 575 864 490 944 b 172 746 257 944 172 864 l 172 265 b 374 68 172 150 257 68 b 575 265 490 68 575 150 z m 604 265 b 374 39 604 131 492 39 b 143 265 256 39 143 131 l 143 746 b 374 974 143 882 256 974 b 604 746 492 974 604 882 z m 633 746 b 374 1001 633 901 506 1001 b 113 746 242 1001 113 901 l 113 265 b 374 11 113 113 242 11 b 633 265 506 11 633 113 z m 663 265 b 374 -19 663 99 533 -19 b 85 265 214 -19 85 99 l 85 746 b 374 1031 85 914 214 1031 b 663 746 533 1031 663 914 z "},"P":{"ha":743,"x_min":0,"x_max":0,"o":"m 150 -97 l 338 -97 l 338 338 l 457 338 b 769 649 619 338 769 476 b 661 892 769 732 728 808 b 381 1039 586 985 486 1039 l 69 1039 l 69 -25 z m 338 771 l 457 771 b 503 725 499 771 503 764 b 381 607 503 653 454 607 l 338 607 z m 182 0 l 153 0 l 153 954 l 381 954 b 614 725 513 954 614 853 b 381 494 614 590 503 494 l 182 494 z m 381 522 b 586 725 494 522 586 613 b 381 926 586 833 497 926 l 182 926 l 182 522 z m 213 549 l 213 897 l 381 897 b 557 725 482 897 557 822 b 381 549 557 615 482 549 z m 239 0 l 211 0 l 211 464 l 381 464 b 643 725 513 464 643 583 b 381 983 643 864 526 983 l 125 983 l 125 0 l 96 0 l 96 1014 l 381 1014 b 671 725 542 1014 671 882 b 381 436 671 564 532 436 l 239 436 z m 381 581 b 528 725 469 581 528 636 b 381 868 528 814 469 868 l 239 868 l 239 581 z "},"Q":{"ha":763,"x_min":0,"x_max":0,"o":"m 200 8 b 450 -97 281 -64 363 -97 l 775 -97 l 775 89 l 747 117 b 760 208 756 144 760 174 l 760 669 b 653 914 760 758 725 833 b 374 1057 568 1010 479 1057 b 60 746 200 1057 60 929 l 60 285 b 200 8 60 178 106 93 z m 492 285 b 374 169 492 213 446 169 b 326 208 333 169 326 172 l 326 669 b 450 789 326 744 374 789 b 492 746 489 789 492 781 z m 678 0 l 374 0 b 85 285 214 0 85 117 l 85 746 b 374 1031 85 914 214 1031 b 663 746 533 1031 663 914 l 663 285 b 626 143 663 232 649 185 l 678 143 l 678 115 l 569 115 b 633 285 608 158 633 218 l 633 746 b 374 1001 633 901 506 1001 b 113 746 242 1001 113 901 l 113 285 b 374 29 113 131 242 29 l 678 29 z m 518 746 b 374 888 518 835 463 888 b 229 746 285 888 229 835 l 229 285 b 374 143 229 196 285 143 b 518 285 463 143 518 196 z m 547 285 b 374 115 547 181 465 115 b 201 285 282 115 201 181 l 201 746 b 374 915 201 851 282 915 b 547 746 465 915 547 851 z m 575 746 b 374 944 575 864 490 944 b 172 746 257 944 172 864 l 172 285 b 374 86 172 169 257 86 b 575 285 490 86 575 169 z m 678 58 l 374 58 b 143 285 256 58 143 149 l 143 746 b 374 974 143 882 256 974 b 604 746 492 974 604 882 l 604 285 b 486 86 604 193 553 124 l 678 86 z "},"R":{"ha":765,"x_min":0,"x_max":0,"o":"m 586 -97 l 774 -97 l 774 204 b 676 429 774 288 746 361 b 765 656 731 475 765 544 b 668 900 765 751 735 824 b 381 1039 581 997 496 1039 l 69 1039 l 69 -25 l 150 -97 l 338 -97 l 338 338 l 457 338 b 506 281 497 338 506 328 l 506 -25 z m 338 771 l 457 771 b 507 732 499 771 507 764 b 381 603 507 643 453 603 l 338 603 z m 381 461 b 560 281 493 461 560 394 l 560 0 l 532 0 l 532 281 b 381 435 532 372 474 435 l 239 435 l 239 0 l 210 0 l 210 461 z m 564 506 b 675 281 638 456 675 374 l 675 0 l 646 0 l 646 281 b 521 506 646 376 607 454 b 639 732 608 554 639 628 b 381 983 639 892 540 983 l 124 983 l 124 0 l 96 0 l 96 1014 l 381 1014 b 668 732 556 1014 668 914 b 564 506 668 614 626 549 z m 381 578 b 533 732 468 578 533 625 b 381 868 533 822 476 868 l 239 868 l 239 578 z m 210 897 l 381 897 b 560 732 497 897 560 833 b 381 549 560 611 486 549 l 210 549 z m 381 519 b 588 732 515 519 588 613 b 381 926 588 849 513 926 l 182 926 l 182 519 z m 182 492 l 182 0 l 151 0 l 151 954 l 381 954 b 614 732 525 954 614 867 b 461 506 614 614 554 532 b 618 281 563 478 618 385 l 618 0 l 588 0 l 588 281 b 381 492 588 399 507 492 z "},"S":{"ha":756,"x_min":0,"x_max":0,"o":"m 336 386 b 499 342 393 367 449 363 b 508 278 504 324 508 303 b 378 149 508 206 453 149 b 325 215 335 149 325 158 l 253 294 l 56 294 b 211 -7 60 176 113 82 b 454 -117 293 -82 371 -117 b 771 203 633 -117 771 29 b 657 465 771 311 728 394 b 403 615 572 550 517 588 b 328 635 382 621 360 625 b 325 667 325 644 325 654 b 458 789 325 742 372 789 b 493 714 488 789 493 763 l 574 642 l 763 642 b 644 918 763 743 722 831 b 382 1057 561 1014 475 1057 b 65 743 203 1057 65 928 b 193 481 65 608 114 544 b 336 386 240 443 281 408 z m 672 278 b 378 -19 672 117 544 -19 b 82 269 222 -19 89 103 l 111 269 b 378 8 113 122 236 8 b 644 278 531 8 644 132 b 539 503 644 378 608 450 b 319 582 469 558 394 557 b 200 743 240 610 200 663 b 382 919 200 838 268 919 b 549 740 481 919 543 842 l 518 740 b 382 886 518 829 467 886 b 228 743 282 886 228 832 b 331 608 228 671 258 631 b 557 525 406 583 486 579 b 672 278 636 465 672 392 z m 635 740 b 382 1003 635 883 524 1003 b 118 743 232 1003 118 893 b 279 507 118 619 179 546 b 492 440 349 482 428 488 b 563 278 542 404 563 351 b 378 93 563 176 488 93 b 197 269 289 93 199 172 l 228 269 b 378 124 228 181 283 124 b 533 278 468 124 533 190 b 472 419 533 344 518 386 b 267 483 413 461 318 461 b 90 743 157 528 90 597 b 382 1031 90 913 218 1031 b 665 740 536 1031 665 908 z m 579 740 b 381 944 579 857 492 944 b 172 743 260 944 172 864 b 306 561 172 650 222 590 b 524 485 382 533 457 535 b 621 278 588 436 621 369 b 378 35 621 147 510 35 b 140 269 254 35 146 142 l 169 269 b 378 64 169 156 261 64 b 589 278 492 64 589 163 b 506 461 589 358 561 418 b 292 533 443 511 365 503 b 143 743 203 568 143 636 b 382 978 143 879 246 978 b 608 740 507 978 604 867 z "},"T":{"ha":692,"x_min":0,"x_max":0,"o":"m 111 771 l 247 771 l 247 -25 l 328 -97 l 517 -97 l 517 771 l 733 771 l 733 958 l 661 1039 l 31 1039 l 31 843 z m 636 983 l 56 983 l 56 1014 l 636 1014 z m 303 0 l 274 0 l 274 868 l 56 868 l 56 897 l 303 897 z m 418 0 l 388 0 l 388 897 l 636 897 l 636 868 l 418 868 z m 360 0 l 331 0 l 331 926 l 56 926 l 56 954 l 636 954 l 636 926 l 360 926 z "},"U":{"ha":757,"x_min":0,"x_max":0,"o":"m 497 265 b 379 151 497 194 451 151 b 332 189 338 151 332 154 l 332 958 l 260 1039 l 65 1039 l 65 265 b 207 -10 65 158 114 71 b 456 -117 286 -81 368 -117 b 765 189 626 -117 765 10 l 765 958 l 693 1039 l 497 1039 z m 522 1014 l 550 1014 l 550 265 b 379 97 550 161 469 97 b 206 265 288 97 206 161 l 206 1014 l 233 1014 l 233 265 b 379 126 233 178 290 126 b 522 265 468 126 522 178 z m 579 1014 l 608 1014 l 608 265 b 379 39 608 131 497 39 b 147 265 261 39 147 131 l 147 1014 l 178 1014 l 178 265 b 379 68 178 150 263 68 b 579 265 496 68 579 150 z m 638 1014 l 668 1014 l 668 265 b 379 -19 668 99 539 -19 b 90 265 218 -19 90 99 l 90 1014 l 118 1014 l 118 265 b 379 11 118 113 247 11 b 638 265 510 11 638 113 z "},"V":{"ha":679,"x_min":0,"x_max":0,"o":"m 221 1039 l 24 1039 l 247 -25 l 326 -97 l 504 -97 l 728 958 l 656 1039 l 458 1039 l 368 597 l 293 958 z m 297 0 l 268 0 l 56 1014 l 85 1014 z m 411 0 l 383 0 l 594 1014 l 624 1014 z m 340 203 l 172 1014 l 200 1014 l 340 335 l 481 1014 l 510 1014 z m 326 0 l 113 1014 l 143 1014 l 340 67 l 538 1014 l 568 1014 l 353 0 z "},"W":{"ha":1042,"x_min":0,"x_max":0,"o":"m 617 1039 l 425 1039 l 425 235 b 342 151 425 178 388 151 l 332 151 l 332 958 l 260 1039 l 65 1039 l 65 235 b 188 -24 65 133 97 54 b 418 -117 263 -87 329 -117 b 597 -57 499 -117 557 -97 b 776 -117 640 -93 701 -117 b 1049 158 963 -117 1049 -1 l 1049 958 l 976 1039 l 782 1039 l 782 235 b 700 151 782 178 746 151 l 689 151 l 689 958 z m 592 235 b 700 126 592 161 638 126 b 807 235 761 126 807 161 l 807 1014 l 835 1014 l 835 235 b 700 97 835 149 781 97 b 563 235 621 97 563 149 l 563 1014 l 592 1014 z m 233 235 b 342 126 233 161 279 126 b 450 235 403 126 450 161 l 450 1014 l 478 1014 l 478 235 b 342 97 478 149 422 97 b 206 235 263 97 206 149 l 206 1014 l 233 1014 z m 118 235 b 342 11 118 106 192 11 b 519 93 417 11 474 38 b 700 11 567 38 624 11 b 924 235 849 11 924 106 l 924 1014 l 951 1014 l 951 235 b 700 -19 951 88 871 -19 b 521 50 622 -19 563 8 b 342 -19 483 8 421 -19 b 90 235 171 -19 90 88 l 90 1014 l 118 1014 z m 535 235 b 700 68 535 133 594 68 b 864 235 804 68 864 133 l 864 1014 l 893 1014 l 893 235 b 700 39 893 121 826 39 b 521 165 608 39 535 88 b 342 39 500 81 436 39 b 147 235 217 39 147 121 l 147 1014 l 178 1014 l 178 235 b 342 68 178 133 236 68 b 507 235 446 68 507 133 l 507 1014 l 535 1014 z "},"X":{"ha":618,"x_min":0,"x_max":0,"o":"m 217 1039 l 21 1039 l 211 506 l 22 -25 l 103 -97 l 290 -97 l 358 97 l 404 -25 l 483 -97 l 668 -97 l 479 429 l 668 958 l 597 1039 l 404 1039 l 331 839 l 290 958 z m 449 0 l 422 0 l 308 308 l 199 0 l 171 0 l 310 383 z m 85 0 l 57 0 l 238 506 l 56 1014 l 85 1014 l 267 506 z m 507 0 l 476 0 l 308 467 l 143 0 l 113 0 l 293 511 l 113 1014 l 143 1014 l 307 550 l 476 1014 l 507 1014 l 322 506 z m 563 0 l 533 0 l 353 506 l 533 1014 l 563 1014 l 381 506 z m 308 626 l 171 1014 l 199 1014 l 308 703 l 422 1014 l 449 1014 z "},"Y":{"ha":743,"x_min":0,"x_max":0,"o":"m 324 613 l 324 958 l 251 1039 l 57 1039 l 57 682 b 199 414 57 581 106 496 b 279 351 239 379 260 363 l 279 -25 l 360 -97 l 547 -97 l 547 317 b 758 606 667 357 758 469 l 758 958 l 685 1039 l 489 1039 l 489 682 b 368 567 489 615 450 567 b 324 613 332 567 324 575 z m 449 0 l 419 0 l 419 432 b 631 678 533 453 631 560 l 631 1014 l 660 1014 l 660 682 b 449 410 660 549 568 443 z m 544 689 b 367 513 544 592 468 513 b 197 689 271 513 197 592 l 197 1014 l 226 1014 l 226 689 b 368 542 226 600 279 542 b 515 682 468 542 515 600 l 515 1014 l 544 1014 z m 333 0 l 306 0 l 306 407 b 82 682 172 440 82 549 l 82 1014 l 111 1014 l 111 689 b 333 428 111 560 208 447 z m 390 0 l 363 0 l 363 457 b 140 682 243 460 140 572 l 140 1014 l 169 1014 l 169 689 b 378 485 169 581 264 485 b 572 689 492 485 572 581 l 572 1014 l 601 1014 l 601 689 b 390 457 601 572 508 465 z "},"Z":{"ha":678,"x_min":0,"x_max":0,"o":"m 599 168 l 413 168 l 699 958 l 628 1039 l 94 1039 l 94 843 l 174 771 l 338 771 l 50 -25 l 131 -97 l 671 -97 l 671 88 z m 574 0 l 85 0 l 399 868 l 119 868 l 119 897 l 439 897 l 125 26 l 574 26 z m 574 57 l 163 57 l 475 926 l 119 926 l 119 954 l 515 954 l 203 85 l 574 85 z m 574 114 l 239 114 l 553 983 l 119 983 l 119 1014 l 593 1014 l 278 143 l 574 143 z "},"[":{"ha":438,"x_min":0,"x_max":0,"o":"m 406 1140 l 107 1140 l 107 -128 l 188 -200 l 478 -200 l 478 -12 l 406 68 l 374 68 l 374 874 l 478 874 l 478 1060 z m 381 971 l 276 971 l 276 42 l 381 42 l 381 14 l 247 14 l 247 999 l 381 999 z m 381 1029 l 218 1029 l 218 -17 l 381 -17 l 381 -44 l 189 -44 l 189 1058 l 381 1058 z m 381 1088 l 161 1088 l 161 -74 l 381 -74 l 381 -101 l 132 -101 l 132 1115 l 381 1115 z "},"\\":{"ha":593,"x_min":0,"x_max":0,"o":"m 204 1039 l 10 1039 l 389 -25 l 468 -97 l 654 -97 l 278 958 z m 433 0 l 407 0 l 46 1014 l 74 1014 z m 492 0 l 464 0 l 101 1014 l 131 1014 z m 549 0 l 518 0 l 158 1014 l 188 1014 z "},"]":{"ha":438,"x_min":0,"x_max":0,"o":"m 33 946 l 113 874 l 136 874 l 136 68 l 33 68 l 33 -128 l 113 -200 l 404 -200 l 404 1060 l 332 1140 l 33 1140 z m 58 999 l 189 999 l 189 14 l 58 14 l 58 42 l 161 42 l 161 971 l 58 971 z m 58 1058 l 247 1058 l 247 -44 l 58 -44 l 58 -17 l 219 -17 l 219 1029 l 58 1029 z m 58 1115 l 307 1115 l 307 -101 l 58 -101 l 58 -74 l 276 -74 l 276 1088 l 58 1088 z "},"^":{"ha":624,"x_min":0,"x_max":0,"o":"m 213 1039 l 38 524 l 119 451 l 326 451 l 360 550 l 368 524 l 447 451 l 656 451 l 486 958 l 413 1039 z m 263 1014 l 106 549 l 72 549 l 231 1014 z m 394 1014 l 550 549 l 518 549 l 361 1014 z m 311 868 l 419 549 l 386 549 l 311 775 l 235 549 l 203 549 z m 328 1014 l 485 549 l 453 549 l 311 967 l 172 549 l 138 549 l 296 1014 z "},"_":{"ha":861,"x_min":0,"x_max":0,"o":"m 844 -18 l 21 -18 l 21 -212 l 100 -285 l 917 -285 l 917 -97 z m 818 -72 l 46 -72 l 46 -43 l 818 -43 z m 818 -131 l 46 -131 l 46 -100 l 818 -100 z m 818 -187 l 46 -187 l 46 -158 l 818 -158 z "},"`":{"ha":413,"x_min":0,"x_max":0,"o":"m 160 1033 l 239 961 l 425 961 l 328 1231 l 254 1311 l 60 1311 z m 151 1285 l 181 1285 l 263 1058 l 233 1058 z m 208 1285 l 236 1285 l 318 1058 l 290 1058 z m 96 1285 l 124 1285 l 204 1058 l 178 1058 z "},"a":{"ha":757,"x_min":0,"x_max":0,"o":"m 144 -97 l 332 -97 l 332 336 l 497 336 l 497 -25 l 578 -97 l 765 -97 l 765 669 b 661 907 765 753 729 831 b 376 1057 572 1006 481 1057 b 65 746 204 1057 65 924 l 65 -25 z m 332 672 b 453 793 332 743 378 793 b 497 749 492 793 497 786 l 497 604 l 332 604 z m 550 0 l 522 0 l 522 433 l 233 433 l 233 0 l 206 0 l 206 461 l 550 461 z m 668 0 l 638 0 l 638 749 b 378 1006 638 882 514 1006 b 118 749 247 1006 118 885 l 118 0 l 90 0 l 90 746 b 376 1031 90 908 218 1031 b 668 746 535 1031 668 904 z m 550 549 l 206 549 l 206 743 b 376 921 206 843 278 921 b 550 743 478 921 550 843 z m 522 578 l 522 749 b 376 892 522 838 463 892 b 233 749 289 892 233 833 l 233 578 z m 608 0 l 581 0 l 581 492 l 176 492 l 176 0 l 147 0 l 147 743 b 376 981 147 876 253 981 b 608 749 507 981 608 868 z m 581 519 l 581 743 b 376 949 581 857 488 949 b 176 749 268 949 176 858 l 176 519 z "},"b":{"ha":756,"x_min":0,"x_max":0,"o":"m 150 -97 l 457 -97 b 768 204 644 -97 768 8 b 676 429 768 304 739 368 b 765 656 731 475 765 546 b 663 907 765 751 735 825 b 381 1039 581 999 496 1039 l 69 1039 l 69 -25 z m 338 338 l 457 338 b 510 281 500 338 510 331 b 381 168 510 207 460 168 l 338 168 z m 338 771 l 457 771 b 507 732 499 771 507 761 b 381 603 507 643 453 603 l 338 603 z m 381 578 b 533 732 468 578 533 625 b 381 868 533 822 476 868 l 239 868 l 239 578 z m 381 143 b 535 281 476 143 535 190 b 381 435 535 383 468 435 l 239 435 l 239 143 z m 210 897 l 381 897 b 560 732 497 897 560 833 b 381 549 560 611 486 549 l 210 549 z m 563 281 b 381 114 563 179 497 114 l 210 114 l 210 461 l 381 461 b 563 281 486 461 563 401 z m 381 519 b 588 732 515 519 588 613 b 381 926 588 849 513 926 l 182 926 l 182 519 z m 182 492 l 182 86 l 381 86 b 589 281 513 86 589 164 b 381 492 589 400 515 492 z m 617 281 b 381 58 617 144 525 58 l 151 58 l 151 954 l 381 954 b 614 732 525 954 614 867 b 461 506 614 614 554 532 b 617 281 554 482 617 399 z m 381 28 b 642 281 540 28 642 122 b 521 506 642 383 608 458 b 639 732 608 554 639 628 b 381 983 639 892 540 983 l 124 983 l 124 28 z m 669 281 b 381 0 669 99 556 0 l 96 0 l 96 1014 l 381 1014 b 668 732 556 1014 668 914 b 564 506 668 614 626 549 b 669 281 626 464 669 399 z "},"c":{"ha":744,"x_min":0,"x_max":0,"o":"m 492 265 b 374 151 492 194 446 151 b 326 189 333 151 326 158 l 326 669 b 450 789 326 744 374 789 b 492 746 483 789 492 781 l 492 692 l 572 619 l 760 619 l 760 669 b 656 913 760 758 726 835 b 374 1057 569 1010 479 1057 b 60 746 200 1057 60 929 l 60 265 b 203 -11 60 158 110 72 b 450 -117 281 -81 363 -117 b 760 189 622 -117 760 10 l 760 236 l 688 317 l 492 317 z m 518 292 l 547 292 l 547 265 b 374 97 547 161 465 97 b 201 265 282 97 201 161 l 201 746 b 374 915 201 851 282 915 b 547 746 465 915 547 851 l 547 717 l 518 717 l 518 746 b 374 888 518 835 463 888 b 229 746 285 888 229 835 l 229 265 b 374 126 229 178 285 126 b 518 265 463 126 518 178 z m 575 292 l 604 292 l 604 265 b 374 39 604 131 492 39 b 143 265 256 39 143 131 l 143 746 b 374 974 143 882 256 974 b 604 746 492 974 604 882 l 604 717 l 575 717 l 575 746 b 374 944 575 864 490 944 b 172 746 257 944 172 864 l 172 265 b 374 68 172 150 257 68 b 575 265 490 68 575 150 z m 633 292 l 663 292 l 663 265 b 374 -19 663 99 533 -19 b 85 265 214 -19 85 99 l 85 746 b 374 1031 85 914 214 1031 b 663 746 533 1031 663 914 l 663 717 l 633 717 l 633 746 b 374 1001 633 901 506 1001 b 113 746 242 1001 113 901 l 113 265 b 374 11 113 113 242 11 b 633 265 506 11 633 113 z "},"d":{"ha":756,"x_min":0,"x_max":0,"o":"m 150 -97 l 463 -97 b 768 217 638 -97 768 36 l 768 644 b 657 900 768 736 731 817 b 386 1039 578 990 492 1039 l 69 1039 l 69 -25 z m 338 771 l 456 771 b 501 728 496 771 501 767 l 501 285 b 379 169 501 213 453 169 l 338 169 z m 239 143 l 379 143 b 526 285 468 143 526 196 l 526 728 b 379 868 526 818 468 868 l 239 868 z m 556 293 b 386 115 556 186 482 115 l 210 115 l 210 897 l 386 897 b 556 721 482 897 556 826 z m 182 86 l 379 86 b 585 293 497 86 585 172 l 585 721 b 379 926 585 840 497 926 l 182 926 z m 614 285 b 386 58 614 161 513 58 l 151 58 l 151 954 l 386 954 b 614 728 513 954 614 851 z m 124 29 l 379 29 b 642 285 529 29 642 143 l 642 728 b 379 983 642 869 529 983 l 124 983 z m 669 293 b 386 0 669 125 549 0 l 96 0 l 96 1014 l 386 1014 b 669 721 549 1014 669 889 z "},"e":{"ha":754,"x_min":0,"x_max":0,"o":"m 503 265 b 383 151 503 194 457 151 b 338 189 343 151 338 158 l 338 335 l 582 335 l 582 522 l 510 603 l 338 603 l 338 669 b 460 789 338 744 383 789 b 503 746 500 789 503 781 l 503 692 l 582 619 l 769 619 l 769 669 b 667 910 769 758 732 833 b 383 1057 582 1007 492 1057 b 69 746 210 1057 69 929 l 69 265 b 211 -8 69 158 119 72 b 460 -117 292 -81 372 -117 b 769 189 632 -117 769 10 l 769 236 l 697 317 l 503 317 z m 528 292 l 556 292 l 556 265 b 383 97 556 161 474 97 b 211 265 293 97 211 161 l 211 461 l 485 461 l 485 432 l 239 432 l 239 265 b 383 126 239 178 294 126 b 528 265 472 126 528 178 z m 239 578 l 485 578 l 485 547 l 211 547 l 211 746 b 383 915 211 851 293 915 b 556 746 474 915 556 851 l 556 717 l 528 717 l 528 746 b 383 888 528 835 472 888 b 239 746 294 888 239 835 z m 183 518 l 485 518 l 485 490 l 183 490 l 183 265 b 383 68 183 150 267 68 b 585 265 501 68 585 150 l 585 292 l 614 292 l 614 265 b 383 39 614 131 503 39 b 153 265 265 39 153 131 l 153 746 b 383 974 153 882 265 974 b 614 746 503 974 614 882 l 614 717 l 585 717 l 585 746 b 383 944 585 864 501 944 b 183 746 267 944 183 864 z m 643 292 l 671 292 l 671 265 b 383 -19 671 99 544 -19 b 96 265 224 -19 96 99 l 96 746 b 383 1031 96 914 224 1031 b 671 746 544 1031 671 914 l 671 717 l 643 717 l 643 746 b 383 1001 643 901 515 1001 b 124 746 251 1001 124 901 l 124 265 b 383 11 124 113 251 11 b 643 265 515 11 643 113 z "},"f":{"ha":722,"x_min":0,"x_max":0,"o":"m 332 669 b 456 789 332 744 379 789 b 497 746 494 789 497 781 l 497 692 l 578 619 l 765 619 l 765 669 b 663 911 765 758 731 835 b 379 1057 575 1010 485 1057 b 65 746 204 1057 65 929 l 65 -25 l 144 -97 l 332 -97 l 332 335 l 578 335 l 578 522 l 504 603 l 332 603 z m 233 0 l 206 0 l 206 461 l 479 461 l 479 432 l 233 432 z m 233 578 l 479 578 l 479 547 l 206 547 l 206 746 b 379 915 206 851 288 915 b 550 746 469 915 550 851 l 550 717 l 522 717 l 522 746 b 379 888 522 835 468 888 b 233 746 290 888 233 835 z m 118 0 l 90 0 l 90 746 b 379 1031 90 914 218 1031 b 668 746 539 1031 668 914 l 668 717 l 638 717 l 638 746 b 379 1001 638 901 510 1001 b 118 746 247 1001 118 901 z m 178 518 l 479 518 l 479 490 l 178 490 l 178 0 l 147 0 l 147 746 b 379 974 147 882 261 974 b 608 746 497 974 608 882 l 608 717 l 579 717 l 579 746 b 379 944 579 864 496 944 b 178 746 263 944 178 864 z "},"g":{"ha":747,"x_min":0,"x_max":0,"o":"m 688 550 l 346 550 l 346 356 l 426 283 l 492 283 l 492 265 b 374 151 492 194 446 151 b 326 189 333 151 326 154 l 326 669 b 450 789 326 744 374 789 b 492 746 489 789 492 781 l 492 692 l 572 619 l 760 619 l 760 669 b 656 913 760 758 729 839 b 374 1057 575 1014 479 1057 b 60 746 200 1057 60 929 l 60 265 b 204 -12 60 158 110 72 b 450 -117 279 -81 363 -117 b 760 189 622 -117 760 10 l 760 471 z m 547 265 b 374 97 547 161 465 97 b 201 265 282 97 201 161 l 201 746 b 374 915 201 851 282 915 b 547 746 465 915 547 851 l 547 717 l 518 717 l 518 746 b 374 888 518 835 463 888 b 229 746 285 888 229 835 l 229 265 b 374 126 229 178 285 126 b 518 265 463 126 518 178 l 518 382 l 371 382 l 371 410 l 547 410 z m 604 265 b 374 39 604 131 492 39 b 143 265 256 39 143 131 l 143 746 b 374 974 143 882 256 974 b 604 746 492 974 604 882 l 604 717 l 575 717 l 575 746 b 374 944 575 864 490 944 b 172 746 257 944 172 864 l 172 265 b 374 68 172 150 257 68 b 575 265 490 68 575 150 l 575 439 l 371 439 l 371 467 l 604 467 z m 663 265 b 374 -19 663 99 533 -19 b 85 265 214 -19 85 99 l 85 746 b 374 1031 85 914 214 1031 b 663 746 533 1031 663 914 l 663 717 l 633 717 l 633 746 b 374 1001 633 901 506 1001 b 113 746 242 1001 113 901 l 113 265 b 374 11 113 113 242 11 b 633 265 506 11 633 113 l 633 496 l 371 496 l 371 525 l 663 525 z "},"h":{"ha":767,"x_min":0,"x_max":0,"o":"m 264 1039 l 69 1039 l 69 -25 l 150 -97 l 338 -97 l 338 335 l 503 335 l 503 -25 l 582 -97 l 769 -97 l 769 958 l 697 1039 l 503 1039 l 503 603 l 338 603 l 338 958 z m 557 0 l 528 0 l 528 432 l 239 432 l 239 0 l 211 0 l 211 461 l 557 461 z m 125 0 l 96 0 l 96 1014 l 125 1014 z m 614 0 l 586 0 l 586 490 l 183 490 l 183 0 l 153 0 l 153 1014 l 183 1014 l 183 518 l 586 518 l 586 1014 l 614 1014 z m 557 547 l 211 547 l 211 1014 l 239 1014 l 239 578 l 528 578 l 528 1014 l 557 1014 z m 671 0 l 643 0 l 643 1014 l 671 1014 z "},"i":{"ha":335,"x_min":0,"x_max":0,"o":"m 264 1039 l 69 1039 l 69 -25 l 150 -97 l 338 -97 l 338 958 z m 239 0 l 211 0 l 211 1014 l 239 1014 z m 183 0 l 153 0 l 153 1014 l 183 1014 z m 125 0 l 96 0 l 96 1014 l 125 1014 z "},"j":{"ha":761,"x_min":0,"x_max":0,"o":"m 264 317 l 69 317 l 69 265 b 206 -7 69 158 117 71 b 460 -117 290 -82 372 -117 b 769 189 632 -117 769 10 l 769 958 l 697 1039 l 503 1039 l 503 265 b 383 151 503 194 457 151 b 338 189 343 151 338 160 l 338 236 z m 239 265 b 383 126 239 178 294 126 b 528 265 472 126 528 178 l 528 1014 l 556 1014 l 556 265 b 383 97 556 161 474 97 b 211 265 293 97 211 161 l 211 292 l 239 292 z m 183 265 b 383 68 183 150 267 68 b 585 265 501 68 585 150 l 585 1014 l 614 1014 l 614 265 b 383 39 614 131 503 39 b 153 265 265 39 153 131 l 153 292 l 183 292 z m 124 265 b 383 11 124 113 251 11 b 643 265 515 11 643 113 l 643 1014 l 671 1014 l 671 265 b 383 -19 671 99 544 -19 b 96 265 224 -19 96 99 l 96 292 l 124 292 z "},"k":{"ha":765,"x_min":0,"x_max":0,"o":"m 338 958 l 264 1039 l 69 1039 l 69 -25 l 150 -97 l 338 -97 l 338 338 l 457 338 b 506 281 504 338 506 322 l 506 -25 l 586 -97 l 774 -97 l 774 204 b 676 429 774 303 740 367 b 767 656 731 475 767 547 l 767 958 l 694 1039 l 500 1039 l 500 732 b 381 603 500 643 453 603 l 338 603 z m 96 0 l 96 1014 l 124 1014 l 124 0 z m 668 732 b 564 506 668 614 626 549 b 675 281 626 464 675 399 l 675 0 l 646 0 l 646 281 b 521 506 646 383 608 458 b 639 732 608 554 639 628 l 639 1014 l 668 1014 z m 210 0 l 210 461 l 381 461 b 560 281 486 461 560 401 l 560 0 l 532 0 l 532 281 b 381 435 532 383 468 435 l 239 435 l 239 0 z m 553 732 b 381 549 553 611 486 549 l 210 549 l 210 1014 l 239 1014 l 239 578 l 381 578 b 525 732 468 578 525 625 l 525 1014 l 553 1014 z m 588 0 l 588 281 b 381 492 588 400 515 492 l 182 492 l 182 0 l 151 0 l 151 1014 l 182 1014 l 182 519 l 381 519 b 582 732 515 519 582 613 l 582 1014 l 611 1014 l 611 732 b 461 506 611 614 554 532 b 618 281 554 482 618 399 l 618 0 z "},"l":{"ha":576,"x_min":0,"x_max":0,"o":"m 540 169 l 338 169 l 338 958 l 264 1039 l 69 1039 l 69 -25 l 78 -25 l 150 -97 l 613 -97 l 613 89 z m 515 0 l 96 0 l 96 1014 l 125 1014 l 125 28 l 515 28 z m 515 58 l 153 58 l 153 1014 l 182 1014 l 182 86 l 515 86 z m 515 115 l 211 115 l 211 1014 l 239 1014 l 239 143 l 515 143 z "},"m":{"ha":1042,"x_min":0,"x_max":0,"o":"m 425 -25 l 504 -97 l 689 -97 l 689 701 b 776 789 689 761 728 789 l 782 789 l 782 -25 l 863 -97 l 1049 -97 l 1049 701 b 956 933 1049 786 1022 857 b 700 1057 882 1017 810 1057 b 519 999 621 1057 563 1039 b 342 1057 475 1035 417 1057 b 65 778 153 1057 65 940 l 65 -25 l 144 -97 l 332 -97 l 332 701 b 418 789 332 761 368 789 l 425 789 z m 450 778 b 342 888 450 851 403 888 b 233 778 279 888 233 851 l 233 0 l 206 0 l 206 778 b 342 915 206 864 263 915 b 478 778 422 915 478 864 l 478 0 l 450 0 z m 807 778 b 700 888 807 851 761 888 b 592 778 638 888 592 851 l 592 0 l 563 0 l 563 778 b 700 915 563 864 621 915 b 835 778 781 915 835 864 l 835 0 l 807 0 z m 924 778 b 700 1001 924 907 849 1001 b 521 921 625 1001 568 976 b 342 1001 474 976 418 1001 b 118 778 192 1001 118 907 l 118 0 l 90 0 l 90 778 b 342 1031 90 925 171 1031 b 519 964 421 1031 479 1004 b 700 1031 558 1004 622 1031 b 951 778 871 1031 951 925 l 951 0 l 924 0 z m 507 778 b 342 944 507 879 446 944 b 178 778 236 944 178 879 l 178 0 l 147 0 l 147 778 b 342 974 147 893 217 974 b 519 849 432 974 507 925 b 700 974 543 933 606 974 b 893 778 826 974 893 893 l 893 0 l 864 0 l 864 778 b 700 944 864 879 804 944 b 535 778 594 944 535 879 l 535 0 l 507 0 z "},"n":{"ha":757,"x_min":0,"x_max":0,"o":"m 144 -97 l 332 -97 l 332 669 b 456 789 332 744 379 789 b 497 746 494 789 497 781 l 497 -25 l 578 -97 l 765 -97 l 765 669 b 658 914 765 758 729 833 b 379 1057 574 1010 485 1057 b 65 746 204 1057 65 929 l 65 -25 z m 233 0 l 206 0 l 206 746 b 379 915 206 851 288 915 b 550 746 469 915 550 851 l 550 0 l 522 0 l 522 746 b 379 888 522 835 468 888 b 233 746 290 888 233 835 z m 178 0 l 147 0 l 147 746 b 379 974 147 882 261 974 b 608 746 497 974 608 882 l 608 0 l 579 0 l 579 746 b 379 944 579 864 496 944 b 178 746 263 944 178 864 z m 118 0 l 90 0 l 90 746 b 379 1031 90 914 218 1031 b 668 746 539 1031 668 914 l 668 0 l 638 0 l 638 746 b 379 1001 638 901 510 1001 b 118 746 247 1001 118 901 z "},"o":{"ha":747,"x_min":0,"x_max":0,"o":"m 181 11 b 450 -117 285 -78 363 -117 b 760 189 622 -117 760 10 l 760 669 b 656 917 760 758 722 833 b 374 1057 578 1014 479 1057 b 60 746 200 1057 60 929 l 60 265 b 181 11 60 158 110 72 z m 492 265 b 374 151 492 194 446 151 b 326 189 333 151 326 160 l 326 669 b 450 789 326 744 374 789 b 492 746 489 789 492 781 z m 518 746 b 374 888 518 835 463 888 b 229 746 285 888 229 835 l 229 265 b 374 126 229 178 285 126 b 518 265 463 126 518 178 z m 547 265 b 374 97 547 161 465 97 b 201 265 282 97 201 161 l 201 746 b 374 915 201 851 282 915 b 547 746 465 915 547 851 z m 575 746 b 374 944 575 864 490 944 b 172 746 257 944 172 864 l 172 265 b 374 68 172 150 257 68 b 575 265 490 68 575 150 z m 604 265 b 374 39 604 131 492 39 b 143 265 256 39 143 131 l 143 746 b 374 974 143 882 256 974 b 604 746 492 974 604 882 z m 633 746 b 374 1001 633 901 506 1001 b 113 746 242 1001 113 901 l 113 265 b 374 11 113 113 242 11 b 633 265 506 11 633 113 z m 663 265 b 374 -19 663 99 533 -19 b 85 265 214 -19 85 99 l 85 746 b 374 1031 85 914 214 1031 b 663 746 533 1031 663 914 z "},"p":{"ha":743,"x_min":0,"x_max":0,"o":"m 150 -97 l 338 -97 l 338 338 l 457 338 b 769 649 619 338 769 476 b 661 892 769 732 728 808 b 381 1039 586 985 486 1039 l 69 1039 l 69 -25 z m 338 771 l 457 771 b 503 725 499 771 503 764 b 381 607 503 653 454 607 l 338 607 z m 182 0 l 153 0 l 153 954 l 381 954 b 614 725 513 954 614 853 b 381 494 614 590 503 494 l 182 494 z m 381 522 b 586 725 494 522 586 613 b 381 926 586 833 497 926 l 182 926 l 182 522 z m 213 549 l 213 897 l 381 897 b 557 725 482 897 557 822 b 381 549 557 615 482 549 z m 239 0 l 211 0 l 211 464 l 381 464 b 643 725 513 464 643 583 b 381 983 643 864 526 983 l 125 983 l 125 0 l 96 0 l 96 1014 l 381 1014 b 671 725 542 1014 671 882 b 381 436 671 564 532 436 l 239 436 z m 381 581 b 528 725 469 581 528 636 b 381 868 528 814 469 868 l 239 868 l 239 581 z "},"q":{"ha":763,"x_min":0,"x_max":0,"o":"m 200 8 b 450 -97 281 -64 363 -97 l 775 -97 l 775 89 l 747 117 b 760 208 756 144 760 174 l 760 669 b 653 914 760 758 725 833 b 374 1057 568 1010 479 1057 b 60 746 200 1057 60 929 l 60 285 b 200 8 60 178 106 93 z m 492 285 b 374 169 492 213 446 169 b 326 208 333 169 326 172 l 326 669 b 450 789 326 744 374 789 b 492 746 489 789 492 781 z m 678 0 l 374 0 b 85 285 214 0 85 117 l 85 746 b 374 1031 85 914 214 1031 b 663 746 533 1031 663 914 l 663 285 b 626 143 663 232 649 185 l 678 143 l 678 115 l 569 115 b 633 285 608 158 633 218 l 633 746 b 374 1001 633 901 506 1001 b 113 746 242 1001 113 901 l 113 285 b 374 29 113 131 242 29 l 678 29 z m 518 746 b 374 888 518 835 463 888 b 229 746 285 888 229 835 l 229 285 b 374 143 229 196 285 143 b 518 285 463 143 518 196 z m 547 285 b 374 115 547 181 465 115 b 201 285 282 115 201 181 l 201 746 b 374 915 201 851 282 915 b 547 746 465 915 547 851 z m 575 746 b 374 944 575 864 490 944 b 172 746 257 944 172 864 l 172 285 b 374 86 172 169 257 86 b 575 285 490 86 575 169 z m 678 58 l 374 58 b 143 285 256 58 143 149 l 143 746 b 374 974 143 882 256 974 b 604 746 492 974 604 882 l 604 285 b 486 86 604 193 553 124 l 678 86 z "},"r":{"ha":765,"x_min":0,"x_max":0,"o":"m 586 -97 l 774 -97 l 774 204 b 676 429 774 288 746 361 b 765 656 731 475 765 544 b 668 900 765 751 735 824 b 381 1039 581 997 496 1039 l 69 1039 l 69 -25 l 150 -97 l 338 -97 l 338 338 l 457 338 b 506 281 497 338 506 328 l 506 -25 z m 338 771 l 457 771 b 507 732 499 771 507 764 b 381 603 507 643 453 603 l 338 603 z m 381 461 b 560 281 493 461 560 394 l 560 0 l 532 0 l 532 281 b 381 435 532 372 474 435 l 239 435 l 239 0 l 210 0 l 210 461 z m 564 506 b 675 281 638 456 675 374 l 675 0 l 646 0 l 646 281 b 521 506 646 376 607 454 b 639 732 608 554 639 628 b 381 983 639 892 540 983 l 124 983 l 124 0 l 96 0 l 96 1014 l 381 1014 b 668 732 556 1014 668 914 b 564 506 668 614 626 549 z m 381 578 b 533 732 468 578 533 625 b 381 868 533 822 476 868 l 239 868 l 239 578 z m 210 897 l 381 897 b 560 732 497 897 560 833 b 381 549 560 611 486 549 l 210 549 z m 381 519 b 588 732 515 519 588 613 b 381 926 588 849 513 926 l 182 926 l 182 519 z m 182 492 l 182 0 l 151 0 l 151 954 l 381 954 b 614 732 525 954 614 867 b 461 506 614 614 554 532 b 618 281 563 478 618 385 l 618 0 l 588 0 l 588 281 b 381 492 588 399 507 492 z "},"s":{"ha":756,"x_min":0,"x_max":0,"o":"m 336 386 b 499 342 393 367 449 363 b 508 278 504 324 508 303 b 378 149 508 206 453 149 b 325 215 335 149 325 158 l 253 294 l 56 294 b 211 -7 60 176 113 82 b 454 -117 293 -82 371 -117 b 771 203 633 -117 771 29 b 657 465 771 311 728 394 b 403 615 572 550 517 588 b 328 635 382 621 360 625 b 325 667 325 644 325 654 b 458 789 325 742 372 789 b 493 714 488 789 493 763 l 574 642 l 763 642 b 644 918 763 743 722 831 b 382 1057 561 1014 475 1057 b 65 743 203 1057 65 928 b 193 481 65 608 114 544 b 336 386 240 443 281 408 z m 672 278 b 378 -19 672 117 544 -19 b 82 269 222 -19 89 103 l 111 269 b 378 8 113 122 236 8 b 644 278 531 8 644 132 b 539 503 644 378 608 450 b 319 582 469 558 394 557 b 200 743 240 610 200 663 b 382 919 200 838 268 919 b 549 740 481 919 543 842 l 518 740 b 382 886 518 829 467 886 b 228 743 282 886 228 832 b 331 608 228 671 258 631 b 557 525 406 583 486 579 b 672 278 636 465 672 392 z m 635 740 b 382 1003 635 883 524 1003 b 118 743 232 1003 118 893 b 279 507 118 619 179 546 b 492 440 349 482 428 488 b 563 278 542 404 563 351 b 378 93 563 176 488 93 b 197 269 289 93 199 172 l 228 269 b 378 124 228 181 283 124 b 533 278 468 124 533 190 b 472 419 533 344 518 386 b 267 483 413 461 318 461 b 90 743 157 528 90 597 b 382 1031 90 913 218 1031 b 665 740 536 1031 665 908 z m 579 740 b 381 944 579 857 492 944 b 172 743 260 944 172 864 b 306 561 172 650 222 590 b 524 485 382 533 457 535 b 621 278 588 436 621 369 b 378 35 621 147 510 35 b 140 269 254 35 146 142 l 169 269 b 378 64 169 156 261 64 b 589 278 492 64 589 163 b 506 461 589 358 561 418 b 292 533 443 511 365 503 b 143 743 203 568 143 636 b 382 978 143 879 246 978 b 608 740 507 978 604 867 z "},"t":{"ha":692,"x_min":0,"x_max":0,"o":"m 111 771 l 247 771 l 247 -25 l 328 -97 l 517 -97 l 517 771 l 733 771 l 733 958 l 661 1039 l 31 1039 l 31 843 z m 636 983 l 56 983 l 56 1014 l 636 1014 z m 303 0 l 274 0 l 274 868 l 56 868 l 56 897 l 303 897 z m 418 0 l 388 0 l 388 897 l 636 897 l 636 868 l 418 868 z m 360 0 l 331 0 l 331 926 l 56 926 l 56 954 l 636 954 l 636 926 l 360 926 z "},"u":{"ha":757,"x_min":0,"x_max":0,"o":"m 497 265 b 379 151 497 194 451 151 b 332 189 338 151 332 154 l 332 958 l 260 1039 l 65 1039 l 65 265 b 207 -10 65 158 114 71 b 456 -117 286 -81 368 -117 b 765 189 626 -117 765 10 l 765 958 l 693 1039 l 497 1039 z m 522 1014 l 550 1014 l 550 265 b 379 97 550 161 469 97 b 206 265 288 97 206 161 l 206 1014 l 233 1014 l 233 265 b 379 126 233 178 290 126 b 522 265 468 126 522 178 z m 579 1014 l 608 1014 l 608 265 b 379 39 608 131 497 39 b 147 265 261 39 147 131 l 147 1014 l 178 1014 l 178 265 b 379 68 178 150 263 68 b 579 265 496 68 579 150 z m 638 1014 l 668 1014 l 668 265 b 379 -19 668 99 539 -19 b 90 265 218 -19 90 99 l 90 1014 l 118 1014 l 118 265 b 379 11 118 113 247 11 b 638 265 510 11 638 113 z "},"v":{"ha":679,"x_min":0,"x_max":0,"o":"m 221 1039 l 24 1039 l 247 -25 l 326 -97 l 504 -97 l 728 958 l 656 1039 l 458 1039 l 368 597 l 293 958 z m 297 0 l 268 0 l 56 1014 l 85 1014 z m 411 0 l 383 0 l 594 1014 l 624 1014 z m 340 203 l 172 1014 l 200 1014 l 340 335 l 481 1014 l 510 1014 z m 326 0 l 113 1014 l 143 1014 l 340 67 l 538 1014 l 568 1014 l 353 0 z "},"w":{"ha":1042,"x_min":0,"x_max":0,"o":"m 617 1039 l 425 1039 l 425 235 b 342 151 425 178 388 151 l 332 151 l 332 958 l 260 1039 l 65 1039 l 65 235 b 188 -24 65 133 97 54 b 418 -117 263 -87 329 -117 b 597 -57 499 -117 557 -97 b 776 -117 640 -93 701 -117 b 1049 158 963 -117 1049 -1 l 1049 958 l 976 1039 l 782 1039 l 782 235 b 700 151 782 178 746 151 l 689 151 l 689 958 z m 592 235 b 700 126 592 161 638 126 b 807 235 761 126 807 161 l 807 1014 l 835 1014 l 835 235 b 700 97 835 149 781 97 b 563 235 621 97 563 149 l 563 1014 l 592 1014 z m 233 235 b 342 126 233 161 279 126 b 450 235 403 126 450 161 l 450 1014 l 478 1014 l 478 235 b 342 97 478 149 422 97 b 206 235 263 97 206 149 l 206 1014 l 233 1014 z m 118 235 b 342 11 118 106 192 11 b 519 93 417 11 474 38 b 700 11 567 38 624 11 b 924 235 849 11 924 106 l 924 1014 l 951 1014 l 951 235 b 700 -19 951 88 871 -19 b 521 50 622 -19 563 8 b 342 -19 483 8 421 -19 b 90 235 171 -19 90 88 l 90 1014 l 118 1014 z m 535 235 b 700 68 535 133 594 68 b 864 235 804 68 864 133 l 864 1014 l 893 1014 l 893 235 b 700 39 893 121 826 39 b 521 165 608 39 535 88 b 342 39 500 81 436 39 b 147 235 217 39 147 121 l 147 1014 l 178 1014 l 178 235 b 342 68 178 133 236 68 b 507 235 446 68 507 133 l 507 1014 l 535 1014 z "},"x":{"ha":618,"x_min":0,"x_max":0,"o":"m 217 1039 l 21 1039 l 211 506 l 22 -25 l 103 -97 l 290 -97 l 358 97 l 404 -25 l 483 -97 l 668 -97 l 479 429 l 668 958 l 597 1039 l 404 1039 l 331 839 l 290 958 z m 449 0 l 422 0 l 308 308 l 199 0 l 171 0 l 310 383 z m 85 0 l 57 0 l 238 506 l 56 1014 l 85 1014 l 267 506 z m 507 0 l 476 0 l 308 467 l 143 0 l 113 0 l 293 511 l 113 1014 l 143 1014 l 307 550 l 476 1014 l 507 1014 l 322 506 z m 563 0 l 533 0 l 353 506 l 533 1014 l 563 1014 l 381 506 z m 308 626 l 171 1014 l 199 1014 l 308 703 l 422 1014 l 449 1014 z "},"y":{"ha":743,"x_min":0,"x_max":0,"o":"m 324 613 l 324 958 l 251 1039 l 57 1039 l 57 682 b 199 414 57 581 106 496 b 279 351 239 379 260 363 l 279 -25 l 360 -97 l 547 -97 l 547 317 b 758 606 667 357 758 469 l 758 958 l 685 1039 l 489 1039 l 489 682 b 368 567 489 615 450 567 b 324 613 332 567 324 575 z m 449 0 l 419 0 l 419 432 b 631 678 533 453 631 560 l 631 1014 l 660 1014 l 660 682 b 449 410 660 549 568 443 z m 544 689 b 367 513 544 592 468 513 b 197 689 271 513 197 592 l 197 1014 l 226 1014 l 226 689 b 368 542 226 600 279 542 b 515 682 468 542 515 600 l 515 1014 l 544 1014 z m 333 0 l 306 0 l 306 407 b 82 682 172 440 82 549 l 82 1014 l 111 1014 l 111 689 b 333 428 111 560 208 447 z m 390 0 l 363 0 l 363 457 b 140 682 243 460 140 572 l 140 1014 l 169 1014 l 169 689 b 378 485 169 581 264 485 b 572 689 492 485 572 581 l 572 1014 l 601 1014 l 601 689 b 390 457 601 572 508 465 z "},"z":{"ha":678,"x_min":0,"x_max":0,"o":"m 599 168 l 413 168 l 699 958 l 628 1039 l 94 1039 l 94 843 l 174 771 l 338 771 l 50 -25 l 131 -97 l 671 -97 l 671 88 z m 574 0 l 85 0 l 399 868 l 119 868 l 119 897 l 439 897 l 125 26 l 574 26 z m 574 57 l 163 57 l 475 926 l 119 926 l 119 954 l 515 954 l 203 85 l 574 85 z m 574 114 l 239 114 l 553 983 l 119 983 l 119 1014 l 593 1014 l 278 143 l 574 143 z "},"{":{"ha":501,"x_min":0,"x_max":0,"o":"m 165 833 l 165 728 b 53 597 165 650 124 608 l 53 415 l 132 343 b 165 267 161 317 165 301 l 165 181 b 308 -90 165 79 213 -4 b 540 -203 383 -158 458 -193 l 540 -15 l 468 65 b 433 104 439 71 433 82 l 433 210 b 342 429 433 307 406 376 b 433 651 396 474 433 542 l 433 757 b 540 876 433 819 474 863 l 540 1063 l 468 1143 b 165 833 297 1125 165 1021 z m 190 833 b 443 1115 190 986 300 1100 l 443 1085 b 219 833 324 1068 219 972 l 219 728 b 78 549 219 619 167 561 l 78 575 b 190 728 149 586 190 635 z m 190 286 b 78 439 190 379 149 426 l 78 464 b 219 286 167 453 219 394 l 219 181 b 443 -71 219 40 324 -56 l 443 -101 b 190 181 300 -86 190 25 z m 188 506 b 307 728 272 554 307 624 l 307 833 b 443 999 307 924 368 983 l 443 969 b 336 833 375 956 336 908 l 336 728 b 229 506 336 608 292 549 b 336 286 292 464 336 404 l 336 181 b 443 43 336 104 375 57 l 443 15 b 307 181 368 29 307 90 l 307 286 b 188 506 307 389 272 458 z m 249 286 b 78 493 249 396 192 478 l 78 519 b 249 728 192 535 249 618 l 249 833 b 443 1057 249 953 339 1040 l 443 1028 b 278 833 346 1014 278 938 l 278 728 b 126 506 278 608 219 532 b 278 286 219 482 278 404 l 278 181 b 443 -15 278 76 346 0 l 443 -43 b 249 181 339 -26 249 60 z "},"|":{"ha":446,"x_min":0,"x_max":0,"o":"m 321 1140 l 125 1140 l 125 -128 l 204 -200 l 393 -200 l 393 1060 z m 294 -101 l 267 -101 l 267 1115 l 294 1115 z m 238 -101 l 208 -101 l 208 1115 l 238 1115 z m 181 -101 l 150 -101 l 150 1115 l 181 1115 z "},"}":{"ha":501,"x_min":0,"x_max":0,"o":"m 119 869 b 140 821 135 854 140 846 l 140 728 b 228 506 140 622 179 550 b 140 286 172 461 140 400 l 140 181 b 33 65 140 118 100 79 l 33 -129 l 113 -203 b 407 104 279 -185 407 -62 l 407 210 b 521 343 407 289 449 331 l 521 518 l 449 597 b 407 651 413 601 407 610 l 407 757 b 301 994 407 840 372 917 b 33 1143 217 1088 132 1133 l 33 949 z m 308 728 b 424 575 308 635 351 586 l 424 549 b 281 728 335 561 281 619 l 281 833 b 58 1085 281 972 176 1068 l 58 1115 b 308 833 201 1100 308 986 z m 308 181 b 58 -101 308 25 201 -86 l 58 -71 b 281 181 176 -56 281 40 l 281 286 b 424 464 281 394 335 453 l 424 439 b 308 286 351 426 308 379 z m 314 506 b 193 286 228 458 193 389 l 193 181 b 58 15 193 90 133 29 l 58 43 b 165 181 126 57 165 104 l 165 286 b 271 506 165 404 210 464 b 165 728 210 549 165 608 l 165 833 b 58 969 165 908 126 956 l 58 999 b 193 833 133 983 193 924 l 193 728 b 314 506 193 624 228 554 z m 251 181 b 58 -43 251 60 161 -26 l 58 -15 b 222 181 156 0 222 76 l 222 286 b 375 506 222 404 281 482 b 222 728 281 532 222 608 l 222 833 b 58 1028 222 938 156 1014 l 58 1057 b 251 833 161 1040 251 953 l 251 728 b 424 519 251 618 308 535 l 424 493 b 251 286 308 478 251 396 z "},"~":{"ha":654,"x_min":0,"x_max":0,"o":"m 443 586 b 349 615 414 586 383 599 b 215 651 308 635 267 651 b 69 608 164 651 115 638 l 69 340 l 150 276 b 288 393 206 354 250 393 b 383 364 317 393 351 381 b 517 326 422 343 467 326 b 657 368 565 326 614 342 l 657 624 l 578 703 b 443 586 521 624 478 586 z m 438 479 b 221 544 357 479 297 544 b 96 493 172 544 128 524 l 96 533 b 218 572 129 560 171 572 b 433 506 300 572 360 506 b 560 558 482 506 528 528 l 560 518 b 438 479 525 492 485 479 z m 446 454 b 560 489 488 454 526 468 l 560 457 b 440 425 526 436 486 425 b 211 490 351 425 286 490 b 96 421 167 490 128 468 l 96 458 b 210 518 126 496 164 518 b 446 454 294 518 356 454 z m 444 533 b 208 597 360 533 297 597 b 96 563 167 597 128 582 l 96 594 b 215 625 128 615 169 625 b 443 561 304 625 368 561 b 560 631 488 561 526 582 l 560 593 b 444 533 529 556 490 533 z "},"":{"ha":333,"x_min":0,"x_max":0,"o":""},"":{"ha":386,"x_min":0,"x_max":0,"o":"m 172 -101 l 368 -101 l 368 743 l 324 781 b 368 864 351 799 368 829 b 322 950 368 903 344 926 l 263 1008 b 194 1035 246 1025 221 1035 b 97 940 143 1035 97 994 b 126 875 97 915 110 893 l 183 817 l 99 817 l 99 -22 z m 211 940 b 194 922 211 931 203 922 b 176 940 185 922 176 931 b 194 957 176 951 185 957 b 211 940 203 957 211 951 z m 238 940 b 194 983 238 965 218 983 b 150 940 169 983 150 965 b 194 896 150 915 169 896 b 238 940 218 896 238 915 z m 267 940 b 194 867 267 900 235 867 b 119 940 154 867 119 900 b 194 1014 119 982 154 1014 b 267 940 235 1014 267 982 z m 121 794 l 150 794 l 150 0 l 121 0 z m 179 794 l 207 794 l 207 0 l 179 0 z m 238 794 l 265 794 l 265 0 l 238 0 z "},"":{"ha":754,"x_min":0,"x_max":0,"o":"m 329 338 l 329 522 b 453 642 329 597 376 642 b 494 599 492 642 494 633 l 494 544 l 575 472 l 763 472 l 763 522 b 664 758 763 610 729 688 b 549 861 610 815 581 840 l 549 958 l 475 1031 l 281 1039 l 281 896 b 63 599 154 858 63 747 l 63 414 b 201 143 63 308 113 221 b 281 79 243 106 263 90 l 281 -25 l 361 -97 l 549 -97 l 549 44 b 763 338 671 82 763 190 l 763 383 l 690 464 l 494 464 l 494 414 b 376 299 494 342 449 299 b 329 338 336 299 329 301 z m 422 0 l 422 163 b 636 414 536 183 636 278 l 636 439 l 665 439 l 665 414 b 450 139 665 272 574 168 l 450 0 z m 636 599 b 422 849 636 735 536 829 l 422 1014 l 450 1014 l 450 874 b 665 599 574 844 665 740 l 665 569 l 636 569 z m 519 439 l 549 439 l 549 414 b 376 246 549 308 468 246 b 203 414 285 246 203 308 l 203 599 b 376 768 203 703 285 768 b 549 599 468 768 549 703 l 549 569 l 519 569 l 519 599 b 376 740 519 688 465 740 b 232 599 288 740 232 688 l 232 414 b 376 274 232 325 288 274 b 519 414 465 274 519 325 z m 115 414 b 336 161 115 276 218 181 l 336 0 l 307 0 l 307 138 b 88 414 179 165 88 271 l 88 599 b 307 876 88 742 179 847 l 307 1014 l 336 1014 l 336 850 b 115 599 218 832 115 738 z m 364 0 l 364 188 b 146 414 250 193 146 283 l 146 599 b 364 825 146 729 250 819 l 364 1014 l 393 1014 l 393 824 b 607 599 504 818 607 728 l 607 569 l 578 569 l 578 599 b 376 797 578 714 493 797 b 175 599 260 797 175 714 l 175 414 b 376 217 175 299 260 217 b 578 414 493 217 578 299 l 578 439 l 607 439 l 607 414 b 393 188 607 285 504 196 l 393 0 z "},"":{"ha":793,"x_min":0,"x_max":0,"o":"m 36 386 l 115 314 l 119 314 l 119 169 l 35 169 l 35 -25 l 114 -97 l 793 -97 l 793 89 l 721 169 l 386 169 l 386 314 l 635 314 l 635 501 l 563 581 l 386 581 l 386 669 b 508 789 386 744 433 789 b 551 746 549 789 551 782 l 551 692 l 632 619 l 818 619 l 818 669 b 714 913 818 758 785 835 b 432 1057 628 1010 538 1057 b 119 746 258 1057 119 929 l 119 581 l 36 581 z m 61 442 l 174 442 l 174 115 l 60 115 l 60 143 l 144 143 l 144 413 l 61 413 z m 60 29 l 696 29 l 696 0 l 60 0 z m 289 556 l 536 556 l 536 528 l 261 528 l 261 746 b 432 915 261 851 342 915 b 606 746 524 915 606 851 l 606 717 l 578 717 l 578 746 b 432 888 578 835 521 888 b 289 746 344 888 289 835 z m 261 115 l 261 442 l 536 442 l 536 413 l 289 413 l 289 143 l 696 143 l 696 115 z m 174 528 l 61 528 l 61 556 l 144 556 l 144 746 b 432 1031 144 914 272 1031 b 721 746 593 1031 721 914 l 721 717 l 693 717 l 693 746 b 432 1001 693 901 564 1001 b 174 746 301 1001 174 901 z m 432 974 b 664 746 550 974 664 882 l 664 717 l 633 717 l 633 746 b 432 944 633 864 549 944 b 232 746 315 944 232 864 l 232 500 l 536 500 l 536 469 l 232 469 l 232 86 l 696 86 l 696 58 l 60 58 l 60 86 l 203 86 l 203 469 l 61 469 l 61 500 l 203 500 l 203 746 b 432 974 203 882 314 974 z "},"":{"ha":767,"x_min":0,"x_max":0,"o":"m 74 75 l 154 3 l 292 3 l 292 -25 l 371 -97 l 560 -97 l 560 3 l 760 3 l 760 190 l 726 225 l 760 225 l 760 413 l 688 492 l 654 492 b 769 728 724 547 769 632 l 769 958 l 697 1039 l 503 1039 l 503 804 b 382 690 503 739 463 690 b 338 736 338 690 338 699 l 338 958 l 264 1039 l 69 1039 l 69 804 b 208 538 69 710 114 625 b 264 492 243 506 254 500 l 74 492 l 74 297 l 108 271 l 74 271 z m 431 0 l 431 129 l 663 129 l 663 100 l 461 100 l 461 0 z m 99 129 l 346 129 l 346 0 l 317 0 l 317 100 l 99 100 z m 663 322 l 461 322 l 461 246 l 663 246 l 663 217 l 431 217 l 431 353 l 663 353 z m 99 246 l 317 246 l 317 322 l 99 322 l 99 353 l 346 353 l 346 217 l 99 217 z m 556 813 b 379 636 556 714 481 636 b 210 813 283 636 210 714 l 210 1014 l 239 1014 l 239 813 b 382 665 239 724 293 665 b 528 804 479 665 528 724 l 528 1014 l 556 1014 z m 461 467 l 663 467 l 663 439 l 431 439 l 431 556 b 643 801 546 576 643 683 l 643 1014 l 671 1014 l 671 804 b 461 533 671 672 581 565 z m 99 467 l 317 467 l 317 531 b 96 804 186 563 96 672 l 96 1014 l 124 1014 l 124 813 b 346 550 124 683 221 571 l 346 439 l 99 439 z m 403 411 l 663 411 l 663 382 l 403 382 l 403 188 l 663 188 l 663 158 l 403 158 l 403 0 l 375 0 l 375 158 l 99 158 l 99 188 l 375 188 l 375 382 l 99 382 l 99 411 l 375 411 l 375 579 b 151 804 256 582 151 696 l 151 1014 l 182 1014 l 182 813 b 389 608 182 703 276 608 b 585 813 504 608 585 703 l 585 1014 l 614 1014 l 614 813 b 403 579 614 696 521 589 z "},"":{"ha":446,"x_min":0,"x_max":0,"o":"m 204 -200 l 393 -200 l 393 293 l 321 374 l 125 374 l 125 -128 z m 321 1140 l 125 1140 l 125 646 l 204 574 l 393 574 l 393 1060 z m 294 671 l 267 671 l 267 1115 l 294 1115 z m 267 -101 l 267 349 l 294 349 l 294 -101 z m 238 671 l 208 671 l 208 1115 l 238 1115 z m 181 671 l 150 671 l 150 1115 l 181 1115 z m 150 -101 l 150 349 l 181 349 l 181 -101 z m 208 -101 l 208 349 l 238 349 l 238 -101 z "},"":{"ha":908,"x_min":0,"x_max":0,"o":"m 54 519 b 165 276 54 401 106 336 b 401 143 233 206 293 168 b 488 118 428 138 460 129 b 499 57 493 100 499 82 b 368 -74 499 -15 443 -74 b 317 -7 325 -74 317 -60 l 244 74 l 46 74 b 204 -232 50 -43 103 -140 b 443 -337 283 -303 361 -337 b 757 -79 603 -337 731 -226 b 924 203 856 -25 924 82 b 810 468 924 303 896 376 b 481 635 682 604 610 599 b 479 667 479 640 479 653 b 610 789 479 742 525 789 b 646 714 636 789 646 774 l 726 642 l 915 642 b 801 914 915 743 876 832 b 533 1057 713 1013 628 1057 b 221 801 381 1057 251 946 b 54 519 122 751 54 647 z m 564 322 b 319 413 481 383 403 385 b 317 443 317 422 317 432 b 328 503 317 468 321 486 b 489 386 365 458 424 413 b 650 339 543 367 594 361 b 661 278 657 322 661 303 b 653 232 661 263 657 246 b 564 322 610 279 589 303 z m 368 -214 b 632 25 508 -214 618 -106 b 797 278 735 81 797 160 b 692 503 797 378 760 450 b 472 582 624 558 549 557 b 353 743 393 610 353 663 b 533 919 353 838 422 919 b 703 740 633 919 696 842 l 671 740 b 533 886 671 829 619 886 b 382 743 435 886 382 832 b 483 608 382 671 411 629 b 710 525 558 583 638 579 b 826 278 789 465 826 392 b 660 11 826 163 758 60 b 368 -240 638 -128 518 -240 b 72 49 213 -240 79 -118 l 101 49 b 368 -214 104 -100 226 -214 z m 81 519 b 246 783 81 643 146 742 b 533 1031 264 932 383 1031 b 818 740 689 1031 818 908 l 789 740 b 533 1003 789 883 676 1003 b 271 765 392 1003 282 904 b 108 519 156 718 108 622 b 269 286 108 397 169 324 b 482 218 339 261 417 265 b 553 57 532 182 553 129 b 368 -129 553 -46 478 -129 b 188 49 278 -129 188 -50 l 218 49 b 368 -99 218 -42 274 -99 b 524 57 458 -99 524 -31 b 258 261 524 244 346 225 b 81 519 146 306 81 376 z m 549 303 b 646 172 594 265 628 224 b 686 278 671 200 686 236 b 421 483 686 465 507 447 b 261 626 343 514 288 556 b 218 519 233 603 218 567 b 321 385 218 450 247 410 b 549 303 396 363 475 357 z m 628 119 b 529 282 617 188 582 240 b 308 361 460 338 385 336 b 189 519 231 388 189 440 b 276 674 189 583 221 643 b 432 507 306 582 347 539 b 644 440 503 483 579 488 b 715 278 694 404 715 351 b 689 178 715 240 707 207 b 628 119 681 163 668 149 z m 443 533 b 297 713 364 564 307 622 b 161 519 217 685 161 614 b 294 339 161 428 213 368 b 514 263 371 311 446 313 b 608 81 572 218 604 158 b 743 278 685 113 743 189 b 658 461 743 358 714 418 b 443 533 594 511 518 503 z m 133 519 b 296 743 133 631 199 714 b 533 978 297 881 399 978 b 760 740 660 978 757 867 l 732 740 b 533 944 732 857 644 944 b 324 743 413 944 324 864 b 458 561 324 650 375 590 b 676 485 533 533 608 535 b 774 278 742 436 774 369 b 610 49 774 174 704 82 b 368 -187 606 -79 499 -187 b 129 49 244 -187 136 -81 l 158 49 b 368 -158 158 -67 250 -158 b 579 57 482 -158 579 -60 b 496 240 579 138 550 197 b 281 311 432 290 354 282 b 133 519 192 346 133 414 z "},"":{"ha":644,"x_min":0,"x_max":0,"o":"m 69 1157 b 114 1069 69 1118 89 1090 l 176 1014 b 244 986 193 999 218 986 b 339 1081 296 986 339 1028 b 311 1149 339 1106 329 1131 l 256 1207 b 168 1256 232 1232 204 1256 b 69 1157 113 1256 69 1211 z m 378 1157 b 422 1069 378 1118 397 1090 l 485 1014 b 551 986 501 999 525 986 b 647 1081 604 986 647 1028 b 619 1149 647 1106 638 1131 l 563 1207 b 475 1256 539 1232 513 1256 b 378 1157 419 1256 378 1211 z m 150 1157 b 168 1176 150 1167 158 1176 b 186 1157 178 1176 186 1167 b 168 1140 186 1147 178 1140 b 150 1157 158 1140 150 1147 z m 125 1157 b 168 1114 125 1133 143 1114 b 213 1157 192 1114 213 1133 b 168 1201 213 1182 192 1201 b 125 1157 143 1201 125 1182 z m 96 1157 b 168 1231 96 1197 128 1231 b 242 1157 208 1231 242 1197 b 168 1085 242 1117 208 1085 b 96 1157 128 1085 96 1117 z m 458 1157 b 475 1176 458 1167 467 1176 b 493 1157 486 1176 493 1167 b 475 1140 493 1147 486 1140 b 458 1157 467 1140 458 1147 z m 432 1157 b 475 1114 432 1133 451 1114 b 519 1157 501 1114 519 1133 b 475 1201 519 1182 501 1201 b 432 1157 451 1201 432 1182 z m 403 1157 b 475 1231 403 1197 435 1231 b 549 1157 517 1231 549 1197 b 475 1085 549 1117 517 1085 b 403 1157 435 1085 403 1117 z "},"":{"ha":1239,"x_min":0,"x_max":0,"o":"m 69 506 b 697 -117 69 199 379 -117 b 1243 429 997 -117 1243 129 b 621 1057 1243 746 928 1057 b 69 506 317 1057 69 810 z m 704 435 b 624 356 704 385 672 356 l 614 356 l 614 532 b 699 613 614 582 647 613 l 704 613 l 704 560 l 785 488 l 935 488 l 935 532 b 850 719 935 597 911 656 b 792 776 818 754 804 764 b 975 506 924 736 975 640 b 933 339 975 444 960 389 b 935 358 935 346 935 353 l 935 397 l 863 478 l 704 478 z m 504 213 b 583 153 546 175 563 164 b 338 429 428 168 338 261 b 385 611 338 496 354 558 l 385 435 b 504 213 385 349 426 282 z m 729 453 l 750 453 l 750 435 b 624 308 750 357 690 308 b 497 435 556 308 497 357 l 497 608 b 624 731 497 683 556 731 b 750 608 690 731 750 683 l 750 585 l 729 585 l 729 608 b 624 711 729 672 689 711 b 517 608 557 711 517 672 l 517 435 b 624 331 517 368 557 331 b 729 435 689 331 729 368 z m 772 453 l 792 453 l 792 435 b 624 267 792 335 711 267 b 453 435 536 267 453 335 l 453 608 b 624 775 453 707 536 775 b 792 608 711 775 792 707 l 792 585 l 772 585 l 772 608 b 624 753 772 693 710 753 b 475 608 538 753 475 693 l 475 435 b 624 288 475 349 538 288 b 772 435 710 288 772 349 z m 815 453 l 836 453 l 836 435 b 624 224 836 310 742 224 b 411 435 504 224 411 310 l 411 608 b 624 818 411 731 504 818 b 836 608 742 818 836 731 l 836 585 l 815 585 l 815 608 b 624 794 815 721 721 794 b 431 608 526 794 431 721 l 431 435 b 624 247 431 322 526 247 b 815 435 721 247 815 322 z m 239 506 b 621 126 239 296 410 126 b 1000 506 831 126 1000 296 b 621 888 1000 717 831 888 b 239 506 410 888 239 717 z m 211 506 b 621 915 211 732 394 915 b 1029 506 846 915 1029 732 b 621 97 1029 281 846 97 b 211 506 394 97 211 281 z m 182 506 b 621 68 182 263 378 68 b 1058 506 864 68 1058 263 b 621 944 1058 749 864 944 b 182 506 378 944 182 749 z m 153 506 b 621 974 153 764 363 974 b 1088 506 878 974 1088 764 b 621 39 1088 249 878 39 b 153 506 363 39 153 249 z m 125 506 b 621 11 125 233 347 11 b 1117 506 893 11 1117 233 b 621 1003 1117 781 893 1003 b 125 506 347 1003 125 781 z m 96 506 b 621 1031 96 796 331 1031 b 1146 506 908 1031 1146 796 b 621 -19 1146 218 908 -19 b 96 506 331 -19 96 218 z "},"":{"ha":494,"x_min":0,"x_max":0,"o":"m 136 314 l 274 314 l 274 553 l 293 553 l 293 386 l 374 314 l 511 314 l 511 753 b 439 908 511 803 488 849 b 246 1018 375 985 314 1018 b 56 829 142 1018 56 939 l 56 386 z m 293 796 l 293 769 l 274 769 b 293 796 278 781 283 789 z m 350 413 l 319 413 l 319 651 l 175 651 l 175 413 l 144 413 l 144 681 l 350 681 z m 413 413 l 383 413 l 383 831 b 247 965 383 901 318 965 b 111 831 179 965 111 903 l 111 413 l 82 413 l 82 829 b 246 993 82 924 156 993 b 413 829 338 993 413 921 z m 350 714 l 144 714 l 144 828 b 246 933 144 886 188 933 b 350 828 307 933 350 886 z m 319 743 l 319 831 b 246 903 319 875 289 903 b 175 831 203 903 175 872 l 175 743 z "},"":{"ha":719,"x_min":0,"x_max":0,"o":"m 51 385 l 131 310 l 426 92 l 426 328 l 740 92 l 740 325 l 642 422 l 740 494 l 740 729 l 668 814 l 426 633 l 426 729 l 353 814 l 51 589 z m 328 422 l 365 449 l 365 385 z m 390 576 l 642 763 l 642 728 l 390 540 z m 390 433 l 642 247 l 642 211 l 390 397 z m 461 488 l 642 622 l 642 582 l 514 486 l 642 390 l 642 353 z m 390 504 l 642 693 l 642 656 l 415 488 l 642 318 l 642 281 l 390 468 z m 76 576 l 328 763 l 328 728 l 76 540 z m 76 433 l 328 247 l 328 211 l 76 397 z m 147 488 l 328 622 l 328 582 l 200 486 l 328 390 l 328 353 z m 76 504 l 328 693 l 328 656 l 101 488 l 328 318 l 328 281 l 76 468 z "},"":{"ha":1239,"x_min":0,"x_max":0,"o":"m 69 506 b 697 -117 69 189 389 -117 b 1243 429 997 -117 1243 129 b 621 1057 1243 746 928 1057 b 69 506 317 1057 69 810 z m 338 429 b 421 660 338 518 368 599 l 421 211 b 338 429 354 254 338 360 z m 650 324 l 686 324 l 686 213 l 736 171 b 650 153 708 160 681 156 z m 650 600 l 683 600 b 650 563 679 582 667 569 z m 601 443 b 735 308 685 443 735 392 l 735 238 l 713 238 l 713 308 b 601 422 713 378 671 422 l 551 422 l 551 238 l 532 238 l 532 443 z m 743 475 b 821 308 793 435 821 378 l 821 238 l 797 238 l 797 308 b 707 475 797 381 768 436 b 789 615 769 510 789 550 b 601 783 789 711 719 783 l 468 783 l 468 238 l 446 238 l 446 803 l 601 803 b 811 615 731 803 811 719 b 743 475 811 536 782 504 z m 601 528 b 710 615 668 528 710 558 b 601 699 710 671 672 699 l 551 699 l 551 528 z m 532 718 l 601 718 b 731 615 688 718 731 685 b 601 504 731 551 679 504 l 532 504 z m 601 486 b 750 615 703 486 750 547 b 601 740 750 692 700 740 l 510 740 l 510 486 z m 510 464 l 510 238 l 488 238 l 488 760 l 601 760 b 771 615 710 760 771 701 b 661 475 771 540 731 494 b 776 308 738 454 776 385 l 776 238 l 756 238 l 756 308 b 601 464 756 396 696 464 z m 239 506 b 621 126 239 296 410 126 b 1000 506 831 126 1000 296 b 621 888 1000 717 831 888 b 239 506 410 888 239 717 z m 211 506 b 621 915 211 732 394 915 b 1029 506 846 915 1029 732 b 621 97 1029 281 846 97 b 211 506 394 97 211 281 z m 182 506 b 621 68 182 263 378 68 b 1058 506 864 68 1058 263 b 621 944 1058 749 864 944 b 182 506 378 944 182 749 z m 153 506 b 621 974 153 764 363 974 b 1088 506 878 974 1088 764 b 621 39 1088 249 878 39 b 153 506 363 39 153 249 z m 125 506 b 621 11 125 233 347 11 b 1117 506 893 11 1117 233 b 621 1003 1117 781 893 1003 b 125 506 347 1003 125 781 z m 96 506 b 621 1031 96 796 331 1031 b 1146 506 908 1031 1146 796 b 621 -19 1146 218 908 -19 b 96 506 331 -19 96 218 z "},"":{"ha":669,"x_min":0,"x_max":0,"o":"m 600 1263 l 69 1263 l 69 1068 l 150 996 l 672 996 l 672 1182 z m 575 1208 l 96 1208 l 96 1238 l 575 1238 z m 575 1149 l 96 1149 l 96 1179 l 575 1179 z m 575 1093 l 96 1093 l 96 1121 l 575 1121 z "},"":{"ha":454,"x_min":0,"x_max":0,"o":"m 69 939 b 135 803 69 879 97 836 l 188 753 b 304 711 218 726 261 711 b 457 864 396 711 457 774 b 415 979 457 908 443 950 l 363 1035 b 226 1099 328 1071 286 1099 b 69 939 132 1099 69 1032 z m 274 938 b 226 983 274 963 254 983 b 182 938 201 983 182 963 b 226 893 182 908 201 893 b 274 938 254 893 274 908 z m 226 865 b 156 939 188 865 156 899 b 226 1013 156 979 188 1013 b 297 939 267 1013 297 979 b 226 865 297 899 267 865 z m 329 939 b 226 1042 329 997 283 1042 b 124 939 168 1042 124 997 b 226 836 124 881 168 836 b 329 939 283 836 329 881 z m 96 939 b 226 1074 96 1017 147 1074 b 358 939 307 1074 358 1017 b 228 808 358 863 307 808 b 96 939 154 808 96 863 z "},"":{"ha":654,"x_min":0,"x_max":0,"o":"m 585 617 l 494 617 l 494 701 l 422 782 l 228 782 l 228 617 l 69 617 l 69 422 l 150 350 l 228 350 l 228 265 l 308 193 l 494 193 l 494 350 l 657 350 l 657 536 z m 282 292 l 253 292 l 253 447 l 96 447 l 96 475 l 282 475 z m 560 447 l 397 447 l 397 292 l 368 292 l 368 475 l 560 475 z m 282 563 l 96 563 l 96 592 l 253 592 l 253 757 l 282 757 z m 560 563 l 368 563 l 368 757 l 397 757 l 397 592 l 560 592 z m 560 503 l 339 503 l 339 292 l 310 292 l 310 503 l 96 503 l 96 533 l 310 533 l 310 757 l 339 757 l 339 533 l 560 533 z m 69 -25 l 150 -97 l 657 -97 l 657 89 l 585 169 l 69 169 z m 96 28 l 560 28 l 560 0 l 96 0 z m 96 144 l 560 144 l 560 115 l 96 115 z m 96 86 l 560 86 l 560 56 l 96 56 z "},"":{"ha":489,"x_min":0,"x_max":0,"o":"m 425 563 l 272 563 b 354 610 281 593 308 601 b 432 639 382 615 407 622 b 511 792 481 671 511 718 b 444 942 511 843 490 889 b 247 1051 375 1021 317 1051 b 54 826 131 1051 54 947 l 122 765 b 54 625 78 726 54 685 l 54 418 l 135 346 l 497 346 l 497 482 z m 399 443 l 81 443 l 81 625 b 124 735 81 676 97 711 b 289 804 171 772 233 772 b 322 860 308 817 322 832 b 247 932 322 904 289 932 b 175 853 200 932 175 901 l 143 853 b 247 964 143 914 185 964 b 353 861 307 964 353 924 b 307 781 353 818 335 796 b 144 710 257 750 193 747 b 110 625 125 696 110 671 l 110 474 l 399 474 z m 399 507 l 143 507 l 143 628 b 172 700 143 663 156 685 b 328 757 218 735 279 724 b 383 867 363 781 383 817 b 247 996 383 943 322 996 b 111 853 165 996 111 929 l 81 853 b 247 1025 81 946 146 1025 b 413 868 338 1025 413 965 b 344 733 413 803 386 761 b 194 676 300 703 239 711 b 174 628 183 665 174 651 l 174 538 l 399 538 z "},"":{"ha":485,"x_min":0,"x_max":0,"o":"m 175 661 l 256 588 l 289 588 b 263 554 285 571 276 560 l 188 638 l 47 638 b 161 406 47 542 82 474 b 315 335 218 356 264 335 b 504 528 431 335 504 411 b 460 651 504 586 488 624 b 504 778 488 679 504 719 b 432 946 504 838 485 886 b 239 1051 368 1021 313 1051 b 47 821 124 1051 47 960 l 128 749 l 175 749 z m 201 772 l 239 772 b 317 854 285 772 317 799 b 239 936 317 900 288 936 b 161 846 190 936 161 896 l 132 846 b 239 964 132 908 171 964 b 347 854 308 964 347 913 b 239 744 347 782 301 744 l 201 744 z m 201 714 l 239 714 b 347 604 301 714 347 676 b 239 494 347 544 308 494 b 132 613 171 494 132 549 l 161 613 b 239 522 161 563 190 522 b 317 604 288 522 317 558 b 239 686 317 658 285 686 l 201 686 z m 103 613 b 239 464 103 525 157 464 b 376 604 322 464 376 522 b 303 729 376 661 354 701 b 376 854 354 760 376 799 b 239 993 376 936 322 993 b 103 846 157 993 103 933 l 72 846 b 239 1025 72 954 139 1025 b 407 854 342 1025 407 958 b 353 729 407 792 385 753 b 407 604 385 704 407 665 b 239 433 407 500 342 433 b 72 613 139 433 72 503 z "},"":{"ha":413,"x_min":0,"x_max":0,"o":"m 353 1311 l 158 1311 l 60 1033 l 142 961 l 326 961 l 425 1231 z m 235 1058 l 208 1058 l 290 1285 l 318 1285 z m 124 1058 l 96 1058 l 176 1285 l 204 1285 z m 181 1058 l 150 1058 l 233 1285 l 263 1285 z "},"":{"ha":833,"x_min":0,"x_max":0,"o":"m 763 1039 l 69 1039 l 69 -25 l 150 -97 l 835 -97 l 835 958 z m 338 771 l 567 771 l 567 169 l 338 169 z m 239 143 l 593 143 l 593 868 l 239 868 z m 211 897 l 622 897 l 622 115 l 211 115 z m 182 86 l 651 86 l 651 926 l 182 926 z m 153 954 l 679 954 l 679 58 l 153 58 z m 125 28 l 708 28 l 708 983 l 125 983 z m 738 0 l 96 0 l 96 1014 l 738 1014 z "},"":{"ha":338,"x_min":0,"x_max":0,"o":"m 69 506 b 114 417 69 468 89 439 l 176 363 b 244 336 194 347 218 336 b 339 429 296 336 339 376 b 311 497 339 456 328 478 l 257 561 b 168 606 233 589 204 606 b 69 506 113 606 69 561 z m 150 506 b 168 525 150 515 158 525 b 186 506 178 525 186 515 b 168 489 186 496 178 489 b 150 506 158 489 150 496 z m 125 506 b 168 463 125 482 143 463 b 213 506 192 463 213 482 b 168 550 213 531 192 550 b 125 506 143 550 125 531 z m 96 506 b 168 579 96 546 128 579 b 242 506 208 579 242 546 b 168 433 242 465 208 433 b 96 506 128 433 96 465 z "},"":{"ha":339,"x_min":0,"x_max":0,"o":"m 242 -346 l 322 -235 b 342 -176 336 -218 342 -196 b 290 -74 342 -150 333 -118 b 171 1 235 -18 210 1 b 69 -100 115 1 69 -40 b 128 -190 69 -135 86 -165 l 100 -229 z m 149 -101 b 169 -83 149 -93 158 -83 b 188 -101 181 -83 188 -93 b 169 -121 188 -112 181 -121 b 149 -101 158 -121 149 -112 z m 160 -240 l 136 -222 l 203 -133 b 214 -101 210 -122 214 -111 b 169 -54 214 -72 194 -54 b 124 -101 143 -54 124 -68 b 158 -146 124 -126 142 -142 l 144 -169 b 96 -100 111 -157 96 -133 b 171 -24 96 -56 129 -24 b 244 -100 214 -24 244 -60 b 229 -146 244 -115 240 -131 z "},"":{"ha":321,"x_min":0,"x_max":0,"o":"m 263 1040 l 135 1040 l 22 911 l 118 825 l 118 418 l 199 346 l 335 346 l 335 961 z m 82 897 l 60 915 l 146 1015 l 188 1015 z m 172 443 l 143 443 l 143 867 l 132 856 l 107 872 l 172 949 z m 236 443 l 206 443 l 206 1015 l 236 1015 z "},"":{"ha":489,"x_min":0,"x_max":0,"o":"m 151 383 b 321 304 218 324 267 304 b 508 489 425 304 508 379 l 508 753 b 433 915 508 806 488 853 b 244 1018 368 988 311 1018 b 53 829 139 1018 53 942 l 53 565 b 151 383 53 496 83 442 z m 292 565 b 271 528 292 549 283 533 l 271 753 b 292 793 271 771 278 786 z m 317 829 b 244 900 317 874 289 900 b 172 829 201 900 172 874 l 172 565 b 244 496 172 521 201 496 b 317 565 289 496 317 521 z m 347 565 b 244 464 347 503 299 464 b 143 565 190 464 143 503 l 143 829 b 244 931 143 893 190 931 b 347 829 299 931 347 893 z m 381 829 b 244 963 381 908 313 963 b 108 829 175 963 108 908 l 108 565 b 244 432 108 486 175 432 b 381 565 313 432 381 486 z m 411 565 b 244 401 411 468 338 401 b 79 565 153 401 79 468 l 79 829 b 244 993 79 926 153 993 b 411 829 338 993 411 926 z "},"":{"ha":719,"x_min":0,"x_max":0,"o":"m 668 589 l 367 814 l 367 576 l 53 814 l 53 569 l 153 478 l 53 403 l 53 160 l 132 92 l 367 264 l 367 160 l 446 92 l 742 310 l 742 511 z m 428 449 l 428 514 l 467 478 z m 643 540 l 392 728 l 392 763 l 643 576 z m 643 397 l 392 211 l 392 247 l 643 433 z m 392 353 l 392 390 l 519 486 l 392 582 l 392 622 l 572 488 z m 643 468 l 392 281 l 392 318 l 619 488 l 392 656 l 392 693 l 643 504 z m 329 540 l 78 728 l 78 763 l 329 576 z m 329 397 l 78 211 l 78 247 l 329 433 z m 78 353 l 78 390 l 206 486 l 78 582 l 78 622 l 258 488 z m 329 468 l 78 281 l 78 318 l 306 488 l 78 656 l 78 693 l 329 504 z "},"":{"ha":1076,"x_min":0,"x_max":0,"o":"m 888 1039 l 697 1039 l 360 444 l 360 960 l 288 1040 l 160 1040 l 49 910 l 143 824 l 143 417 l 224 344 l 303 344 l 93 -25 l 175 -97 l 357 -97 l 957 958 z m 679 18 l 814 18 l 814 -25 l 893 -97 l 1031 -97 l 1031 18 l 1090 18 l 1090 156 l 1031 215 l 1031 518 l 958 597 l 826 597 l 596 90 z m 869 0 l 839 0 l 839 115 l 636 115 l 842 572 l 875 572 l 683 146 l 869 146 z m 871 179 l 731 179 l 871 472 z m 993 179 l 903 179 l 903 572 l 933 572 l 933 210 l 993 210 z m 933 0 l 903 0 l 903 146 l 993 146 l 993 115 l 933 115 z m 839 210 l 839 339 l 781 210 z m 163 0 l 136 0 l 713 1014 l 739 1014 z m 215 0 l 189 0 l 764 1014 l 790 1014 z m 268 0 l 242 0 l 817 1014 l 844 1014 z m 108 896 l 85 914 l 172 1014 l 213 1014 z m 199 443 l 169 443 l 169 865 l 158 854 l 132 872 l 199 949 z m 263 443 l 232 443 l 232 1014 l 263 1014 z "},"":{"ha":1132,"x_min":0,"x_max":0,"o":"m 888 1039 l 697 1039 l 360 444 l 360 960 l 288 1040 l 160 1040 l 49 910 l 143 824 l 143 417 l 224 344 l 303 344 l 93 -25 l 175 -97 l 357 -97 l 957 958 z m 1058 119 l 906 119 b 988 167 914 150 942 158 b 1065 196 1014 172 1040 179 b 1144 349 1114 228 1144 275 b 1078 499 1144 400 1124 446 b 879 608 1008 578 950 608 b 688 383 764 608 688 504 l 756 322 b 688 182 711 283 688 242 l 688 -25 l 768 -97 l 1131 -97 l 1131 39 z m 1032 0 l 714 0 l 714 182 b 757 292 714 233 731 268 b 922 361 803 329 867 329 b 956 417 942 374 956 389 b 879 489 956 461 922 489 b 808 410 833 489 808 458 l 776 410 b 879 521 776 471 818 521 b 986 418 939 521 986 481 b 939 338 986 375 968 353 b 778 267 890 307 826 304 b 743 182 758 253 743 228 l 743 31 l 1032 31 z m 1032 64 l 776 64 l 776 185 b 806 257 776 219 789 242 b 961 314 851 292 913 281 b 1017 424 996 338 1017 374 b 879 553 1017 500 956 553 b 743 410 799 553 743 486 l 714 410 b 879 582 714 503 779 582 b 1046 425 971 582 1046 522 b 978 290 1046 360 1019 318 b 828 233 933 260 872 268 b 807 185 817 222 807 208 l 807 94 l 1032 94 z m 163 0 l 136 0 l 713 1014 l 739 1014 z m 215 0 l 189 0 l 764 1014 l 790 1014 z m 268 0 l 242 0 l 817 1014 l 844 1014 z m 108 896 l 85 914 l 172 1014 l 213 1014 z m 199 443 l 169 443 l 169 865 l 158 854 l 132 872 l 199 949 z m 263 443 l 232 443 l 232 1014 l 263 1014 z "},"":{"ha":1228,"x_min":0,"x_max":0,"o":"m 188 661 l 268 588 l 301 588 b 275 554 297 571 289 560 l 200 638 l 60 638 b 174 406 60 542 94 474 b 328 335 231 356 276 335 b 517 528 443 335 517 411 b 472 651 517 586 500 624 b 517 778 500 679 517 719 b 444 946 517 838 497 886 b 251 1051 381 1021 325 1051 b 60 821 136 1051 60 960 l 140 749 l 188 749 z m 214 772 l 251 772 b 329 854 297 772 329 799 b 251 936 329 900 300 936 b 174 846 203 936 174 896 l 144 846 b 251 964 144 908 183 964 b 360 854 321 964 360 913 b 251 744 360 782 314 744 l 214 744 z m 214 714 l 251 714 b 360 604 314 714 360 676 b 251 494 360 544 321 494 b 144 613 183 494 144 549 l 174 613 b 251 522 174 563 203 522 b 329 604 300 522 329 558 b 251 686 329 658 297 686 l 214 686 z m 115 613 b 251 464 115 525 169 464 b 389 604 335 464 389 522 b 315 729 389 661 367 701 b 389 854 367 760 389 799 b 251 993 389 936 335 993 b 115 846 169 993 115 933 l 85 846 b 251 1025 85 954 151 1025 b 419 854 354 1025 419 958 b 365 729 419 792 397 753 b 419 604 397 704 419 665 b 251 433 419 500 354 433 b 85 613 151 433 85 503 z m 1038 1039 l 847 1039 l 243 -25 l 325 -97 l 507 -97 l 1107 958 z m 313 0 l 286 0 l 863 1014 l 889 1014 z m 365 0 l 339 0 l 914 1014 l 940 1014 z m 418 0 l 392 0 l 967 1014 l 994 1014 z m 829 18 l 964 18 l 964 -25 l 1044 -97 l 1181 -97 l 1181 18 l 1240 18 l 1240 156 l 1181 215 l 1181 518 l 1108 597 l 976 597 l 746 90 z m 1019 0 l 989 0 l 989 115 l 786 115 l 992 572 l 1025 572 l 833 146 l 1019 146 z m 1021 179 l 881 179 l 1021 472 z m 1143 179 l 1053 179 l 1053 572 l 1083 572 l 1083 210 l 1143 210 z m 1083 0 l 1053 0 l 1053 146 l 1143 146 l 1143 115 l 1083 115 z m 989 210 l 989 339 l 931 210 z "},"":{"ha":714,"x_min":0,"x_max":0,"o":"m 644 383 l 465 335 b 479 267 475 308 479 282 b 353 149 479 204 424 149 b 301 203 311 149 301 164 b 397 315 301 257 338 299 b 597 586 525 351 597 451 b 581 683 597 611 593 643 l 503 756 l 299 756 b 332 663 326 706 332 682 b 267 576 332 610 300 585 b 40 279 128 536 40 428 b 149 32 40 189 76 113 b 428 -114 236 -65 322 -114 b 744 196 593 -114 744 3 b 724 311 744 228 739 264 z m 567 869 b 522 958 567 908 549 938 l 460 1014 b 393 1040 443 1029 419 1040 b 297 946 340 1040 297 999 b 325 878 297 921 308 897 l 381 814 b 469 771 403 788 432 771 b 567 869 525 771 567 815 z m 414 942 b 397 924 414 932 407 924 b 381 942 388 924 381 932 b 397 958 381 953 388 958 b 414 942 407 958 414 953 z m 442 942 b 397 985 442 967 422 985 b 353 942 372 985 353 967 b 397 897 353 917 372 897 b 442 942 422 897 442 917 z m 471 942 b 397 868 471 901 439 868 b 324 942 357 868 324 901 b 397 1014 324 983 357 1014 b 471 942 439 1014 471 983 z m 490 729 b 500 658 497 708 500 683 b 318 413 500 536 433 444 b 203 276 247 393 203 340 b 356 124 203 186 269 124 b 504 263 440 124 504 189 b 496 313 504 278 501 294 l 524 319 b 533 267 532 301 533 285 b 356 93 533 172 446 93 b 178 272 247 93 178 171 b 308 440 178 353 235 421 b 471 668 407 467 471 550 b 461 729 471 688 467 710 z m 432 729 b 443 667 440 708 443 686 b 300 468 443 563 386 489 b 150 267 207 443 150 361 b 356 68 150 153 238 68 b 563 267 467 68 563 153 b 550 328 563 289 560 310 l 578 336 b 592 264 586 308 592 285 b 354 33 592 140 474 33 b 125 265 219 33 125 146 b 293 494 125 379 190 469 b 413 663 367 513 413 578 b 403 729 413 683 411 707 z m 371 729 b 386 660 383 706 386 682 b 285 522 386 588 344 540 b 97 271 175 492 97 394 b 356 8 97 126 206 8 b 618 274 494 8 618 115 b 608 344 618 299 615 321 l 635 353 b 647 268 643 324 647 297 b 356 -17 647 92 506 -17 b 67 276 190 -17 67 110 b 278 551 67 413 149 513 b 357 658 318 563 357 594 b 340 729 357 682 354 706 z "},"":{"ha":757,"x_min":0,"x_max":0,"o":"m 144 -97 l 332 -97 l 332 336 l 497 336 l 497 -25 l 578 -97 l 765 -97 l 765 669 b 661 907 765 753 729 831 b 543 1008 622 950 583 983 l 463 1231 l 389 1311 l 194 1311 l 290 1044 b 65 746 160 1010 65 893 l 65 -25 z m 332 672 b 453 793 332 743 378 793 b 497 749 492 793 497 786 l 497 604 l 332 604 z m 286 1285 l 315 1285 l 397 1058 l 368 1058 z m 343 1285 l 371 1285 l 453 1058 l 425 1058 z m 231 1285 l 258 1285 l 339 1058 l 313 1058 z m 550 0 l 522 0 l 522 433 l 233 433 l 233 0 l 206 0 l 206 461 l 550 461 z m 668 0 l 638 0 l 638 749 b 378 1006 638 882 514 1006 b 118 749 247 1006 118 885 l 118 0 l 90 0 l 90 746 b 376 1031 90 908 218 1031 b 668 746 535 1031 668 904 z m 550 549 l 206 549 l 206 743 b 376 921 206 843 278 921 b 550 743 478 921 550 843 z m 522 578 l 522 749 b 376 892 522 838 463 892 b 233 749 289 892 233 833 l 233 578 z m 608 0 l 581 0 l 581 492 l 176 492 l 176 0 l 147 0 l 147 743 b 376 981 147 876 253 981 b 608 749 507 981 608 868 z m 581 519 l 581 743 b 376 949 581 857 488 949 b 176 749 268 949 176 858 l 176 519 z "},"":{"ha":757,"x_min":0,"x_max":0,"o":"m 563 1311 l 368 1311 l 269 1039 b 65 746 150 997 65 885 l 65 -25 l 144 -97 l 332 -97 l 332 336 l 497 336 l 497 -25 l 578 -97 l 765 -97 l 765 669 b 550 1003 765 788 675 922 l 633 1231 z m 332 672 b 453 793 332 743 378 793 b 497 749 492 793 497 786 l 497 604 l 332 604 z m 443 1058 l 417 1058 l 499 1285 l 526 1285 z m 332 1058 l 304 1058 l 385 1285 l 413 1285 z m 389 1058 l 358 1058 l 442 1285 l 471 1285 z m 550 0 l 522 0 l 522 433 l 233 433 l 233 0 l 206 0 l 206 461 l 550 461 z m 668 0 l 638 0 l 638 749 b 378 1006 638 882 514 1006 b 118 749 247 1006 118 885 l 118 0 l 90 0 l 90 746 b 376 1031 90 908 218 1031 b 668 746 535 1031 668 904 z m 550 549 l 206 549 l 206 743 b 376 921 206 843 278 921 b 550 743 478 921 550 843 z m 522 578 l 522 749 b 376 892 522 838 463 892 b 233 749 289 892 233 833 l 233 578 z m 608 0 l 581 0 l 581 492 l 176 492 l 176 0 l 147 0 l 147 743 b 376 981 147 876 253 981 b 608 749 507 981 608 868 z m 581 519 l 581 743 b 376 949 581 857 488 949 b 176 749 268 949 176 858 l 176 519 z "},"":{"ha":757,"x_min":0,"x_max":0,"o":"m 279 1311 l 186 1033 l 211 1011 b 65 746 124 957 65 861 l 65 -25 l 144 -97 l 332 -97 l 332 336 l 497 336 l 497 -25 l 578 -97 l 765 -97 l 765 669 b 607 961 765 774 710 864 l 643 961 l 553 1231 l 479 1311 z m 332 672 b 453 793 332 743 378 793 b 497 749 492 793 497 786 l 497 604 l 332 604 z m 379 1142 l 406 1058 l 351 1058 z m 328 1285 l 251 1058 l 219 1058 l 297 1285 z m 461 1285 l 538 1058 l 504 1058 l 428 1285 z m 394 1285 l 472 1058 l 439 1058 l 379 1239 l 318 1058 l 285 1058 l 363 1285 z m 550 0 l 522 0 l 522 433 l 233 433 l 233 0 l 206 0 l 206 461 l 550 461 z m 668 0 l 638 0 l 638 749 b 378 1006 638 882 514 1006 b 118 749 247 1006 118 885 l 118 0 l 90 0 l 90 746 b 376 1031 90 908 218 1031 b 668 746 535 1031 668 904 z m 550 549 l 206 549 l 206 743 b 376 921 206 843 278 921 b 550 743 478 921 550 843 z m 522 578 l 522 749 b 376 892 522 838 463 892 b 233 749 289 892 233 833 l 233 578 z m 608 0 l 581 0 l 581 492 l 176 492 l 176 0 l 147 0 l 147 743 b 376 981 147 876 253 981 b 608 749 507 981 608 868 z m 581 519 l 581 743 b 376 949 581 857 488 949 b 176 749 268 949 176 858 l 176 519 z "},"":{"ha":757,"x_min":0,"x_max":0,"o":"m 494 1207 b 265 1271 428 1207 360 1271 b 121 1231 215 1271 165 1256 l 121 974 l 142 953 b 65 746 94 899 65 828 l 65 -25 l 144 -97 l 332 -97 l 332 336 l 497 336 l 497 -25 l 578 -97 l 765 -97 l 765 669 b 617 951 765 774 714 853 b 708 986 649 957 679 969 l 708 1244 l 628 1321 b 494 1207 572 1242 529 1207 z m 332 672 b 453 793 332 743 378 793 b 497 749 492 793 497 786 l 497 604 l 332 604 z m 488 1100 b 272 1164 408 1100 349 1164 b 146 1113 224 1164 178 1144 l 146 1151 b 268 1192 181 1179 221 1192 b 485 1126 351 1192 411 1126 b 610 1179 533 1126 578 1147 l 610 1139 b 488 1100 576 1111 535 1100 z m 497 1074 b 610 1108 539 1074 578 1089 l 610 1075 b 490 1044 578 1057 536 1044 b 263 1110 401 1044 338 1110 b 146 1040 218 1110 179 1089 l 146 1078 b 261 1139 176 1115 215 1139 b 497 1074 346 1139 407 1074 z m 496 1151 b 260 1218 411 1151 349 1218 b 146 1182 218 1218 179 1203 l 146 1215 b 265 1246 179 1235 219 1246 b 494 1181 354 1246 418 1181 b 610 1251 539 1181 578 1203 l 610 1213 b 496 1151 579 1176 542 1151 z m 550 0 l 522 0 l 522 433 l 233 433 l 233 0 l 206 0 l 206 461 l 550 461 z m 668 0 l 638 0 l 638 749 b 378 1006 638 882 514 1006 b 118 749 247 1006 118 885 l 118 0 l 90 0 l 90 746 b 376 1031 90 908 218 1031 b 668 746 535 1031 668 904 z m 550 549 l 206 549 l 206 743 b 376 921 206 843 278 921 b 550 743 478 921 550 843 z m 522 578 l 522 749 b 376 892 522 838 463 892 b 233 749 289 892 233 833 l 233 578 z m 608 0 l 581 0 l 581 492 l 176 492 l 176 0 l 147 0 l 147 743 b 376 981 147 876 253 981 b 608 749 507 981 608 868 z m 581 519 l 581 743 b 376 949 581 857 488 949 b 176 749 268 949 176 858 l 176 519 z "},"":{"ha":757,"x_min":0,"x_max":0,"o":"m 126 1157 b 171 1069 126 1118 144 1090 l 225 1019 b 65 746 129 968 65 867 l 65 -25 l 144 -97 l 332 -97 l 332 336 l 497 336 l 497 -25 l 578 -97 l 765 -97 l 765 669 b 661 907 765 753 729 831 b 392 1056 576 1000 489 1050 b 396 1081 394 1063 396 1072 b 368 1149 396 1106 385 1131 l 311 1207 b 224 1256 288 1232 261 1256 b 126 1157 168 1256 126 1211 z m 433 1157 b 478 1069 433 1118 453 1090 l 540 1014 b 608 986 557 999 581 986 b 703 1081 660 986 703 1028 b 675 1149 703 1106 693 1131 l 619 1207 b 532 1256 594 1232 568 1256 b 433 1157 475 1256 433 1211 z m 332 672 b 453 793 332 743 378 793 b 497 749 492 793 497 786 l 497 604 l 332 604 z m 206 1157 b 224 1176 206 1167 214 1176 b 242 1157 233 1176 242 1167 b 224 1140 242 1147 233 1140 b 206 1157 214 1140 206 1147 z m 181 1157 b 224 1114 181 1133 200 1114 b 268 1157 247 1114 268 1133 b 224 1201 268 1182 247 1201 b 181 1157 200 1201 181 1182 z m 151 1157 b 224 1231 151 1197 183 1231 b 297 1157 264 1231 297 1197 b 224 1085 297 1117 264 1085 b 151 1157 183 1085 151 1117 z m 515 1157 b 532 1176 515 1167 522 1176 b 549 1157 542 1176 549 1167 b 532 1140 549 1147 542 1140 b 515 1157 522 1140 515 1147 z m 488 1157 b 532 1114 488 1133 507 1114 b 576 1157 557 1114 576 1133 b 532 1201 576 1182 557 1201 b 488 1157 507 1201 488 1182 z m 458 1157 b 532 1231 458 1197 490 1231 b 606 1157 572 1231 606 1197 b 532 1085 606 1117 572 1085 b 458 1157 490 1085 458 1117 z m 550 0 l 522 0 l 522 433 l 233 433 l 233 0 l 206 0 l 206 461 l 550 461 z m 668 0 l 638 0 l 638 749 b 378 1006 638 882 514 1006 b 118 749 247 1006 118 885 l 118 0 l 90 0 l 90 746 b 376 1031 90 908 218 1031 b 668 746 535 1031 668 904 z m 550 549 l 206 549 l 206 743 b 376 921 206 843 278 921 b 550 743 478 921 550 843 z m 522 578 l 522 749 b 376 892 522 838 463 892 b 233 749 289 892 233 833 l 233 578 z m 608 0 l 581 0 l 581 492 l 176 492 l 176 0 l 147 0 l 147 743 b 376 981 147 876 253 981 b 608 749 507 981 608 868 z m 581 519 l 581 743 b 376 949 581 857 488 949 b 176 749 268 949 176 858 l 176 519 z "},"":{"ha":757,"x_min":0,"x_max":0,"o":"m 221 1150 b 267 1038 221 1110 242 1065 b 65 746 150 994 65 882 l 65 -25 l 144 -97 l 332 -97 l 332 336 l 497 336 l 497 -25 l 578 -97 l 765 -97 l 765 669 b 660 907 765 753 731 831 b 579 983 622 947 600 965 b 608 1075 597 1008 608 1040 b 567 1193 608 1121 594 1165 l 513 1247 b 379 1311 476 1282 438 1311 b 221 1150 285 1311 221 1244 z m 332 672 b 453 793 332 743 378 793 b 497 749 492 793 497 786 l 497 604 l 332 604 z m 426 1149 b 378 1194 426 1175 406 1194 b 333 1149 353 1194 333 1175 b 378 1104 333 1121 353 1104 b 426 1149 406 1104 426 1121 z m 378 1078 b 307 1150 338 1078 307 1111 b 378 1224 307 1192 338 1224 b 449 1150 418 1224 449 1192 b 378 1078 449 1111 418 1078 z m 481 1150 b 378 1254 481 1208 435 1254 b 275 1150 319 1254 275 1208 b 378 1049 275 1093 319 1049 b 481 1150 435 1049 481 1093 z m 550 0 l 522 0 l 522 433 l 233 433 l 233 0 l 206 0 l 206 461 l 550 461 z m 522 578 l 522 749 b 376 892 522 838 463 892 b 233 749 289 892 233 833 l 233 578 z m 550 549 l 206 549 l 206 743 b 376 921 206 843 278 921 b 550 743 478 921 550 843 z m 247 1150 b 379 1285 247 1229 300 1285 b 510 1151 458 1285 510 1229 b 426 1026 510 1090 476 1043 b 668 746 561 1004 668 888 l 668 0 l 638 0 l 638 749 b 378 1006 638 882 514 1006 b 118 749 247 1006 118 885 l 118 0 l 90 0 l 90 746 b 333 1028 90 893 194 1008 b 247 1150 282 1044 247 1092 z m 581 519 l 581 743 b 376 949 581 857 488 949 b 176 749 268 949 176 858 l 176 519 z m 608 0 l 581 0 l 581 492 l 176 492 l 176 0 l 147 0 l 147 743 b 376 981 147 876 253 981 b 608 749 507 981 608 868 z "},"":{"ha":1194,"x_min":0,"x_max":0,"o":"m 929 265 b 811 151 929 194 883 151 b 765 189 769 151 765 154 l 765 335 l 1010 335 l 1010 522 l 938 603 l 765 603 l 765 669 b 888 789 765 744 813 789 b 929 746 926 789 929 781 l 929 692 l 1010 619 l 1197 619 l 1197 669 b 1092 914 1197 758 1164 835 b 811 1057 1007 1010 917 1057 b 592 974 725 1057 649 1028 b 376 1057 533 1028 460 1057 b 65 746 204 1057 65 924 l 65 -25 l 144 -97 l 332 -97 l 332 336 l 497 336 l 497 265 b 636 -7 497 158 547 72 b 888 -117 719 -81 800 -117 b 1197 189 1058 -117 1197 10 l 1197 236 l 1125 317 l 929 317 z m 332 672 b 453 793 332 743 378 793 b 497 749 492 793 497 786 l 497 604 l 332 604 z m 954 292 l 983 292 l 983 265 b 811 97 983 161 903 97 b 638 265 719 97 638 161 l 638 461 l 911 461 l 911 432 l 668 432 l 668 265 b 811 126 668 178 722 126 b 954 265 900 126 954 178 z m 668 578 l 911 578 l 911 547 l 638 547 l 638 746 b 811 915 638 851 719 915 b 983 746 903 915 983 851 l 983 717 l 954 717 l 954 746 b 811 888 954 835 900 888 b 668 746 722 888 668 835 z m 1071 292 l 1100 292 l 1100 265 b 811 -19 1100 99 971 -19 b 522 265 651 -19 522 99 l 522 433 l 233 433 l 233 0 l 206 0 l 206 461 l 550 461 l 550 265 b 811 11 550 113 679 11 b 1071 265 943 11 1071 113 z m 811 1001 b 597 894 728 1001 647 963 l 592 889 b 378 1006 543 957 463 1006 b 118 749 247 1006 118 885 l 118 0 l 90 0 l 90 746 b 376 1031 90 908 218 1031 b 592 938 461 1031 539 994 b 811 1031 644 996 722 1031 b 1100 746 971 1031 1100 914 l 1100 717 l 1071 717 l 1071 746 b 811 1001 1071 901 943 1001 z m 522 578 l 522 749 b 376 892 522 838 463 892 b 233 749 289 892 233 833 l 233 578 z m 550 549 l 206 549 l 206 743 b 376 921 206 843 278 921 b 550 746 478 921 550 843 z m 581 519 l 581 746 b 376 949 581 863 485 949 b 176 749 268 949 176 858 l 176 519 z m 610 518 l 911 518 l 911 490 l 610 490 l 610 265 b 811 68 610 150 694 68 b 1013 265 928 68 1013 150 l 1013 292 l 1042 292 l 1042 265 b 811 39 1042 131 929 39 b 581 265 693 39 581 131 l 581 492 l 176 492 l 176 0 l 147 0 l 147 743 b 376 981 147 876 253 981 b 594 828 476 981 563 913 b 811 974 628 917 718 974 b 1042 746 929 974 1042 882 l 1042 717 l 1013 717 l 1013 746 b 811 944 1013 864 928 944 b 610 746 697 944 610 865 z "},"":{"ha":744,"x_min":0,"x_max":0,"o":"m 447 -346 l 529 -235 b 549 -176 542 -218 549 -196 b 525 -108 549 -158 543 -136 b 760 189 660 -78 760 38 l 760 236 l 688 317 l 492 317 l 492 265 b 374 151 492 194 446 151 b 326 189 333 151 326 158 l 326 669 b 450 789 326 744 374 789 b 492 746 483 789 492 781 l 492 692 l 572 619 l 760 619 l 760 669 b 656 913 760 758 726 835 b 374 1057 569 1010 479 1057 b 60 746 200 1057 60 929 l 60 265 b 279 -68 60 140 138 17 b 276 -100 278 -78 276 -89 b 333 -190 276 -135 293 -165 l 307 -229 z m 354 -101 b 375 -83 354 -93 364 -83 b 394 -101 386 -83 394 -93 b 375 -121 394 -112 386 -121 b 354 -101 364 -121 354 -112 z m 367 -240 l 342 -222 l 408 -133 b 419 -101 415 -122 419 -111 b 375 -54 419 -72 400 -54 b 329 -101 350 -54 329 -68 b 365 -146 329 -126 347 -142 l 351 -169 b 301 -100 317 -157 301 -133 b 376 -24 301 -56 336 -24 b 450 -100 419 -24 450 -60 b 435 -146 450 -115 446 -131 z m 518 292 l 547 292 l 547 265 b 374 97 547 161 465 97 b 201 265 282 97 201 161 l 201 746 b 374 915 201 851 282 915 b 547 746 465 915 547 851 l 547 717 l 518 717 l 518 746 b 374 888 518 835 463 888 b 229 746 285 888 229 835 l 229 265 b 374 126 229 178 285 126 b 518 265 463 126 518 178 z m 575 292 l 604 292 l 604 265 b 374 39 604 131 492 39 b 143 265 256 39 143 131 l 143 746 b 374 974 143 882 256 974 b 604 746 492 974 604 882 l 604 717 l 575 717 l 575 746 b 374 944 575 864 490 944 b 172 746 257 944 172 864 l 172 265 b 374 68 172 150 257 68 b 575 265 490 68 575 150 z m 633 292 l 663 292 l 663 265 b 374 -19 663 99 533 -19 b 85 265 214 -19 85 99 l 85 746 b 374 1031 85 914 214 1031 b 663 746 533 1031 663 914 l 663 717 l 633 717 l 633 746 b 374 1001 633 901 506 1001 b 113 746 242 1001 113 901 l 113 265 b 374 11 113 113 242 11 b 633 265 506 11 633 113 z "},"":{"ha":754,"x_min":0,"x_max":0,"o":"m 503 265 b 383 151 503 194 457 151 b 338 189 343 151 338 158 l 338 335 l 582 335 l 582 522 l 510 603 l 338 603 l 338 669 b 460 789 338 744 383 789 b 503 746 500 789 503 781 l 503 692 l 582 619 l 769 619 l 769 669 b 549 1011 769 797 668 939 l 471 1231 l 397 1311 l 203 1311 l 297 1044 b 69 746 165 1011 69 897 l 69 265 b 211 -8 69 158 119 72 b 460 -117 292 -81 372 -117 b 769 189 632 -117 769 10 l 769 236 l 697 317 l 503 317 z m 293 1285 l 322 1285 l 406 1058 l 375 1058 z m 351 1285 l 379 1285 l 460 1058 l 432 1058 z m 238 1285 l 265 1285 l 347 1058 l 321 1058 z m 528 292 l 556 292 l 556 265 b 383 97 556 161 474 97 b 211 265 293 97 211 161 l 211 461 l 485 461 l 485 432 l 239 432 l 239 265 b 383 126 239 178 294 126 b 528 265 472 126 528 178 z m 239 578 l 485 578 l 485 547 l 211 547 l 211 746 b 383 915 211 851 293 915 b 556 746 474 915 556 851 l 556 717 l 528 717 l 528 746 b 383 888 528 835 472 888 b 239 746 294 888 239 835 z m 183 518 l 485 518 l 485 490 l 183 490 l 183 265 b 383 68 183 150 267 68 b 585 265 501 68 585 150 l 585 292 l 614 292 l 614 265 b 383 39 614 131 503 39 b 153 265 265 39 153 131 l 153 746 b 383 974 153 882 265 974 b 614 746 503 974 614 882 l 614 717 l 585 717 l 585 746 b 383 944 585 864 501 944 b 183 746 267 944 183 864 z m 643 292 l 671 292 l 671 265 b 383 -19 671 99 544 -19 b 96 265 224 -19 96 99 l 96 746 b 383 1031 96 914 224 1031 b 671 746 544 1031 671 914 l 671 717 l 643 717 l 643 746 b 383 1001 643 901 515 1001 b 124 746 251 1001 124 901 l 124 265 b 383 11 124 113 251 11 b 643 265 515 11 643 113 z "},"":{"ha":754,"x_min":0,"x_max":0,"o":"m 571 1311 l 376 1311 l 279 1040 b 69 746 157 1000 69 892 l 69 265 b 211 -8 69 158 119 72 b 460 -117 292 -81 372 -117 b 769 189 632 -117 769 10 l 769 236 l 697 317 l 503 317 l 503 265 b 383 151 503 194 457 151 b 338 189 343 151 338 158 l 338 335 l 582 335 l 582 522 l 510 603 l 338 603 l 338 669 b 460 789 338 744 383 789 b 503 746 500 789 503 781 l 503 692 l 582 619 l 769 619 l 769 669 b 560 1004 769 793 676 932 l 642 1231 z m 453 1058 l 426 1058 l 507 1285 l 535 1285 z m 340 1058 l 313 1058 l 394 1285 l 422 1285 z m 397 1058 l 368 1058 l 450 1285 l 479 1285 z m 528 292 l 556 292 l 556 265 b 383 97 556 161 474 97 b 211 265 293 97 211 161 l 211 461 l 485 461 l 485 432 l 239 432 l 239 265 b 383 126 239 178 294 126 b 528 265 472 126 528 178 z m 239 578 l 485 578 l 485 547 l 211 547 l 211 746 b 383 915 211 851 293 915 b 556 746 474 915 556 851 l 556 717 l 528 717 l 528 746 b 383 888 528 835 472 888 b 239 746 294 888 239 835 z m 183 518 l 485 518 l 485 490 l 183 490 l 183 265 b 383 68 183 150 267 68 b 585 265 501 68 585 150 l 585 292 l 614 292 l 614 265 b 383 39 614 131 503 39 b 153 265 265 39 153 131 l 153 746 b 383 974 153 882 265 974 b 614 746 503 974 614 882 l 614 717 l 585 717 l 585 746 b 383 944 585 864 501 944 b 183 746 267 944 183 864 z m 643 292 l 671 292 l 671 265 b 383 -19 671 99 544 -19 b 96 265 224 -19 96 99 l 96 746 b 383 1031 96 914 224 1031 b 671 746 544 1031 671 914 l 671 717 l 643 717 l 643 746 b 383 1001 643 901 515 1001 b 124 746 251 1001 124 901 l 124 265 b 383 11 124 113 251 11 b 643 265 515 11 643 113 z "},"":{"ha":754,"x_min":0,"x_max":0,"o":"m 289 1311 l 194 1033 l 218 1013 b 69 746 128 960 69 864 l 69 265 b 211 -8 69 158 119 72 b 460 -117 292 -81 372 -117 b 769 189 632 -117 769 10 l 769 236 l 697 317 l 503 317 l 503 265 b 383 151 503 194 457 151 b 338 189 343 151 338 158 l 338 335 l 582 335 l 582 522 l 510 603 l 338 603 l 338 669 b 460 789 338 744 383 789 b 503 746 500 789 503 781 l 503 692 l 582 619 l 769 619 l 769 669 b 617 961 769 776 714 872 l 653 961 l 563 1231 l 488 1311 z m 388 1142 l 414 1058 l 360 1058 z m 338 1285 l 261 1058 l 229 1058 l 307 1285 z m 471 1285 l 547 1058 l 514 1058 l 438 1285 z m 403 1285 l 481 1058 l 447 1058 l 388 1239 l 326 1058 l 293 1058 l 371 1285 z m 528 292 l 556 292 l 556 265 b 383 97 556 161 474 97 b 211 265 293 97 211 161 l 211 461 l 485 461 l 485 432 l 239 432 l 239 265 b 383 126 239 178 294 126 b 528 265 472 126 528 178 z m 239 578 l 485 578 l 485 547 l 211 547 l 211 746 b 383 915 211 851 293 915 b 556 746 474 915 556 851 l 556 717 l 528 717 l 528 746 b 383 888 528 835 472 888 b 239 746 294 888 239 835 z m 183 518 l 485 518 l 485 490 l 183 490 l 183 265 b 383 68 183 150 267 68 b 585 265 501 68 585 150 l 585 292 l 614 292 l 614 265 b 383 39 614 131 503 39 b 153 265 265 39 153 131 l 153 746 b 383 974 153 882 265 974 b 614 746 503 974 614 882 l 614 717 l 585 717 l 585 746 b 383 944 585 864 501 944 b 183 746 267 944 183 864 z m 643 292 l 671 292 l 671 265 b 383 -19 671 99 544 -19 b 96 265 224 -19 96 99 l 96 746 b 383 1031 96 914 224 1031 b 671 746 544 1031 671 914 l 671 717 l 643 717 l 643 746 b 383 1001 643 901 515 1001 b 124 746 251 1001 124 901 l 124 265 b 383 11 124 113 251 11 b 643 265 515 11 643 113 z "},"":{"ha":754,"x_min":0,"x_max":0,"o":"m 442 1157 b 486 1069 442 1117 458 1092 l 549 1014 l 550 1010 b 399 1057 503 1038 454 1054 b 403 1081 401 1064 403 1072 b 375 1149 403 1106 393 1131 l 319 1207 b 232 1256 294 1232 268 1256 b 133 1153 172 1256 133 1210 b 178 1069 133 1117 154 1090 l 232 1019 b 69 746 135 969 69 871 l 69 265 b 211 -8 69 158 119 72 b 460 -117 292 -81 372 -117 b 769 189 632 -117 769 10 l 769 236 l 697 317 l 503 317 l 503 265 b 383 151 503 194 457 151 b 338 189 343 151 338 158 l 338 335 l 582 335 l 582 522 l 510 603 l 338 603 l 338 669 b 460 789 338 744 383 789 b 503 746 500 789 503 781 l 503 692 l 582 619 l 769 619 l 769 669 b 572 997 769 789 688 913 b 615 986 585 990 600 986 b 711 1081 668 986 711 1028 b 683 1149 711 1106 700 1131 l 626 1207 b 539 1256 603 1232 576 1256 b 442 1157 483 1256 442 1211 z m 214 1157 b 232 1176 214 1167 221 1176 b 249 1157 242 1176 249 1167 b 232 1140 249 1147 242 1140 b 214 1157 221 1140 214 1147 z m 188 1157 b 232 1114 188 1133 207 1114 b 276 1157 256 1114 276 1133 b 232 1201 276 1182 256 1201 b 188 1157 207 1201 188 1182 z m 158 1157 b 232 1231 158 1197 190 1231 b 306 1157 272 1231 306 1197 b 232 1085 306 1117 272 1085 b 158 1157 190 1085 158 1117 z m 522 1157 b 539 1176 522 1167 531 1176 b 557 1157 549 1176 557 1167 b 539 1140 557 1147 549 1140 b 522 1157 531 1140 522 1147 z m 496 1157 b 539 1114 496 1133 515 1114 b 583 1157 564 1114 583 1133 b 539 1201 583 1182 564 1201 b 496 1157 515 1201 496 1182 z m 467 1157 b 539 1231 467 1197 499 1231 b 613 1157 579 1231 613 1197 b 539 1085 613 1117 579 1085 b 467 1157 499 1085 467 1117 z m 528 292 l 556 292 l 556 265 b 383 97 556 161 474 97 b 211 265 293 97 211 161 l 211 461 l 485 461 l 485 432 l 239 432 l 239 265 b 383 126 239 178 294 126 b 528 265 472 126 528 178 z m 239 578 l 485 578 l 485 547 l 211 547 l 211 746 b 383 915 211 851 293 915 b 556 746 474 915 556 851 l 556 717 l 528 717 l 528 746 b 383 888 528 835 472 888 b 239 746 294 888 239 835 z m 183 518 l 485 518 l 485 490 l 183 490 l 183 265 b 383 68 183 150 267 68 b 585 265 501 68 585 150 l 585 292 l 614 292 l 614 265 b 383 39 614 131 503 39 b 153 265 265 39 153 131 l 153 746 b 383 974 153 882 265 974 b 614 746 503 974 614 882 l 614 717 l 585 717 l 585 746 b 383 944 585 864 501 944 b 183 746 267 944 183 864 z m 643 292 l 671 292 l 671 265 b 383 -19 671 99 544 -19 b 96 265 224 -19 96 99 l 96 746 b 383 1031 96 914 224 1031 b 671 746 544 1031 671 914 l 671 717 l 643 717 l 643 746 b 383 1001 643 901 515 1001 b 124 746 251 1001 124 901 l 124 265 b 383 11 124 113 251 11 b 643 265 515 11 643 113 z "},"":{"ha":335,"x_min":0,"x_max":0,"o":"m 69 -25 l 150 -97 l 338 -97 l 338 993 l 251 1231 l 178 1311 l -17 1311 l 82 1039 l 69 1039 z m 75 1285 l 104 1285 l 188 1058 l 157 1058 z m 132 1285 l 160 1285 l 242 1058 l 214 1058 z m 19 1285 l 47 1285 l 128 1058 l 101 1058 z m 239 0 l 211 0 l 211 1014 l 239 1014 z m 183 0 l 153 0 l 153 1014 l 183 1014 z m 125 0 l 96 0 l 96 1014 l 125 1014 z "},"":{"ha":335,"x_min":0,"x_max":0,"o":"m 351 1311 l 157 1311 l 57 1033 l 69 1022 l 69 -25 l 150 -97 l 338 -97 l 338 958 l 326 968 l 422 1231 z m 233 1058 l 206 1058 l 288 1285 l 315 1285 z m 121 1058 l 93 1058 l 174 1285 l 203 1285 z m 178 1058 l 147 1058 l 231 1285 l 260 1285 z m 239 0 l 211 0 l 211 1014 l 239 1014 z m 183 0 l 153 0 l 153 1014 l 183 1014 z m 125 0 l 96 0 l 96 1014 l 125 1014 z "},"":{"ha":335,"x_min":0,"x_max":0,"o":"m 68 1311 l -25 1033 l 56 961 l 69 961 l 69 -25 l 150 -97 l 338 -97 l 338 958 l 335 961 l 432 961 l 342 1231 l 268 1311 z m 168 1142 l 194 1058 l 140 1058 z m 117 1285 l 40 1058 l 8 1058 l 86 1285 z m 250 1285 l 326 1058 l 293 1058 l 218 1285 z m 183 1285 l 261 1058 l 228 1058 l 168 1239 l 107 1058 l 74 1058 l 151 1285 z m 239 0 l 211 0 l 211 1014 l 239 1014 z m 183 0 l 153 0 l 153 1014 l 183 1014 z m 125 0 l 96 0 l 96 1014 l 125 1014 z "},"":{"ha":335,"x_min":0,"x_max":0,"o":"m -85 1157 b -40 1069 -86 1117 -67 1092 l 22 1014 b 69 988 35 1001 51 992 l 69 -25 l 150 -97 l 338 -97 l 338 958 l 264 1039 l 174 1039 b 185 1081 181 1051 185 1065 b 157 1149 185 1106 174 1131 l 100 1207 b 13 1256 76 1232 50 1256 b -85 1157 -43 1256 -85 1211 z m 222 1157 b 267 1069 221 1117 242 1092 l 329 1014 b 397 986 346 999 369 986 b 492 1081 449 986 492 1028 b 464 1149 492 1106 482 1131 l 408 1207 b 321 1256 383 1232 357 1256 b 222 1157 264 1256 222 1211 z m -6 1157 b 13 1176 -6 1167 3 1176 b 31 1157 22 1176 31 1167 b 13 1140 31 1147 22 1140 b -6 1157 3 1140 -6 1147 z m -31 1157 b 13 1114 -31 1133 -11 1114 b 57 1157 38 1114 57 1133 b 13 1201 57 1182 38 1201 b -31 1157 -11 1201 -31 1182 z m -60 1157 b 13 1231 -60 1197 -28 1231 b 86 1157 53 1231 86 1197 b 13 1085 86 1117 53 1085 b -60 1157 -28 1085 -60 1117 z m 304 1157 b 321 1176 304 1167 311 1176 b 338 1157 331 1176 338 1167 b 321 1140 338 1147 331 1140 b 304 1157 311 1140 304 1147 z m 278 1157 b 321 1114 278 1133 296 1114 b 365 1157 346 1114 365 1133 b 321 1201 365 1182 346 1201 b 278 1157 296 1201 278 1182 z m 247 1157 b 321 1231 247 1197 279 1231 b 394 1157 361 1231 394 1197 b 321 1085 394 1117 361 1085 b 247 1157 279 1085 247 1117 z m 239 0 l 211 0 l 211 1014 l 239 1014 z m 183 0 l 153 0 l 153 1014 l 183 1014 z m 125 0 l 96 0 l 96 1014 l 125 1014 z "},"":{"ha":760,"x_min":0,"x_max":0,"o":"m 26 407 l 75 367 l 75 -25 l 156 -97 l 468 -97 b 774 217 642 -97 774 36 l 774 644 b 392 1039 774 833 574 1039 l 75 1039 l 75 603 l 26 603 z m 342 771 l 460 771 b 506 728 492 771 506 758 l 506 603 l 342 603 z m 342 335 l 506 335 l 506 285 b 383 169 506 213 457 169 l 342 169 z m 244 578 l 478 578 l 478 547 l 215 547 l 215 897 l 392 897 b 561 721 488 897 561 826 l 561 293 b 392 115 561 186 488 115 l 215 115 l 215 461 l 478 461 l 478 432 l 244 432 l 244 143 l 383 143 b 532 285 472 143 532 196 l 532 728 b 383 868 532 818 472 868 l 244 868 z m 128 547 l 53 547 l 53 578 l 100 578 l 100 1014 l 392 1014 b 675 721 553 1014 675 889 l 675 293 b 392 0 675 125 553 0 l 100 0 l 100 432 l 53 432 l 53 461 l 128 461 l 128 29 l 383 29 b 647 285 533 29 647 143 l 647 728 b 383 983 647 869 533 983 l 128 983 z m 188 518 l 478 518 l 478 490 l 188 490 l 188 86 l 383 86 b 589 293 503 86 589 172 l 589 721 b 383 926 589 840 503 926 l 188 926 z m 619 285 b 392 58 619 161 518 58 l 157 58 l 157 490 l 53 490 l 53 518 l 157 518 l 157 954 l 392 954 b 619 728 518 954 619 851 z "},"":{"ha":757,"x_min":0,"x_max":0,"o":"m 494 1207 b 265 1271 428 1207 360 1271 b 121 1231 215 1271 165 1256 l 121 974 l 142 953 b 65 746 93 900 65 829 l 65 -25 l 144 -97 l 332 -97 l 332 669 b 456 789 332 744 379 789 b 497 746 494 789 497 781 l 497 -25 l 578 -97 l 765 -97 l 765 669 b 621 953 765 768 718 864 b 708 986 651 958 681 971 l 708 1244 l 628 1321 b 494 1207 572 1242 529 1207 z m 488 1100 b 272 1164 408 1100 349 1164 b 146 1113 224 1164 178 1144 l 146 1151 b 268 1192 181 1179 221 1192 b 485 1126 351 1192 411 1126 b 610 1179 533 1126 578 1147 l 610 1139 b 488 1100 576 1111 535 1100 z m 497 1074 b 610 1108 539 1074 578 1089 l 610 1075 b 490 1044 578 1057 536 1044 b 263 1110 401 1044 338 1110 b 146 1040 218 1110 179 1089 l 146 1078 b 261 1139 176 1115 215 1139 b 497 1074 346 1139 407 1074 z m 496 1151 b 260 1218 411 1151 349 1218 b 146 1182 218 1218 179 1203 l 146 1215 b 265 1246 179 1235 219 1246 b 494 1181 354 1246 418 1181 b 610 1251 539 1181 578 1203 l 610 1213 b 496 1151 579 1176 542 1151 z m 233 0 l 206 0 l 206 746 b 379 915 206 851 288 915 b 550 746 469 915 550 851 l 550 0 l 522 0 l 522 746 b 379 888 522 835 468 888 b 233 746 290 888 233 835 z m 178 0 l 147 0 l 147 746 b 379 974 147 882 261 974 b 608 746 497 974 608 882 l 608 0 l 579 0 l 579 746 b 379 944 579 864 496 944 b 178 746 263 944 178 864 z m 118 0 l 90 0 l 90 746 b 379 1031 90 914 218 1031 b 668 746 539 1031 668 914 l 668 0 l 638 0 l 638 746 b 379 1001 638 901 510 1001 b 118 746 247 1001 118 901 z "},"":{"ha":747,"x_min":0,"x_max":0,"o":"m 181 11 b 450 -117 285 -78 363 -117 b 760 189 622 -117 760 10 l 760 669 b 533 1018 760 790 663 953 l 458 1231 l 383 1311 l 189 1311 l 286 1044 b 60 746 156 1010 60 897 l 60 265 b 181 11 60 158 110 72 z m 492 265 b 374 151 492 194 446 151 b 326 189 333 151 326 160 l 326 669 b 450 789 326 744 374 789 b 492 746 489 789 492 781 z m 281 1285 l 310 1285 l 393 1058 l 363 1058 z m 338 1285 l 367 1285 l 447 1058 l 419 1058 z m 225 1285 l 253 1285 l 335 1058 l 308 1058 z m 518 746 b 374 888 518 835 463 888 b 229 746 285 888 229 835 l 229 265 b 374 126 229 178 285 126 b 518 265 463 126 518 178 z m 547 265 b 374 97 547 161 465 97 b 201 265 282 97 201 161 l 201 746 b 374 915 201 851 282 915 b 547 746 465 915 547 851 z m 575 746 b 374 944 575 864 490 944 b 172 746 257 944 172 864 l 172 265 b 374 68 172 150 257 68 b 575 265 490 68 575 150 z m 604 265 b 374 39 604 131 492 39 b 143 265 256 39 143 131 l 143 746 b 374 974 143 882 256 974 b 604 746 492 974 604 882 z m 633 746 b 374 1001 633 901 506 1001 b 113 746 242 1001 113 901 l 113 265 b 374 11 113 113 242 11 b 633 265 506 11 633 113 z m 663 265 b 374 -19 663 99 533 -19 b 85 265 214 -19 85 99 l 85 746 b 374 1031 85 914 214 1031 b 663 746 533 1031 663 914 z "},"":{"ha":747,"x_min":0,"x_max":0,"o":"m 557 1311 l 363 1311 l 264 1039 b 60 746 144 999 60 889 l 60 265 b 181 11 60 158 110 72 b 450 -117 285 -78 363 -117 b 760 189 622 -117 760 10 l 760 669 b 549 1011 760 788 671 938 l 628 1231 z m 492 265 b 374 151 492 194 446 151 b 326 189 333 151 326 160 l 326 669 b 450 789 326 744 374 789 b 492 746 489 789 492 781 z m 439 1058 l 413 1058 l 493 1285 l 521 1285 z m 326 1058 l 299 1058 l 381 1285 l 408 1285 z m 383 1058 l 353 1058 l 436 1285 l 465 1285 z m 518 746 b 374 888 518 835 463 888 b 229 746 285 888 229 835 l 229 265 b 374 126 229 178 285 126 b 518 265 463 126 518 178 z m 547 265 b 374 97 547 161 465 97 b 201 265 282 97 201 161 l 201 746 b 374 915 201 851 282 915 b 547 746 465 915 547 851 z m 575 746 b 374 944 575 864 490 944 b 172 746 257 944 172 864 l 172 265 b 374 68 172 150 257 68 b 575 265 490 68 575 150 z m 604 265 b 374 39 604 131 492 39 b 143 265 256 39 143 131 l 143 746 b 374 974 143 882 256 974 b 604 746 492 974 604 882 z m 633 746 b 374 1001 633 901 506 1001 b 113 746 242 1001 113 901 l 113 265 b 374 11 113 113 242 11 b 633 265 506 11 633 113 z m 663 265 b 374 -19 663 99 533 -19 b 85 265 214 -19 85 99 l 85 746 b 374 1031 85 914 214 1031 b 663 746 533 1031 663 914 z "},"":{"ha":747,"x_min":0,"x_max":0,"o":"m 275 1311 l 181 1033 l 204 1011 b 60 746 117 958 60 864 l 60 265 b 181 11 60 158 110 72 b 450 -117 285 -78 363 -117 b 760 189 622 -117 760 10 l 760 669 b 614 961 760 767 708 875 l 638 961 l 549 1231 l 474 1311 z m 492 265 b 374 151 492 194 446 151 b 326 189 333 151 326 160 l 326 669 b 450 789 326 744 374 789 b 492 746 489 789 492 781 z m 374 1142 l 400 1058 l 346 1058 z m 322 1285 l 247 1058 l 215 1058 l 293 1285 z m 457 1285 l 533 1058 l 500 1058 l 424 1285 z m 389 1285 l 467 1058 l 433 1058 l 374 1239 l 313 1058 l 279 1058 l 357 1285 z m 518 746 b 374 888 518 835 463 888 b 229 746 285 888 229 835 l 229 265 b 374 126 229 178 285 126 b 518 265 463 126 518 178 z m 547 265 b 374 97 547 161 465 97 b 201 265 282 97 201 161 l 201 746 b 374 915 201 851 282 915 b 547 746 465 915 547 851 z m 575 746 b 374 944 575 864 490 944 b 172 746 257 944 172 864 l 172 265 b 374 68 172 150 257 68 b 575 265 490 68 575 150 z m 604 265 b 374 39 604 131 492 39 b 143 265 256 39 143 131 l 143 746 b 374 974 143 882 256 974 b 604 746 492 974 604 882 z m 633 746 b 374 1001 633 901 506 1001 b 113 746 242 1001 113 901 l 113 265 b 374 11 113 113 242 11 b 633 265 506 11 633 113 z m 663 265 b 374 -19 663 99 533 -19 b 85 265 214 -19 85 99 l 85 746 b 374 1031 85 914 214 1031 b 663 746 533 1031 663 914 z "},"":{"ha":747,"x_min":0,"x_max":0,"o":"m 489 1207 b 261 1271 424 1207 354 1271 b 115 1231 210 1271 160 1256 l 115 974 l 136 953 b 60 746 88 900 60 829 l 60 265 b 181 11 60 158 110 72 b 450 -117 285 -78 363 -117 b 760 189 622 -117 760 10 l 760 669 b 622 953 760 758 719 854 b 703 986 650 961 678 972 l 703 1244 l 624 1321 b 489 1207 567 1242 524 1207 z m 492 265 b 374 151 492 194 446 151 b 326 189 333 151 326 160 l 326 669 b 450 789 326 744 374 789 b 492 746 489 789 492 781 z m 483 1100 b 267 1164 403 1100 343 1164 b 142 1113 218 1164 172 1144 l 142 1151 b 263 1192 175 1179 217 1192 b 479 1126 346 1192 406 1126 b 606 1179 528 1126 574 1147 l 606 1139 b 483 1100 571 1111 531 1100 z m 492 1074 b 606 1108 533 1074 572 1089 l 606 1075 b 486 1044 572 1057 532 1044 b 257 1110 397 1044 332 1110 b 142 1040 213 1110 174 1089 l 142 1078 b 256 1139 172 1115 210 1139 b 492 1074 340 1139 401 1074 z m 490 1151 b 254 1218 406 1151 343 1218 b 142 1182 213 1218 174 1203 l 142 1215 b 261 1246 174 1235 215 1246 b 489 1181 350 1246 413 1181 b 606 1251 533 1181 572 1203 l 606 1213 b 490 1151 575 1176 536 1151 z m 518 746 b 374 888 518 835 463 888 b 229 746 285 888 229 835 l 229 265 b 374 126 229 178 285 126 b 518 265 463 126 518 178 z m 547 265 b 374 97 547 161 465 97 b 201 265 282 97 201 161 l 201 746 b 374 915 201 851 282 915 b 547 746 465 915 547 851 z m 575 746 b 374 944 575 864 490 944 b 172 746 257 944 172 864 l 172 265 b 374 68 172 150 257 68 b 575 265 490 68 575 150 z m 604 265 b 374 39 604 131 492 39 b 143 265 256 39 143 131 l 143 746 b 374 974 143 882 256 974 b 604 746 492 974 604 882 z m 633 746 b 374 1001 633 901 506 1001 b 113 746 242 1001 113 901 l 113 265 b 374 11 113 113 242 11 b 633 265 506 11 633 113 z m 663 265 b 374 -19 663 99 533 -19 b 85 265 214 -19 85 99 l 85 746 b 374 1031 85 914 214 1031 b 663 746 533 1031 663 914 z "},"":{"ha":747,"x_min":0,"x_max":0,"o":"m 428 1157 b 474 1069 428 1117 447 1092 l 524 1024 b 386 1057 481 1043 433 1054 b 390 1081 389 1064 390 1072 b 363 1149 390 1106 381 1131 l 307 1207 b 218 1256 282 1232 256 1256 b 121 1153 160 1256 121 1208 b 165 1069 121 1117 140 1090 l 219 1019 b 60 746 125 968 60 871 l 60 265 b 181 11 60 158 110 72 b 450 -117 285 -78 363 -117 b 760 189 622 -117 760 10 l 760 669 b 582 988 760 775 692 906 b 603 986 589 986 594 986 b 699 1081 654 986 699 1028 b 669 1149 699 1106 688 1131 l 614 1207 b 526 1256 590 1232 563 1256 b 428 1157 471 1256 428 1211 z m 492 265 b 374 151 492 194 446 151 b 326 189 333 151 326 160 l 326 669 b 450 789 326 744 374 789 b 492 746 489 789 492 781 z m 201 1157 b 218 1176 201 1167 208 1176 b 236 1157 229 1176 236 1167 b 218 1140 236 1147 229 1140 b 201 1157 208 1140 201 1147 z m 175 1157 b 218 1114 175 1133 194 1114 b 263 1157 243 1114 263 1133 b 218 1201 263 1182 243 1201 b 175 1157 194 1201 175 1182 z m 146 1157 b 218 1231 146 1197 178 1231 b 293 1157 260 1231 293 1197 b 218 1085 293 1117 260 1085 b 146 1157 178 1085 146 1117 z m 510 1157 b 526 1176 510 1167 518 1176 b 544 1157 536 1176 544 1167 b 526 1140 544 1147 536 1140 b 510 1157 518 1140 510 1147 z m 483 1157 b 526 1114 483 1133 503 1114 b 571 1157 551 1114 571 1133 b 526 1201 571 1182 551 1201 b 483 1157 503 1201 483 1182 z m 454 1157 b 526 1231 454 1197 486 1231 b 600 1157 567 1231 600 1197 b 526 1085 600 1117 567 1085 b 454 1157 486 1085 454 1117 z m 518 746 b 374 888 518 835 463 888 b 229 746 285 888 229 835 l 229 265 b 374 126 229 178 285 126 b 518 265 463 126 518 178 z m 547 265 b 374 97 547 161 465 97 b 201 265 282 97 201 161 l 201 746 b 374 915 201 851 282 915 b 547 746 465 915 547 851 z m 575 746 b 374 944 575 864 490 944 b 172 746 257 944 172 864 l 172 265 b 374 68 172 150 257 68 b 575 265 490 68 575 150 z m 604 265 b 374 39 604 131 492 39 b 143 265 256 39 143 131 l 143 746 b 374 974 143 882 256 974 b 604 746 492 974 604 882 z m 633 746 b 374 1001 633 901 506 1001 b 113 746 242 1001 113 901 l 113 265 b 374 11 113 113 242 11 b 633 265 506 11 633 113 z m 663 265 b 374 -19 663 99 533 -19 b 85 265 214 -19 85 99 l 85 746 b 374 1031 85 914 214 1031 b 663 746 533 1031 663 914 z "},"":{"ha":654,"x_min":0,"x_max":0,"o":"m 533 449 l 683 597 l 474 811 l 322 658 l 176 806 l 38 668 l 186 522 l 39 376 l 253 168 l 396 310 l 549 163 l 682 296 z m 97 356 l 75 376 l 221 522 l 74 668 l 94 689 l 263 521 z m 472 269 l 322 421 l 176 275 l 157 294 l 322 460 l 492 290 z m 322 582 l 156 749 l 176 771 l 322 624 l 474 775 l 494 754 z m 553 351 l 383 521 l 556 694 l 576 674 l 425 522 l 575 372 z m 513 310 l 322 503 l 136 315 l 115 336 l 301 521 l 113 708 l 135 729 l 322 542 l 515 735 l 535 714 l 343 522 l 533 332 z "},"":{"ha":767,"x_min":0,"x_max":0,"o":"m 179 -158 l 365 -158 b 383 -108 368 -147 378 -125 b 460 -117 408 -112 435 -117 b 769 189 632 -117 769 10 l 769 669 b 711 849 769 740 746 800 l 772 1019 l 700 1100 l 511 1100 l 486 1043 b 383 1057 454 1053 421 1057 b 69 746 210 1057 69 929 l 69 265 b 144 56 69 182 97 111 l 97 -86 z m 338 669 b 392 774 338 718 356 756 l 338 611 z m 247 -61 l 278 31 b 383 11 322 17 353 11 b 643 265 515 11 643 113 l 643 746 b 581 917 643 821 618 864 l 635 1074 l 664 1074 l 610 924 b 671 746 647 876 671 817 l 671 265 b 383 -19 671 99 544 -19 b 293 -7 351 -19 322 -14 l 274 -61 z m 513 968 b 383 1001 468 992 426 1001 b 124 746 251 1001 124 901 l 124 265 b 207 76 124 194 149 136 l 161 -61 l 133 -61 l 175 63 b 96 265 125 113 96 182 l 96 746 b 383 1031 96 914 224 1031 b 500 1010 425 1031 464 1024 l 528 1074 l 549 1074 z m 528 683 l 339 129 b 383 126 353 126 367 126 b 528 265 472 126 528 178 z m 239 244 l 451 874 b 383 888 431 882 408 888 b 239 746 294 888 239 835 z m 383 97 b 307 113 357 97 326 104 l 546 817 b 556 746 550 796 556 774 l 556 265 b 383 97 556 161 474 97 z m 239 168 b 211 265 218 210 211 235 l 211 746 b 383 915 211 851 293 915 b 485 885 417 915 450 906 z m 585 746 b 539 878 585 799 568 843 l 272 97 b 383 68 304 78 342 68 b 585 265 501 68 585 150 z m 183 265 b 249 114 183 203 207 149 l 518 899 b 383 944 483 928 436 944 b 183 746 267 944 183 864 z m 549 906 b 614 746 588 865 614 811 l 614 265 b 383 39 614 131 503 39 b 264 71 342 39 300 51 l 218 -61 l 188 -61 l 239 88 b 153 265 188 128 153 189 l 153 746 b 383 974 153 882 265 974 b 526 924 435 974 486 956 l 578 1074 l 607 1074 z "},"":{"ha":757,"x_min":0,"x_max":0,"o":"m 294 1033 l 374 961 l 497 961 l 497 265 b 379 151 497 194 451 151 b 332 189 338 151 332 154 l 332 958 l 260 1039 l 65 1039 l 65 265 b 207 -10 65 158 114 71 b 456 -117 286 -81 368 -117 b 765 189 626 -117 765 10 l 765 958 l 693 1039 l 532 1039 l 463 1231 l 389 1311 l 194 1311 z m 286 1285 l 315 1285 l 397 1058 l 368 1058 z m 343 1285 l 371 1285 l 453 1058 l 425 1058 z m 231 1285 l 258 1285 l 339 1058 l 313 1058 z m 522 1014 l 550 1014 l 550 265 b 379 97 550 161 469 97 b 206 265 288 97 206 161 l 206 1014 l 233 1014 l 233 265 b 379 126 233 178 290 126 b 522 265 468 126 522 178 z m 579 1014 l 608 1014 l 608 265 b 379 39 608 131 497 39 b 147 265 261 39 147 131 l 147 1014 l 178 1014 l 178 265 b 379 68 178 150 263 68 b 579 265 496 68 579 150 z m 638 1014 l 668 1014 l 668 265 b 379 -19 668 99 539 -19 b 90 265 218 -19 90 99 l 90 1014 l 118 1014 l 118 265 b 379 11 118 113 247 11 b 638 265 510 11 638 113 z "},"":{"ha":757,"x_min":0,"x_max":0,"o":"m 563 1311 l 368 1311 l 274 1044 l 350 961 l 497 961 l 497 265 b 379 151 497 194 451 151 b 332 189 338 151 332 154 l 332 958 l 260 1039 l 65 1039 l 65 265 b 207 -10 65 158 114 71 b 456 -117 286 -81 368 -117 b 765 189 626 -117 765 10 l 765 958 l 693 1039 l 563 1039 l 633 1231 z m 443 1058 l 417 1058 l 499 1285 l 526 1285 z m 332 1058 l 304 1058 l 385 1285 l 413 1285 z m 389 1058 l 358 1058 l 442 1285 l 471 1285 z m 522 1014 l 550 1014 l 550 265 b 379 97 550 161 469 97 b 206 265 288 97 206 161 l 206 1014 l 233 1014 l 233 265 b 379 126 233 178 290 126 b 522 265 468 126 522 178 z m 579 1014 l 608 1014 l 608 265 b 379 39 608 131 497 39 b 147 265 261 39 147 131 l 147 1014 l 178 1014 l 178 265 b 379 68 178 150 263 68 b 579 265 496 68 579 150 z m 638 1014 l 668 1014 l 668 265 b 379 -19 668 99 539 -19 b 90 265 218 -19 90 99 l 90 1014 l 118 1014 l 118 265 b 379 11 118 113 247 11 b 638 265 510 11 638 113 z "},"":{"ha":757,"x_min":0,"x_max":0,"o":"m 279 1311 l 188 1039 l 65 1039 l 65 265 b 207 -10 65 158 114 71 b 456 -117 286 -81 368 -117 b 765 189 626 -117 765 10 l 765 958 l 693 1039 l 617 1039 l 553 1231 l 479 1311 z m 497 265 b 379 151 497 194 451 151 b 332 189 338 151 332 154 l 332 958 l 329 961 l 497 961 z m 379 1142 l 406 1058 l 351 1058 z m 328 1285 l 251 1058 l 219 1058 l 297 1285 z m 461 1285 l 538 1058 l 504 1058 l 428 1285 z m 394 1285 l 472 1058 l 439 1058 l 379 1239 l 318 1058 l 285 1058 l 363 1285 z m 522 1014 l 550 1014 l 550 265 b 379 97 550 161 469 97 b 206 265 288 97 206 161 l 206 1014 l 233 1014 l 233 265 b 379 126 233 178 290 126 b 522 265 468 126 522 178 z m 579 1014 l 608 1014 l 608 265 b 379 39 608 131 497 39 b 147 265 261 39 147 131 l 147 1014 l 178 1014 l 178 265 b 379 68 178 150 263 68 b 579 265 496 68 579 150 z m 638 1014 l 668 1014 l 668 265 b 379 -19 668 99 539 -19 b 90 265 218 -19 90 99 l 90 1014 l 118 1014 l 118 265 b 379 11 118 113 247 11 b 638 265 510 11 638 113 z "},"":{"ha":757,"x_min":0,"x_max":0,"o":"m 126 1157 b 171 1069 126 1118 144 1092 l 203 1039 l 65 1039 l 65 265 b 207 -10 65 158 114 71 b 456 -117 286 -81 368 -117 b 765 189 626 -117 765 10 l 765 958 l 693 1038 b 703 1081 699 1050 703 1065 b 675 1149 703 1106 693 1131 l 619 1207 b 532 1256 594 1232 568 1256 b 433 1153 474 1256 433 1210 b 478 1069 433 1117 454 1090 l 511 1039 l 497 1039 l 497 265 b 379 151 497 194 451 151 b 332 189 338 151 332 154 l 332 958 l 307 986 b 396 1081 354 989 396 1029 b 368 1149 396 1106 385 1131 l 311 1207 b 224 1256 288 1232 261 1256 b 126 1157 168 1256 126 1211 z m 206 1157 b 224 1176 206 1167 214 1176 b 242 1157 233 1176 242 1167 b 224 1140 242 1147 233 1140 b 206 1157 214 1140 206 1147 z m 181 1157 b 224 1114 181 1133 200 1114 b 268 1157 247 1114 268 1133 b 224 1201 268 1182 247 1201 b 181 1157 200 1201 181 1182 z m 151 1157 b 224 1231 151 1197 183 1231 b 297 1157 264 1231 297 1197 b 224 1085 297 1117 264 1085 b 151 1157 183 1085 151 1117 z m 515 1157 b 532 1176 515 1167 522 1176 b 549 1157 542 1176 549 1167 b 532 1140 549 1147 542 1140 b 515 1157 522 1140 515 1147 z m 488 1157 b 532 1114 488 1133 507 1114 b 576 1157 557 1114 576 1133 b 532 1201 576 1182 557 1201 b 488 1157 507 1201 488 1182 z m 458 1157 b 532 1231 458 1197 490 1231 b 606 1157 572 1231 606 1197 b 532 1085 606 1117 572 1085 b 458 1157 490 1085 458 1117 z m 522 1014 l 550 1014 l 550 265 b 379 97 550 161 469 97 b 206 265 288 97 206 161 l 206 1014 l 233 1014 l 233 265 b 379 126 233 178 290 126 b 522 265 468 126 522 178 z m 579 1014 l 608 1014 l 608 265 b 379 39 608 131 497 39 b 147 265 261 39 147 131 l 147 1014 l 178 1014 l 178 265 b 379 68 178 150 263 68 b 579 265 496 68 579 150 z m 638 1014 l 668 1014 l 668 265 b 379 -19 668 99 539 -19 b 90 265 218 -19 90 99 l 90 1014 l 118 1014 l 118 265 b 379 11 118 113 247 11 b 638 265 510 11 638 113 z "},"":{"ha":743,"x_min":0,"x_max":0,"o":"m 554 1311 l 360 1311 l 263 1042 l 342 961 l 489 961 l 489 682 b 368 567 489 615 450 567 b 324 613 332 567 324 575 l 324 958 l 251 1039 l 57 1039 l 57 682 b 199 414 57 581 106 496 b 279 351 239 379 260 363 l 279 -25 l 360 -97 l 547 -97 l 547 317 b 758 606 667 357 758 469 l 758 958 l 685 1039 l 556 1039 l 625 1231 z m 436 1058 l 410 1058 l 490 1285 l 518 1285 z m 324 1058 l 296 1058 l 378 1285 l 406 1285 z m 382 1058 l 351 1058 l 433 1285 l 463 1285 z m 449 0 l 419 0 l 419 432 b 631 678 533 453 631 560 l 631 1014 l 660 1014 l 660 682 b 449 410 660 549 568 443 z m 544 689 b 367 513 544 592 468 513 b 197 689 271 513 197 592 l 197 1014 l 226 1014 l 226 689 b 368 542 226 600 279 542 b 515 682 468 542 515 600 l 515 1014 l 544 1014 z m 333 0 l 306 0 l 306 407 b 82 682 172 440 82 549 l 82 1014 l 111 1014 l 111 689 b 333 428 111 560 208 447 z m 390 0 l 363 0 l 363 457 b 140 682 243 460 140 572 l 140 1014 l 169 1014 l 169 689 b 378 485 169 581 264 485 b 572 689 492 485 572 581 l 572 1014 l 601 1014 l 601 689 b 390 457 601 572 508 465 z "},"":{"ha":726,"x_min":0,"x_max":0,"o":"m 264 1039 l 69 1039 l 69 -25 l 150 -97 l 338 -97 l 338 128 l 457 128 b 761 439 619 128 761 267 b 669 661 761 525 724 603 b 381 829 565 775 479 829 l 338 829 l 338 958 z m 338 563 l 457 563 b 493 515 485 563 493 550 b 381 397 493 443 453 397 l 338 397 z m 125 1014 l 125 0 l 96 0 l 96 1014 z m 239 803 l 381 803 b 664 515 532 803 664 675 b 381 226 664 354 532 226 l 239 226 l 239 0 l 211 0 l 211 256 l 381 256 b 635 515 513 256 635 375 b 381 775 635 656 513 775 l 211 775 l 211 1014 l 239 1014 z m 239 660 l 239 371 l 381 371 b 518 515 469 371 518 426 b 381 660 518 604 469 660 z m 213 692 l 381 692 b 549 515 482 692 549 624 b 381 339 549 407 482 339 l 213 339 z m 182 717 l 182 313 l 381 313 b 578 515 494 313 578 403 b 381 717 578 626 494 717 z m 153 1014 l 182 1014 l 182 744 l 381 744 b 606 515 503 744 606 650 b 381 285 606 382 503 285 l 182 285 l 182 0 l 153 0 z "},"":{"ha":1510,"x_min":0,"x_max":0,"o":"m 336 386 b 499 342 393 367 449 363 b 508 278 504 324 508 303 b 378 149 508 206 453 149 b 325 215 335 149 325 158 l 253 294 l 56 294 b 211 -7 60 176 113 82 b 454 -117 293 -82 371 -117 b 771 203 633 -117 771 29 b 657 465 771 311 728 394 b 403 615 572 550 517 588 b 328 635 382 621 360 625 b 325 667 325 644 325 654 b 458 789 325 742 372 789 b 493 714 488 789 493 763 l 574 642 l 763 642 b 644 918 763 743 722 831 b 382 1057 561 1014 475 1057 b 65 743 203 1057 65 928 b 193 481 65 608 114 544 b 336 386 240 443 281 408 z m 672 278 b 378 -19 672 117 544 -19 b 82 269 222 -19 89 103 l 111 269 b 378 8 113 122 236 8 b 644 278 531 8 644 132 b 539 503 644 378 608 450 b 319 582 469 558 394 557 b 200 743 240 610 200 663 b 382 919 200 838 268 919 b 549 740 481 919 543 842 l 518 740 b 382 886 518 829 467 886 b 228 743 282 886 228 832 b 331 608 228 671 258 631 b 557 525 406 583 486 579 b 672 278 636 465 672 392 z m 635 740 b 382 1003 635 883 524 1003 b 118 743 232 1003 118 893 b 279 507 118 619 179 546 b 492 440 349 482 428 488 b 563 278 542 404 563 351 b 378 93 563 176 488 93 b 197 269 289 93 199 172 l 228 269 b 378 124 228 181 283 124 b 533 278 468 124 533 190 b 472 419 533 344 518 386 b 267 483 413 461 318 461 b 90 743 157 528 90 597 b 382 1031 90 913 218 1031 b 665 740 536 1031 665 908 z m 579 740 b 381 944 579 857 492 944 b 172 743 260 944 172 864 b 306 561 172 650 222 590 b 524 485 382 533 457 535 b 621 278 588 436 621 369 b 378 35 621 147 510 35 b 140 269 254 35 146 142 l 169 269 b 378 64 169 156 261 64 b 589 278 492 64 589 163 b 506 461 589 358 561 418 b 292 533 443 511 365 503 b 143 743 203 568 143 636 b 382 978 143 879 246 978 b 608 740 507 978 604 867 z m 1092 386 b 1254 342 1149 367 1204 363 b 1264 278 1260 324 1264 303 b 1133 149 1264 206 1208 149 b 1081 215 1090 149 1081 158 l 1008 294 l 811 294 b 967 -7 815 176 868 82 b 1210 -117 1049 -82 1126 -117 b 1526 203 1389 -117 1526 29 b 1413 465 1526 311 1483 394 b 1158 615 1328 550 1272 588 b 1083 635 1138 621 1115 625 b 1081 667 1081 644 1081 654 b 1214 789 1081 742 1128 789 b 1249 714 1243 789 1249 763 l 1329 642 l 1518 642 b 1400 918 1518 743 1478 831 b 1138 1057 1317 1014 1231 1057 b 821 743 958 1057 821 928 b 949 481 821 608 869 544 b 1092 386 996 443 1036 408 z m 1428 278 b 1133 -19 1428 117 1300 -19 b 838 269 978 -19 844 103 l 867 269 b 1133 8 868 122 992 8 b 1400 278 1286 8 1400 132 b 1294 503 1400 378 1364 450 b 1075 582 1225 558 1150 557 b 956 743 996 610 956 663 b 1138 919 956 838 1024 919 b 1304 740 1236 919 1299 842 l 1274 740 b 1138 886 1274 829 1222 886 b 983 743 1038 886 983 832 b 1086 608 983 671 1014 631 b 1313 525 1161 583 1242 579 b 1428 278 1392 465 1428 392 z m 1390 740 b 1138 1003 1390 883 1279 1003 b 874 743 988 1003 874 893 b 1035 507 874 619 935 546 b 1247 440 1104 482 1183 488 b 1318 278 1297 404 1318 351 b 1133 93 1318 176 1243 93 b 953 269 1044 93 954 172 l 983 269 b 1133 124 983 181 1039 124 b 1289 278 1224 124 1289 190 b 1228 419 1289 344 1274 386 b 1022 483 1168 461 1074 461 b 846 743 913 528 846 597 b 1138 1031 846 913 974 1031 b 1421 740 1292 1031 1421 908 z m 1335 740 b 1136 944 1335 857 1247 944 b 928 743 1015 944 928 864 b 1061 561 928 650 978 590 b 1279 485 1138 533 1213 535 b 1376 278 1343 436 1376 369 b 1133 35 1376 147 1265 35 b 896 269 1010 35 901 142 l 925 269 b 1133 64 925 156 1017 64 b 1344 278 1247 64 1344 163 b 1261 461 1344 358 1317 418 b 1047 533 1199 511 1121 503 b 899 743 958 568 899 636 b 1138 978 899 879 1001 978 b 1364 740 1263 978 1360 867 z "},"":{"ha":757,"x_min":0,"x_max":0,"o":"m 144 -97 l 332 -97 l 332 336 l 497 336 l 497 -25 l 578 -97 l 765 -97 l 765 669 b 661 907 765 753 729 831 b 543 1008 622 950 583 983 l 463 1231 l 389 1311 l 194 1311 l 290 1044 b 65 746 160 1010 65 893 l 65 -25 z m 332 672 b 453 793 332 743 378 793 b 497 749 492 793 497 786 l 497 604 l 332 604 z m 286 1285 l 315 1285 l 397 1058 l 368 1058 z m 343 1285 l 371 1285 l 453 1058 l 425 1058 z m 231 1285 l 258 1285 l 339 1058 l 313 1058 z m 550 0 l 522 0 l 522 433 l 233 433 l 233 0 l 206 0 l 206 461 l 550 461 z m 668 0 l 638 0 l 638 749 b 378 1006 638 882 514 1006 b 118 749 247 1006 118 885 l 118 0 l 90 0 l 90 746 b 376 1031 90 908 218 1031 b 668 746 535 1031 668 904 z m 550 549 l 206 549 l 206 743 b 376 921 206 843 278 921 b 550 743 478 921 550 843 z m 522 578 l 522 749 b 376 892 522 838 463 892 b 233 749 289 892 233 833 l 233 578 z m 608 0 l 581 0 l 581 492 l 176 492 l 176 0 l 147 0 l 147 743 b 376 981 147 876 253 981 b 608 749 507 981 608 868 z m 581 519 l 581 743 b 376 949 581 857 488 949 b 176 749 268 949 176 858 l 176 519 z "},"":{"ha":757,"x_min":0,"x_max":0,"o":"m 563 1311 l 368 1311 l 269 1039 b 65 746 150 997 65 885 l 65 -25 l 144 -97 l 332 -97 l 332 336 l 497 336 l 497 -25 l 578 -97 l 765 -97 l 765 669 b 550 1003 765 788 675 922 l 633 1231 z m 332 672 b 453 793 332 743 378 793 b 497 749 492 793 497 786 l 497 604 l 332 604 z m 443 1058 l 417 1058 l 499 1285 l 526 1285 z m 332 1058 l 304 1058 l 385 1285 l 413 1285 z m 389 1058 l 358 1058 l 442 1285 l 471 1285 z m 550 0 l 522 0 l 522 433 l 233 433 l 233 0 l 206 0 l 206 461 l 550 461 z m 668 0 l 638 0 l 638 749 b 378 1006 638 882 514 1006 b 118 749 247 1006 118 885 l 118 0 l 90 0 l 90 746 b 376 1031 90 908 218 1031 b 668 746 535 1031 668 904 z m 550 549 l 206 549 l 206 743 b 376 921 206 843 278 921 b 550 743 478 921 550 843 z m 522 578 l 522 749 b 376 892 522 838 463 892 b 233 749 289 892 233 833 l 233 578 z m 608 0 l 581 0 l 581 492 l 176 492 l 176 0 l 147 0 l 147 743 b 376 981 147 876 253 981 b 608 749 507 981 608 868 z m 581 519 l 581 743 b 376 949 581 857 488 949 b 176 749 268 949 176 858 l 176 519 z "},"":{"ha":757,"x_min":0,"x_max":0,"o":"m 279 1311 l 186 1033 l 211 1011 b 65 746 124 957 65 861 l 65 -25 l 144 -97 l 332 -97 l 332 336 l 497 336 l 497 -25 l 578 -97 l 765 -97 l 765 669 b 607 961 765 774 710 864 l 643 961 l 553 1231 l 479 1311 z m 332 672 b 453 793 332 743 378 793 b 497 749 492 793 497 786 l 497 604 l 332 604 z m 379 1142 l 406 1058 l 351 1058 z m 328 1285 l 251 1058 l 219 1058 l 297 1285 z m 461 1285 l 538 1058 l 504 1058 l 428 1285 z m 394 1285 l 472 1058 l 439 1058 l 379 1239 l 318 1058 l 285 1058 l 363 1285 z m 550 0 l 522 0 l 522 433 l 233 433 l 233 0 l 206 0 l 206 461 l 550 461 z m 668 0 l 638 0 l 638 749 b 378 1006 638 882 514 1006 b 118 749 247 1006 118 885 l 118 0 l 90 0 l 90 746 b 376 1031 90 908 218 1031 b 668 746 535 1031 668 904 z m 550 549 l 206 549 l 206 743 b 376 921 206 843 278 921 b 550 743 478 921 550 843 z m 522 578 l 522 749 b 376 892 522 838 463 892 b 233 749 289 892 233 833 l 233 578 z m 608 0 l 581 0 l 581 492 l 176 492 l 176 0 l 147 0 l 147 743 b 376 981 147 876 253 981 b 608 749 507 981 608 868 z m 581 519 l 581 743 b 376 949 581 857 488 949 b 176 749 268 949 176 858 l 176 519 z "},"":{"ha":757,"x_min":0,"x_max":0,"o":"m 494 1207 b 265 1271 428 1207 360 1271 b 121 1231 215 1271 165 1256 l 121 974 l 142 953 b 65 746 94 899 65 828 l 65 -25 l 144 -97 l 332 -97 l 332 336 l 497 336 l 497 -25 l 578 -97 l 765 -97 l 765 669 b 617 951 765 774 714 853 b 708 986 649 957 679 969 l 708 1244 l 628 1321 b 494 1207 572 1242 529 1207 z m 332 672 b 453 793 332 743 378 793 b 497 749 492 793 497 786 l 497 604 l 332 604 z m 488 1100 b 272 1164 408 1100 349 1164 b 146 1113 224 1164 178 1144 l 146 1151 b 268 1192 181 1179 221 1192 b 485 1126 351 1192 411 1126 b 610 1179 533 1126 578 1147 l 610 1139 b 488 1100 576 1111 535 1100 z m 497 1074 b 610 1108 539 1074 578 1089 l 610 1075 b 490 1044 578 1057 536 1044 b 263 1110 401 1044 338 1110 b 146 1040 218 1110 179 1089 l 146 1078 b 261 1139 176 1115 215 1139 b 497 1074 346 1139 407 1074 z m 496 1151 b 260 1218 411 1151 349 1218 b 146 1182 218 1218 179 1203 l 146 1215 b 265 1246 179 1235 219 1246 b 494 1181 354 1246 418 1181 b 610 1251 539 1181 578 1203 l 610 1213 b 496 1151 579 1176 542 1151 z m 550 0 l 522 0 l 522 433 l 233 433 l 233 0 l 206 0 l 206 461 l 550 461 z m 668 0 l 638 0 l 638 749 b 378 1006 638 882 514 1006 b 118 749 247 1006 118 885 l 118 0 l 90 0 l 90 746 b 376 1031 90 908 218 1031 b 668 746 535 1031 668 904 z m 550 549 l 206 549 l 206 743 b 376 921 206 843 278 921 b 550 743 478 921 550 843 z m 522 578 l 522 749 b 376 892 522 838 463 892 b 233 749 289 892 233 833 l 233 578 z m 608 0 l 581 0 l 581 492 l 176 492 l 176 0 l 147 0 l 147 743 b 376 981 147 876 253 981 b 608 749 507 981 608 868 z m 581 519 l 581 743 b 376 949 581 857 488 949 b 176 749 268 949 176 858 l 176 519 z "},"":{"ha":757,"x_min":0,"x_max":0,"o":"m 126 1157 b 171 1069 126 1118 144 1090 l 225 1019 b 65 746 129 968 65 867 l 65 -25 l 144 -97 l 332 -97 l 332 336 l 497 336 l 497 -25 l 578 -97 l 765 -97 l 765 669 b 661 907 765 753 729 831 b 392 1056 576 1000 489 1050 b 396 1081 394 1063 396 1072 b 368 1149 396 1106 385 1131 l 311 1207 b 224 1256 288 1232 261 1256 b 126 1157 168 1256 126 1211 z m 433 1157 b 478 1069 433 1118 453 1090 l 540 1014 b 608 986 557 999 581 986 b 703 1081 660 986 703 1028 b 675 1149 703 1106 693 1131 l 619 1207 b 532 1256 594 1232 568 1256 b 433 1157 475 1256 433 1211 z m 332 672 b 453 793 332 743 378 793 b 497 749 492 793 497 786 l 497 604 l 332 604 z m 206 1157 b 224 1176 206 1167 214 1176 b 242 1157 233 1176 242 1167 b 224 1140 242 1147 233 1140 b 206 1157 214 1140 206 1147 z m 181 1157 b 224 1114 181 1133 200 1114 b 268 1157 247 1114 268 1133 b 224 1201 268 1182 247 1201 b 181 1157 200 1201 181 1182 z m 151 1157 b 224 1231 151 1197 183 1231 b 297 1157 264 1231 297 1197 b 224 1085 297 1117 264 1085 b 151 1157 183 1085 151 1117 z m 515 1157 b 532 1176 515 1167 522 1176 b 549 1157 542 1176 549 1167 b 532 1140 549 1147 542 1140 b 515 1157 522 1140 515 1147 z m 488 1157 b 532 1114 488 1133 507 1114 b 576 1157 557 1114 576 1133 b 532 1201 576 1182 557 1201 b 488 1157 507 1201 488 1182 z m 458 1157 b 532 1231 458 1197 490 1231 b 606 1157 572 1231 606 1197 b 532 1085 606 1117 572 1085 b 458 1157 490 1085 458 1117 z m 550 0 l 522 0 l 522 433 l 233 433 l 233 0 l 206 0 l 206 461 l 550 461 z m 668 0 l 638 0 l 638 749 b 378 1006 638 882 514 1006 b 118 749 247 1006 118 885 l 118 0 l 90 0 l 90 746 b 376 1031 90 908 218 1031 b 668 746 535 1031 668 904 z m 550 549 l 206 549 l 206 743 b 376 921 206 843 278 921 b 550 743 478 921 550 843 z m 522 578 l 522 749 b 376 892 522 838 463 892 b 233 749 289 892 233 833 l 233 578 z m 608 0 l 581 0 l 581 492 l 176 492 l 176 0 l 147 0 l 147 743 b 376 981 147 876 253 981 b 608 749 507 981 608 868 z m 581 519 l 581 743 b 376 949 581 857 488 949 b 176 749 268 949 176 858 l 176 519 z "},"":{"ha":757,"x_min":0,"x_max":0,"o":"m 221 1150 b 267 1038 221 1110 242 1065 b 65 746 150 994 65 882 l 65 -25 l 144 -97 l 332 -97 l 332 336 l 497 336 l 497 -25 l 578 -97 l 765 -97 l 765 669 b 660 907 765 753 731 831 b 579 983 622 947 600 965 b 608 1075 597 1008 608 1040 b 567 1193 608 1121 594 1165 l 513 1247 b 379 1311 476 1282 438 1311 b 221 1150 285 1311 221 1244 z m 332 672 b 453 793 332 743 378 793 b 497 749 492 793 497 786 l 497 604 l 332 604 z m 426 1149 b 378 1194 426 1175 406 1194 b 333 1149 353 1194 333 1175 b 378 1104 333 1121 353 1104 b 426 1149 406 1104 426 1121 z m 378 1078 b 307 1150 338 1078 307 1111 b 378 1224 307 1192 338 1224 b 449 1150 418 1224 449 1192 b 378 1078 449 1111 418 1078 z m 481 1150 b 378 1254 481 1208 435 1254 b 275 1150 319 1254 275 1208 b 378 1049 275 1093 319 1049 b 481 1150 435 1049 481 1093 z m 550 0 l 522 0 l 522 433 l 233 433 l 233 0 l 206 0 l 206 461 l 550 461 z m 522 578 l 522 749 b 376 892 522 838 463 892 b 233 749 289 892 233 833 l 233 578 z m 550 549 l 206 549 l 206 743 b 376 921 206 843 278 921 b 550 743 478 921 550 843 z m 247 1150 b 379 1285 247 1229 300 1285 b 510 1151 458 1285 510 1229 b 426 1026 510 1090 476 1043 b 668 746 561 1004 668 888 l 668 0 l 638 0 l 638 749 b 378 1006 638 882 514 1006 b 118 749 247 1006 118 885 l 118 0 l 90 0 l 90 746 b 333 1028 90 893 194 1008 b 247 1150 282 1044 247 1092 z m 581 519 l 581 743 b 376 949 581 857 488 949 b 176 749 268 949 176 858 l 176 519 z m 608 0 l 581 0 l 581 492 l 176 492 l 176 0 l 147 0 l 147 743 b 376 981 147 876 253 981 b 608 749 507 981 608 868 z "},"":{"ha":1194,"x_min":0,"x_max":0,"o":"m 929 265 b 811 151 929 194 883 151 b 765 189 769 151 765 154 l 765 335 l 1010 335 l 1010 522 l 938 603 l 765 603 l 765 669 b 888 789 765 744 813 789 b 929 746 926 789 929 781 l 929 692 l 1010 619 l 1197 619 l 1197 669 b 1092 914 1197 758 1164 835 b 811 1057 1007 1010 917 1057 b 592 974 725 1057 649 1028 b 376 1057 533 1028 460 1057 b 65 746 204 1057 65 924 l 65 -25 l 144 -97 l 332 -97 l 332 336 l 497 336 l 497 265 b 636 -7 497 158 547 72 b 888 -117 719 -81 800 -117 b 1197 189 1058 -117 1197 10 l 1197 236 l 1125 317 l 929 317 z m 332 672 b 453 793 332 743 378 793 b 497 749 492 793 497 786 l 497 604 l 332 604 z m 954 292 l 983 292 l 983 265 b 811 97 983 161 903 97 b 638 265 719 97 638 161 l 638 461 l 911 461 l 911 432 l 668 432 l 668 265 b 811 126 668 178 722 126 b 954 265 900 126 954 178 z m 668 578 l 911 578 l 911 547 l 638 547 l 638 746 b 811 915 638 851 719 915 b 983 746 903 915 983 851 l 983 717 l 954 717 l 954 746 b 811 888 954 835 900 888 b 668 746 722 888 668 835 z m 1071 292 l 1100 292 l 1100 265 b 811 -19 1100 99 971 -19 b 522 265 651 -19 522 99 l 522 433 l 233 433 l 233 0 l 206 0 l 206 461 l 550 461 l 550 265 b 811 11 550 113 679 11 b 1071 265 943 11 1071 113 z m 811 1001 b 597 894 728 1001 647 963 l 592 889 b 378 1006 543 957 463 1006 b 118 749 247 1006 118 885 l 118 0 l 90 0 l 90 746 b 376 1031 90 908 218 1031 b 592 938 461 1031 539 994 b 811 1031 644 996 722 1031 b 1100 746 971 1031 1100 914 l 1100 717 l 1071 717 l 1071 746 b 811 1001 1071 901 943 1001 z m 522 578 l 522 749 b 376 892 522 838 463 892 b 233 749 289 892 233 833 l 233 578 z m 550 549 l 206 549 l 206 743 b 376 921 206 843 278 921 b 550 746 478 921 550 843 z m 581 519 l 581 746 b 376 949 581 863 485 949 b 176 749 268 949 176 858 l 176 519 z m 610 518 l 911 518 l 911 490 l 610 490 l 610 265 b 811 68 610 150 694 68 b 1013 265 928 68 1013 150 l 1013 292 l 1042 292 l 1042 265 b 811 39 1042 131 929 39 b 581 265 693 39 581 131 l 581 492 l 176 492 l 176 0 l 147 0 l 147 743 b 376 981 147 876 253 981 b 594 828 476 981 563 913 b 811 974 628 917 718 974 b 1042 746 929 974 1042 882 l 1042 717 l 1013 717 l 1013 746 b 811 944 1013 864 928 944 b 610 746 697 944 610 865 z "},"":{"ha":744,"x_min":0,"x_max":0,"o":"m 447 -346 l 529 -235 b 549 -176 542 -218 549 -196 b 525 -108 549 -158 543 -136 b 760 189 660 -78 760 38 l 760 236 l 688 317 l 492 317 l 492 265 b 374 151 492 194 446 151 b 326 189 333 151 326 158 l 326 669 b 450 789 326 744 374 789 b 492 746 483 789 492 781 l 492 692 l 572 619 l 760 619 l 760 669 b 656 913 760 758 726 835 b 374 1057 569 1010 479 1057 b 60 746 200 1057 60 929 l 60 265 b 279 -68 60 140 138 17 b 276 -100 278 -78 276 -89 b 333 -190 276 -135 293 -165 l 307 -229 z m 354 -101 b 375 -83 354 -93 364 -83 b 394 -101 386 -83 394 -93 b 375 -121 394 -112 386 -121 b 354 -101 364 -121 354 -112 z m 367 -240 l 342 -222 l 408 -133 b 419 -101 415 -122 419 -111 b 375 -54 419 -72 400 -54 b 329 -101 350 -54 329 -68 b 365 -146 329 -126 347 -142 l 351 -169 b 301 -100 317 -157 301 -133 b 376 -24 301 -56 336 -24 b 450 -100 419 -24 450 -60 b 435 -146 450 -115 446 -131 z m 518 292 l 547 292 l 547 265 b 374 97 547 161 465 97 b 201 265 282 97 201 161 l 201 746 b 374 915 201 851 282 915 b 547 746 465 915 547 851 l 547 717 l 518 717 l 518 746 b 374 888 518 835 463 888 b 229 746 285 888 229 835 l 229 265 b 374 126 229 178 285 126 b 518 265 463 126 518 178 z m 575 292 l 604 292 l 604 265 b 374 39 604 131 492 39 b 143 265 256 39 143 131 l 143 746 b 374 974 143 882 256 974 b 604 746 492 974 604 882 l 604 717 l 575 717 l 575 746 b 374 944 575 864 490 944 b 172 746 257 944 172 864 l 172 265 b 374 68 172 150 257 68 b 575 265 490 68 575 150 z m 633 292 l 663 292 l 663 265 b 374 -19 663 99 533 -19 b 85 265 214 -19 85 99 l 85 746 b 374 1031 85 914 214 1031 b 663 746 533 1031 663 914 l 663 717 l 633 717 l 633 746 b 374 1001 633 901 506 1001 b 113 746 242 1001 113 901 l 113 265 b 374 11 113 113 242 11 b 633 265 506 11 633 113 z "},"":{"ha":754,"x_min":0,"x_max":0,"o":"m 503 265 b 383 151 503 194 457 151 b 338 189 343 151 338 158 l 338 335 l 582 335 l 582 522 l 510 603 l 338 603 l 338 669 b 460 789 338 744 383 789 b 503 746 500 789 503 781 l 503 692 l 582 619 l 769 619 l 769 669 b 549 1011 769 797 668 939 l 471 1231 l 397 1311 l 203 1311 l 297 1044 b 69 746 165 1011 69 897 l 69 265 b 211 -8 69 158 119 72 b 460 -117 292 -81 372 -117 b 769 189 632 -117 769 10 l 769 236 l 697 317 l 503 317 z m 293 1285 l 322 1285 l 406 1058 l 375 1058 z m 351 1285 l 379 1285 l 460 1058 l 432 1058 z m 238 1285 l 265 1285 l 347 1058 l 321 1058 z m 528 292 l 556 292 l 556 265 b 383 97 556 161 474 97 b 211 265 293 97 211 161 l 211 461 l 485 461 l 485 432 l 239 432 l 239 265 b 383 126 239 178 294 126 b 528 265 472 126 528 178 z m 239 578 l 485 578 l 485 547 l 211 547 l 211 746 b 383 915 211 851 293 915 b 556 746 474 915 556 851 l 556 717 l 528 717 l 528 746 b 383 888 528 835 472 888 b 239 746 294 888 239 835 z m 183 518 l 485 518 l 485 490 l 183 490 l 183 265 b 383 68 183 150 267 68 b 585 265 501 68 585 150 l 585 292 l 614 292 l 614 265 b 383 39 614 131 503 39 b 153 265 265 39 153 131 l 153 746 b 383 974 153 882 265 974 b 614 746 503 974 614 882 l 614 717 l 585 717 l 585 746 b 383 944 585 864 501 944 b 183 746 267 944 183 864 z m 643 292 l 671 292 l 671 265 b 383 -19 671 99 544 -19 b 96 265 224 -19 96 99 l 96 746 b 383 1031 96 914 224 1031 b 671 746 544 1031 671 914 l 671 717 l 643 717 l 643 746 b 383 1001 643 901 515 1001 b 124 746 251 1001 124 901 l 124 265 b 383 11 124 113 251 11 b 643 265 515 11 643 113 z "},"":{"ha":754,"x_min":0,"x_max":0,"o":"m 571 1311 l 376 1311 l 279 1040 b 69 746 157 1000 69 892 l 69 265 b 211 -8 69 158 119 72 b 460 -117 292 -81 372 -117 b 769 189 632 -117 769 10 l 769 236 l 697 317 l 503 317 l 503 265 b 383 151 503 194 457 151 b 338 189 343 151 338 158 l 338 335 l 582 335 l 582 522 l 510 603 l 338 603 l 338 669 b 460 789 338 744 383 789 b 503 746 500 789 503 781 l 503 692 l 582 619 l 769 619 l 769 669 b 560 1004 769 793 676 932 l 642 1231 z m 453 1058 l 426 1058 l 507 1285 l 535 1285 z m 340 1058 l 313 1058 l 394 1285 l 422 1285 z m 397 1058 l 368 1058 l 450 1285 l 479 1285 z m 528 292 l 556 292 l 556 265 b 383 97 556 161 474 97 b 211 265 293 97 211 161 l 211 461 l 485 461 l 485 432 l 239 432 l 239 265 b 383 126 239 178 294 126 b 528 265 472 126 528 178 z m 239 578 l 485 578 l 485 547 l 211 547 l 211 746 b 383 915 211 851 293 915 b 556 746 474 915 556 851 l 556 717 l 528 717 l 528 746 b 383 888 528 835 472 888 b 239 746 294 888 239 835 z m 183 518 l 485 518 l 485 490 l 183 490 l 183 265 b 383 68 183 150 267 68 b 585 265 501 68 585 150 l 585 292 l 614 292 l 614 265 b 383 39 614 131 503 39 b 153 265 265 39 153 131 l 153 746 b 383 974 153 882 265 974 b 614 746 503 974 614 882 l 614 717 l 585 717 l 585 746 b 383 944 585 864 501 944 b 183 746 267 944 183 864 z m 643 292 l 671 292 l 671 265 b 383 -19 671 99 544 -19 b 96 265 224 -19 96 99 l 96 746 b 383 1031 96 914 224 1031 b 671 746 544 1031 671 914 l 671 717 l 643 717 l 643 746 b 383 1001 643 901 515 1001 b 124 746 251 1001 124 901 l 124 265 b 383 11 124 113 251 11 b 643 265 515 11 643 113 z "},"":{"ha":754,"x_min":0,"x_max":0,"o":"m 289 1311 l 194 1033 l 218 1013 b 69 746 128 960 69 864 l 69 265 b 211 -8 69 158 119 72 b 460 -117 292 -81 372 -117 b 769 189 632 -117 769 10 l 769 236 l 697 317 l 503 317 l 503 265 b 383 151 503 194 457 151 b 338 189 343 151 338 158 l 338 335 l 582 335 l 582 522 l 510 603 l 338 603 l 338 669 b 460 789 338 744 383 789 b 503 746 500 789 503 781 l 503 692 l 582 619 l 769 619 l 769 669 b 617 961 769 776 714 872 l 653 961 l 563 1231 l 488 1311 z m 388 1142 l 414 1058 l 360 1058 z m 338 1285 l 261 1058 l 229 1058 l 307 1285 z m 471 1285 l 547 1058 l 514 1058 l 438 1285 z m 403 1285 l 481 1058 l 447 1058 l 388 1239 l 326 1058 l 293 1058 l 371 1285 z m 528 292 l 556 292 l 556 265 b 383 97 556 161 474 97 b 211 265 293 97 211 161 l 211 461 l 485 461 l 485 432 l 239 432 l 239 265 b 383 126 239 178 294 126 b 528 265 472 126 528 178 z m 239 578 l 485 578 l 485 547 l 211 547 l 211 746 b 383 915 211 851 293 915 b 556 746 474 915 556 851 l 556 717 l 528 717 l 528 746 b 383 888 528 835 472 888 b 239 746 294 888 239 835 z m 183 518 l 485 518 l 485 490 l 183 490 l 183 265 b 383 68 183 150 267 68 b 585 265 501 68 585 150 l 585 292 l 614 292 l 614 265 b 383 39 614 131 503 39 b 153 265 265 39 153 131 l 153 746 b 383 974 153 882 265 974 b 614 746 503 974 614 882 l 614 717 l 585 717 l 585 746 b 383 944 585 864 501 944 b 183 746 267 944 183 864 z m 643 292 l 671 292 l 671 265 b 383 -19 671 99 544 -19 b 96 265 224 -19 96 99 l 96 746 b 383 1031 96 914 224 1031 b 671 746 544 1031 671 914 l 671 717 l 643 717 l 643 746 b 383 1001 643 901 515 1001 b 124 746 251 1001 124 901 l 124 265 b 383 11 124 113 251 11 b 643 265 515 11 643 113 z "},"":{"ha":754,"x_min":0,"x_max":0,"o":"m 442 1157 b 486 1069 442 1117 458 1092 l 549 1014 l 550 1010 b 399 1057 503 1038 454 1054 b 403 1081 401 1064 403 1072 b 375 1149 403 1106 393 1131 l 319 1207 b 232 1256 294 1232 268 1256 b 133 1153 172 1256 133 1210 b 178 1069 133 1117 154 1090 l 232 1019 b 69 746 135 969 69 871 l 69 265 b 211 -8 69 158 119 72 b 460 -117 292 -81 372 -117 b 769 189 632 -117 769 10 l 769 236 l 697 317 l 503 317 l 503 265 b 383 151 503 194 457 151 b 338 189 343 151 338 158 l 338 335 l 582 335 l 582 522 l 510 603 l 338 603 l 338 669 b 460 789 338 744 383 789 b 503 746 500 789 503 781 l 503 692 l 582 619 l 769 619 l 769 669 b 572 997 769 789 688 913 b 615 986 585 990 600 986 b 711 1081 668 986 711 1028 b 683 1149 711 1106 700 1131 l 626 1207 b 539 1256 603 1232 576 1256 b 442 1157 483 1256 442 1211 z m 214 1157 b 232 1176 214 1167 221 1176 b 249 1157 242 1176 249 1167 b 232 1140 249 1147 242 1140 b 214 1157 221 1140 214 1147 z m 188 1157 b 232 1114 188 1133 207 1114 b 276 1157 256 1114 276 1133 b 232 1201 276 1182 256 1201 b 188 1157 207 1201 188 1182 z m 158 1157 b 232 1231 158 1197 190 1231 b 306 1157 272 1231 306 1197 b 232 1085 306 1117 272 1085 b 158 1157 190 1085 158 1117 z m 522 1157 b 539 1176 522 1167 531 1176 b 557 1157 549 1176 557 1167 b 539 1140 557 1147 549 1140 b 522 1157 531 1140 522 1147 z m 496 1157 b 539 1114 496 1133 515 1114 b 583 1157 564 1114 583 1133 b 539 1201 583 1182 564 1201 b 496 1157 515 1201 496 1182 z m 467 1157 b 539 1231 467 1197 499 1231 b 613 1157 579 1231 613 1197 b 539 1085 613 1117 579 1085 b 467 1157 499 1085 467 1117 z m 528 292 l 556 292 l 556 265 b 383 97 556 161 474 97 b 211 265 293 97 211 161 l 211 461 l 485 461 l 485 432 l 239 432 l 239 265 b 383 126 239 178 294 126 b 528 265 472 126 528 178 z m 239 578 l 485 578 l 485 547 l 211 547 l 211 746 b 383 915 211 851 293 915 b 556 746 474 915 556 851 l 556 717 l 528 717 l 528 746 b 383 888 528 835 472 888 b 239 746 294 888 239 835 z m 183 518 l 485 518 l 485 490 l 183 490 l 183 265 b 383 68 183 150 267 68 b 585 265 501 68 585 150 l 585 292 l 614 292 l 614 265 b 383 39 614 131 503 39 b 153 265 265 39 153 131 l 153 746 b 383 974 153 882 265 974 b 614 746 503 974 614 882 l 614 717 l 585 717 l 585 746 b 383 944 585 864 501 944 b 183 746 267 944 183 864 z m 643 292 l 671 292 l 671 265 b 383 -19 671 99 544 -19 b 96 265 224 -19 96 99 l 96 746 b 383 1031 96 914 224 1031 b 671 746 544 1031 671 914 l 671 717 l 643 717 l 643 746 b 383 1001 643 901 515 1001 b 124 746 251 1001 124 901 l 124 265 b 383 11 124 113 251 11 b 643 265 515 11 643 113 z "},"":{"ha":335,"x_min":0,"x_max":0,"o":"m 69 -25 l 150 -97 l 338 -97 l 338 993 l 251 1231 l 178 1311 l -17 1311 l 82 1039 l 69 1039 z m 75 1285 l 104 1285 l 188 1058 l 157 1058 z m 132 1285 l 160 1285 l 242 1058 l 214 1058 z m 19 1285 l 47 1285 l 128 1058 l 101 1058 z m 239 0 l 211 0 l 211 1014 l 239 1014 z m 183 0 l 153 0 l 153 1014 l 183 1014 z m 125 0 l 96 0 l 96 1014 l 125 1014 z "},"":{"ha":335,"x_min":0,"x_max":0,"o":"m 351 1311 l 157 1311 l 57 1033 l 69 1022 l 69 -25 l 150 -97 l 338 -97 l 338 958 l 326 968 l 422 1231 z m 233 1058 l 206 1058 l 288 1285 l 315 1285 z m 121 1058 l 93 1058 l 174 1285 l 203 1285 z m 178 1058 l 147 1058 l 231 1285 l 260 1285 z m 239 0 l 211 0 l 211 1014 l 239 1014 z m 183 0 l 153 0 l 153 1014 l 183 1014 z m 125 0 l 96 0 l 96 1014 l 125 1014 z "},"":{"ha":335,"x_min":0,"x_max":0,"o":"m 68 1311 l -25 1033 l 56 961 l 69 961 l 69 -25 l 150 -97 l 338 -97 l 338 958 l 335 961 l 432 961 l 342 1231 l 268 1311 z m 168 1142 l 194 1058 l 140 1058 z m 117 1285 l 40 1058 l 8 1058 l 86 1285 z m 250 1285 l 326 1058 l 293 1058 l 218 1285 z m 183 1285 l 261 1058 l 228 1058 l 168 1239 l 107 1058 l 74 1058 l 151 1285 z m 239 0 l 211 0 l 211 1014 l 239 1014 z m 183 0 l 153 0 l 153 1014 l 183 1014 z m 125 0 l 96 0 l 96 1014 l 125 1014 z "},"":{"ha":335,"x_min":0,"x_max":0,"o":"m -85 1157 b -40 1069 -86 1117 -67 1092 l 22 1014 b 69 988 35 1001 51 992 l 69 -25 l 150 -97 l 338 -97 l 338 958 l 264 1039 l 174 1039 b 185 1081 181 1051 185 1065 b 157 1149 185 1106 174 1131 l 100 1207 b 13 1256 76 1232 50 1256 b -85 1157 -43 1256 -85 1211 z m 222 1157 b 267 1069 221 1117 242 1092 l 329 1014 b 397 986 346 999 369 986 b 492 1081 449 986 492 1028 b 464 1149 492 1106 482 1131 l 408 1207 b 321 1256 383 1232 357 1256 b 222 1157 264 1256 222 1211 z m -6 1157 b 13 1176 -6 1167 3 1176 b 31 1157 22 1176 31 1167 b 13 1140 31 1147 22 1140 b -6 1157 3 1140 -6 1147 z m -31 1157 b 13 1114 -31 1133 -11 1114 b 57 1157 38 1114 57 1133 b 13 1201 57 1182 38 1201 b -31 1157 -11 1201 -31 1182 z m -60 1157 b 13 1231 -60 1197 -28 1231 b 86 1157 53 1231 86 1197 b 13 1085 86 1117 53 1085 b -60 1157 -28 1085 -60 1117 z m 304 1157 b 321 1176 304 1167 311 1176 b 338 1157 331 1176 338 1167 b 321 1140 338 1147 331 1140 b 304 1157 311 1140 304 1147 z m 278 1157 b 321 1114 278 1133 296 1114 b 365 1157 346 1114 365 1133 b 321 1201 365 1182 346 1201 b 278 1157 296 1201 278 1182 z m 247 1157 b 321 1231 247 1197 279 1231 b 394 1157 361 1231 394 1197 b 321 1085 394 1117 361 1085 b 247 1157 279 1085 247 1117 z m 239 0 l 211 0 l 211 1014 l 239 1014 z m 183 0 l 153 0 l 153 1014 l 183 1014 z m 125 0 l 96 0 l 96 1014 l 125 1014 z "},"":{"ha":760,"x_min":0,"x_max":0,"o":"m 26 407 l 75 367 l 75 -25 l 156 -97 l 468 -97 b 774 217 642 -97 774 36 l 774 644 b 392 1039 774 833 574 1039 l 75 1039 l 75 603 l 26 603 z m 342 771 l 460 771 b 506 728 492 771 506 758 l 506 603 l 342 603 z m 342 335 l 506 335 l 506 285 b 383 169 506 213 457 169 l 342 169 z m 244 578 l 478 578 l 478 547 l 215 547 l 215 897 l 392 897 b 561 721 488 897 561 826 l 561 293 b 392 115 561 186 488 115 l 215 115 l 215 461 l 478 461 l 478 432 l 244 432 l 244 143 l 383 143 b 532 285 472 143 532 196 l 532 728 b 383 868 532 818 472 868 l 244 868 z m 128 547 l 53 547 l 53 578 l 100 578 l 100 1014 l 392 1014 b 675 721 553 1014 675 889 l 675 293 b 392 0 675 125 553 0 l 100 0 l 100 432 l 53 432 l 53 461 l 128 461 l 128 29 l 383 29 b 647 285 533 29 647 143 l 647 728 b 383 983 647 869 533 983 l 128 983 z m 188 518 l 478 518 l 478 490 l 188 490 l 188 86 l 383 86 b 589 293 503 86 589 172 l 589 721 b 383 926 589 840 503 926 l 188 926 z m 619 285 b 392 58 619 161 518 58 l 157 58 l 157 490 l 53 490 l 53 518 l 157 518 l 157 954 l 392 954 b 619 728 518 954 619 851 z "},"":{"ha":757,"x_min":0,"x_max":0,"o":"m 494 1207 b 265 1271 428 1207 360 1271 b 121 1231 215 1271 165 1256 l 121 974 l 142 953 b 65 746 93 900 65 829 l 65 -25 l 144 -97 l 332 -97 l 332 669 b 456 789 332 744 379 789 b 497 746 494 789 497 781 l 497 -25 l 578 -97 l 765 -97 l 765 669 b 621 953 765 768 718 864 b 708 986 651 958 681 971 l 708 1244 l 628 1321 b 494 1207 572 1242 529 1207 z m 488 1100 b 272 1164 408 1100 349 1164 b 146 1113 224 1164 178 1144 l 146 1151 b 268 1192 181 1179 221 1192 b 485 1126 351 1192 411 1126 b 610 1179 533 1126 578 1147 l 610 1139 b 488 1100 576 1111 535 1100 z m 497 1074 b 610 1108 539 1074 578 1089 l 610 1075 b 490 1044 578 1057 536 1044 b 263 1110 401 1044 338 1110 b 146 1040 218 1110 179 1089 l 146 1078 b 261 1139 176 1115 215 1139 b 497 1074 346 1139 407 1074 z m 496 1151 b 260 1218 411 1151 349 1218 b 146 1182 218 1218 179 1203 l 146 1215 b 265 1246 179 1235 219 1246 b 494 1181 354 1246 418 1181 b 610 1251 539 1181 578 1203 l 610 1213 b 496 1151 579 1176 542 1151 z m 233 0 l 206 0 l 206 746 b 379 915 206 851 288 915 b 550 746 469 915 550 851 l 550 0 l 522 0 l 522 746 b 379 888 522 835 468 888 b 233 746 290 888 233 835 z m 178 0 l 147 0 l 147 746 b 379 974 147 882 261 974 b 608 746 497 974 608 882 l 608 0 l 579 0 l 579 746 b 379 944 579 864 496 944 b 178 746 263 944 178 864 z m 118 0 l 90 0 l 90 746 b 379 1031 90 914 218 1031 b 668 746 539 1031 668 914 l 668 0 l 638 0 l 638 746 b 379 1001 638 901 510 1001 b 118 746 247 1001 118 901 z "},"":{"ha":747,"x_min":0,"x_max":0,"o":"m 181 11 b 450 -117 285 -78 363 -117 b 760 189 622 -117 760 10 l 760 669 b 533 1018 760 790 663 953 l 458 1231 l 383 1311 l 189 1311 l 286 1044 b 60 746 156 1010 60 897 l 60 265 b 181 11 60 158 110 72 z m 492 265 b 374 151 492 194 446 151 b 326 189 333 151 326 160 l 326 669 b 450 789 326 744 374 789 b 492 746 489 789 492 781 z m 281 1285 l 310 1285 l 393 1058 l 363 1058 z m 338 1285 l 367 1285 l 447 1058 l 419 1058 z m 225 1285 l 253 1285 l 335 1058 l 308 1058 z m 518 746 b 374 888 518 835 463 888 b 229 746 285 888 229 835 l 229 265 b 374 126 229 178 285 126 b 518 265 463 126 518 178 z m 547 265 b 374 97 547 161 465 97 b 201 265 282 97 201 161 l 201 746 b 374 915 201 851 282 915 b 547 746 465 915 547 851 z m 575 746 b 374 944 575 864 490 944 b 172 746 257 944 172 864 l 172 265 b 374 68 172 150 257 68 b 575 265 490 68 575 150 z m 604 265 b 374 39 604 131 492 39 b 143 265 256 39 143 131 l 143 746 b 374 974 143 882 256 974 b 604 746 492 974 604 882 z m 633 746 b 374 1001 633 901 506 1001 b 113 746 242 1001 113 901 l 113 265 b 374 11 113 113 242 11 b 633 265 506 11 633 113 z m 663 265 b 374 -19 663 99 533 -19 b 85 265 214 -19 85 99 l 85 746 b 374 1031 85 914 214 1031 b 663 746 533 1031 663 914 z "},"":{"ha":747,"x_min":0,"x_max":0,"o":"m 557 1311 l 363 1311 l 264 1039 b 60 746 144 999 60 889 l 60 265 b 181 11 60 158 110 72 b 450 -117 285 -78 363 -117 b 760 189 622 -117 760 10 l 760 669 b 549 1011 760 788 671 938 l 628 1231 z m 492 265 b 374 151 492 194 446 151 b 326 189 333 151 326 160 l 326 669 b 450 789 326 744 374 789 b 492 746 489 789 492 781 z m 439 1058 l 413 1058 l 493 1285 l 521 1285 z m 326 1058 l 299 1058 l 381 1285 l 408 1285 z m 383 1058 l 353 1058 l 436 1285 l 465 1285 z m 518 746 b 374 888 518 835 463 888 b 229 746 285 888 229 835 l 229 265 b 374 126 229 178 285 126 b 518 265 463 126 518 178 z m 547 265 b 374 97 547 161 465 97 b 201 265 282 97 201 161 l 201 746 b 374 915 201 851 282 915 b 547 746 465 915 547 851 z m 575 746 b 374 944 575 864 490 944 b 172 746 257 944 172 864 l 172 265 b 374 68 172 150 257 68 b 575 265 490 68 575 150 z m 604 265 b 374 39 604 131 492 39 b 143 265 256 39 143 131 l 143 746 b 374 974 143 882 256 974 b 604 746 492 974 604 882 z m 633 746 b 374 1001 633 901 506 1001 b 113 746 242 1001 113 901 l 113 265 b 374 11 113 113 242 11 b 633 265 506 11 633 113 z m 663 265 b 374 -19 663 99 533 -19 b 85 265 214 -19 85 99 l 85 746 b 374 1031 85 914 214 1031 b 663 746 533 1031 663 914 z "},"":{"ha":747,"x_min":0,"x_max":0,"o":"m 275 1311 l 181 1033 l 204 1011 b 60 746 117 958 60 864 l 60 265 b 181 11 60 158 110 72 b 450 -117 285 -78 363 -117 b 760 189 622 -117 760 10 l 760 669 b 614 961 760 767 708 875 l 638 961 l 549 1231 l 474 1311 z m 492 265 b 374 151 492 194 446 151 b 326 189 333 151 326 160 l 326 669 b 450 789 326 744 374 789 b 492 746 489 789 492 781 z m 374 1142 l 400 1058 l 346 1058 z m 322 1285 l 247 1058 l 215 1058 l 293 1285 z m 457 1285 l 533 1058 l 500 1058 l 424 1285 z m 389 1285 l 467 1058 l 433 1058 l 374 1239 l 313 1058 l 279 1058 l 357 1285 z m 518 746 b 374 888 518 835 463 888 b 229 746 285 888 229 835 l 229 265 b 374 126 229 178 285 126 b 518 265 463 126 518 178 z m 547 265 b 374 97 547 161 465 97 b 201 265 282 97 201 161 l 201 746 b 374 915 201 851 282 915 b 547 746 465 915 547 851 z m 575 746 b 374 944 575 864 490 944 b 172 746 257 944 172 864 l 172 265 b 374 68 172 150 257 68 b 575 265 490 68 575 150 z m 604 265 b 374 39 604 131 492 39 b 143 265 256 39 143 131 l 143 746 b 374 974 143 882 256 974 b 604 746 492 974 604 882 z m 633 746 b 374 1001 633 901 506 1001 b 113 746 242 1001 113 901 l 113 265 b 374 11 113 113 242 11 b 633 265 506 11 633 113 z m 663 265 b 374 -19 663 99 533 -19 b 85 265 214 -19 85 99 l 85 746 b 374 1031 85 914 214 1031 b 663 746 533 1031 663 914 z "},"":{"ha":747,"x_min":0,"x_max":0,"o":"m 489 1207 b 261 1271 424 1207 354 1271 b 115 1231 210 1271 160 1256 l 115 974 l 136 953 b 60 746 88 900 60 829 l 60 265 b 181 11 60 158 110 72 b 450 -117 285 -78 363 -117 b 760 189 622 -117 760 10 l 760 669 b 622 953 760 758 719 854 b 703 986 650 961 678 972 l 703 1244 l 624 1321 b 489 1207 567 1242 524 1207 z m 492 265 b 374 151 492 194 446 151 b 326 189 333 151 326 160 l 326 669 b 450 789 326 744 374 789 b 492 746 489 789 492 781 z m 483 1100 b 267 1164 403 1100 343 1164 b 142 1113 218 1164 172 1144 l 142 1151 b 263 1192 175 1179 217 1192 b 479 1126 346 1192 406 1126 b 606 1179 528 1126 574 1147 l 606 1139 b 483 1100 571 1111 531 1100 z m 492 1074 b 606 1108 533 1074 572 1089 l 606 1075 b 486 1044 572 1057 532 1044 b 257 1110 397 1044 332 1110 b 142 1040 213 1110 174 1089 l 142 1078 b 256 1139 172 1115 210 1139 b 492 1074 340 1139 401 1074 z m 490 1151 b 254 1218 406 1151 343 1218 b 142 1182 213 1218 174 1203 l 142 1215 b 261 1246 174 1235 215 1246 b 489 1181 350 1246 413 1181 b 606 1251 533 1181 572 1203 l 606 1213 b 490 1151 575 1176 536 1151 z m 518 746 b 374 888 518 835 463 888 b 229 746 285 888 229 835 l 229 265 b 374 126 229 178 285 126 b 518 265 463 126 518 178 z m 547 265 b 374 97 547 161 465 97 b 201 265 282 97 201 161 l 201 746 b 374 915 201 851 282 915 b 547 746 465 915 547 851 z m 575 746 b 374 944 575 864 490 944 b 172 746 257 944 172 864 l 172 265 b 374 68 172 150 257 68 b 575 265 490 68 575 150 z m 604 265 b 374 39 604 131 492 39 b 143 265 256 39 143 131 l 143 746 b 374 974 143 882 256 974 b 604 746 492 974 604 882 z m 633 746 b 374 1001 633 901 506 1001 b 113 746 242 1001 113 901 l 113 265 b 374 11 113 113 242 11 b 633 265 506 11 633 113 z m 663 265 b 374 -19 663 99 533 -19 b 85 265 214 -19 85 99 l 85 746 b 374 1031 85 914 214 1031 b 663 746 533 1031 663 914 z "},"":{"ha":747,"x_min":0,"x_max":0,"o":"m 428 1157 b 474 1069 428 1117 447 1092 l 524 1024 b 386 1057 481 1043 433 1054 b 390 1081 389 1064 390 1072 b 363 1149 390 1106 381 1131 l 307 1207 b 218 1256 282 1232 256 1256 b 121 1153 160 1256 121 1208 b 165 1069 121 1117 140 1090 l 219 1019 b 60 746 125 968 60 871 l 60 265 b 181 11 60 158 110 72 b 450 -117 285 -78 363 -117 b 760 189 622 -117 760 10 l 760 669 b 582 988 760 775 692 906 b 603 986 589 986 594 986 b 699 1081 654 986 699 1028 b 669 1149 699 1106 688 1131 l 614 1207 b 526 1256 590 1232 563 1256 b 428 1157 471 1256 428 1211 z m 492 265 b 374 151 492 194 446 151 b 326 189 333 151 326 160 l 326 669 b 450 789 326 744 374 789 b 492 746 489 789 492 781 z m 201 1157 b 218 1176 201 1167 208 1176 b 236 1157 229 1176 236 1167 b 218 1140 236 1147 229 1140 b 201 1157 208 1140 201 1147 z m 175 1157 b 218 1114 175 1133 194 1114 b 263 1157 243 1114 263 1133 b 218 1201 263 1182 243 1201 b 175 1157 194 1201 175 1182 z m 146 1157 b 218 1231 146 1197 178 1231 b 293 1157 260 1231 293 1197 b 218 1085 293 1117 260 1085 b 146 1157 178 1085 146 1117 z m 510 1157 b 526 1176 510 1167 518 1176 b 544 1157 536 1176 544 1167 b 526 1140 544 1147 536 1140 b 510 1157 518 1140 510 1147 z m 483 1157 b 526 1114 483 1133 503 1114 b 571 1157 551 1114 571 1133 b 526 1201 571 1182 551 1201 b 483 1157 503 1201 483 1182 z m 454 1157 b 526 1231 454 1197 486 1231 b 600 1157 567 1231 600 1197 b 526 1085 600 1117 567 1085 b 454 1157 486 1085 454 1117 z m 518 746 b 374 888 518 835 463 888 b 229 746 285 888 229 835 l 229 265 b 374 126 229 178 285 126 b 518 265 463 126 518 178 z m 547 265 b 374 97 547 161 465 97 b 201 265 282 97 201 161 l 201 746 b 374 915 201 851 282 915 b 547 746 465 915 547 851 z m 575 746 b 374 944 575 864 490 944 b 172 746 257 944 172 864 l 172 265 b 374 68 172 150 257 68 b 575 265 490 68 575 150 z m 604 265 b 374 39 604 131 492 39 b 143 265 256 39 143 131 l 143 746 b 374 974 143 882 256 974 b 604 746 492 974 604 882 z m 633 746 b 374 1001 633 901 506 1001 b 113 746 242 1001 113 901 l 113 265 b 374 11 113 113 242 11 b 633 265 506 11 633 113 z m 663 265 b 374 -19 663 99 533 -19 b 85 265 214 -19 85 99 l 85 746 b 374 1031 85 914 214 1031 b 663 746 533 1031 663 914 z "},"":{"ha":654,"x_min":0,"x_max":0,"o":"m 69 422 l 150 350 l 657 350 l 657 536 l 585 617 l 69 617 z m 96 475 l 560 475 l 560 447 l 96 447 z m 96 592 l 560 592 l 560 563 l 96 563 z m 96 533 l 560 533 l 560 503 l 96 503 z m 228 214 b 272 125 228 176 247 147 l 335 71 b 403 44 353 56 376 44 b 497 138 454 44 497 85 b 469 206 497 164 486 186 l 415 269 b 326 314 392 297 363 314 b 228 214 271 314 228 269 z m 308 214 b 326 233 308 224 317 233 b 344 214 336 233 344 224 b 326 197 344 204 336 197 b 308 214 317 197 308 204 z m 283 214 b 326 171 283 190 301 171 b 371 214 350 171 371 190 b 326 258 371 239 350 258 b 283 214 301 258 283 239 z m 254 214 b 326 288 254 254 286 288 b 400 214 367 288 400 254 b 326 142 400 174 367 142 b 254 214 286 142 254 174 z m 228 824 b 272 735 228 786 247 757 l 335 681 b 403 654 353 665 376 654 b 497 747 454 654 497 694 b 469 815 497 774 486 796 l 415 879 b 326 924 392 907 363 924 b 228 824 271 924 228 879 z m 308 824 b 326 843 308 833 317 843 b 344 824 336 843 344 833 b 326 807 344 814 336 807 b 308 824 317 807 308 814 z m 283 824 b 326 781 283 800 301 781 b 371 824 350 781 371 800 b 326 868 371 849 350 868 b 283 824 301 868 283 849 z m 254 824 b 326 897 254 864 286 897 b 400 824 367 897 400 864 b 326 751 400 783 367 751 b 254 824 286 751 254 783 z "},"":{"ha":767,"x_min":0,"x_max":0,"o":"m 179 -158 l 365 -158 b 383 -108 368 -147 378 -125 b 460 -117 408 -112 435 -117 b 769 189 632 -117 769 10 l 769 669 b 711 849 769 740 746 800 l 772 1019 l 700 1100 l 511 1100 l 486 1043 b 383 1057 454 1053 421 1057 b 69 746 210 1057 69 929 l 69 265 b 144 56 69 182 97 111 l 97 -86 z m 338 669 b 392 774 338 718 356 756 l 338 611 z m 247 -61 l 278 31 b 383 11 322 17 353 11 b 643 265 515 11 643 113 l 643 746 b 581 917 643 821 618 864 l 635 1074 l 664 1074 l 610 924 b 671 746 647 876 671 817 l 671 265 b 383 -19 671 99 544 -19 b 293 -7 351 -19 322 -14 l 274 -61 z m 513 968 b 383 1001 468 992 426 1001 b 124 746 251 1001 124 901 l 124 265 b 207 76 124 194 149 136 l 161 -61 l 133 -61 l 175 63 b 96 265 125 113 96 182 l 96 746 b 383 1031 96 914 224 1031 b 500 1010 425 1031 464 1024 l 528 1074 l 549 1074 z m 528 683 l 339 129 b 383 126 353 126 367 126 b 528 265 472 126 528 178 z m 239 244 l 451 874 b 383 888 431 882 408 888 b 239 746 294 888 239 835 z m 383 97 b 307 113 357 97 326 104 l 546 817 b 556 746 550 796 556 774 l 556 265 b 383 97 556 161 474 97 z m 239 168 b 211 265 218 210 211 235 l 211 746 b 383 915 211 851 293 915 b 485 885 417 915 450 906 z m 585 746 b 539 878 585 799 568 843 l 272 97 b 383 68 304 78 342 68 b 585 265 501 68 585 150 z m 183 265 b 249 114 183 203 207 149 l 518 899 b 383 944 483 928 436 944 b 183 746 267 944 183 864 z m 549 906 b 614 746 588 865 614 811 l 614 265 b 383 39 614 131 503 39 b 264 71 342 39 300 51 l 218 -61 l 188 -61 l 239 88 b 153 265 188 128 153 189 l 153 746 b 383 974 153 882 265 974 b 526 924 435 974 486 956 l 578 1074 l 607 1074 z "},"":{"ha":757,"x_min":0,"x_max":0,"o":"m 294 1033 l 374 961 l 497 961 l 497 265 b 379 151 497 194 451 151 b 332 189 338 151 332 154 l 332 958 l 260 1039 l 65 1039 l 65 265 b 207 -10 65 158 114 71 b 456 -117 286 -81 368 -117 b 765 189 626 -117 765 10 l 765 958 l 693 1039 l 532 1039 l 463 1231 l 389 1311 l 194 1311 z m 286 1285 l 315 1285 l 397 1058 l 368 1058 z m 343 1285 l 371 1285 l 453 1058 l 425 1058 z m 231 1285 l 258 1285 l 339 1058 l 313 1058 z m 522 1014 l 550 1014 l 550 265 b 379 97 550 161 469 97 b 206 265 288 97 206 161 l 206 1014 l 233 1014 l 233 265 b 379 126 233 178 290 126 b 522 265 468 126 522 178 z m 579 1014 l 608 1014 l 608 265 b 379 39 608 131 497 39 b 147 265 261 39 147 131 l 147 1014 l 178 1014 l 178 265 b 379 68 178 150 263 68 b 579 265 496 68 579 150 z m 638 1014 l 668 1014 l 668 265 b 379 -19 668 99 539 -19 b 90 265 218 -19 90 99 l 90 1014 l 118 1014 l 118 265 b 379 11 118 113 247 11 b 638 265 510 11 638 113 z "},"":{"ha":757,"x_min":0,"x_max":0,"o":"m 563 1311 l 368 1311 l 274 1044 l 350 961 l 497 961 l 497 265 b 379 151 497 194 451 151 b 332 189 338 151 332 154 l 332 958 l 260 1039 l 65 1039 l 65 265 b 207 -10 65 158 114 71 b 456 -117 286 -81 368 -117 b 765 189 626 -117 765 10 l 765 958 l 693 1039 l 563 1039 l 633 1231 z m 443 1058 l 417 1058 l 499 1285 l 526 1285 z m 332 1058 l 304 1058 l 385 1285 l 413 1285 z m 389 1058 l 358 1058 l 442 1285 l 471 1285 z m 522 1014 l 550 1014 l 550 265 b 379 97 550 161 469 97 b 206 265 288 97 206 161 l 206 1014 l 233 1014 l 233 265 b 379 126 233 178 290 126 b 522 265 468 126 522 178 z m 579 1014 l 608 1014 l 608 265 b 379 39 608 131 497 39 b 147 265 261 39 147 131 l 147 1014 l 178 1014 l 178 265 b 379 68 178 150 263 68 b 579 265 496 68 579 150 z m 638 1014 l 668 1014 l 668 265 b 379 -19 668 99 539 -19 b 90 265 218 -19 90 99 l 90 1014 l 118 1014 l 118 265 b 379 11 118 113 247 11 b 638 265 510 11 638 113 z "},"":{"ha":757,"x_min":0,"x_max":0,"o":"m 279 1311 l 188 1039 l 65 1039 l 65 265 b 207 -10 65 158 114 71 b 456 -117 286 -81 368 -117 b 765 189 626 -117 765 10 l 765 958 l 693 1039 l 617 1039 l 553 1231 l 479 1311 z m 497 265 b 379 151 497 194 451 151 b 332 189 338 151 332 154 l 332 958 l 329 961 l 497 961 z m 379 1142 l 406 1058 l 351 1058 z m 328 1285 l 251 1058 l 219 1058 l 297 1285 z m 461 1285 l 538 1058 l 504 1058 l 428 1285 z m 394 1285 l 472 1058 l 439 1058 l 379 1239 l 318 1058 l 285 1058 l 363 1285 z m 522 1014 l 550 1014 l 550 265 b 379 97 550 161 469 97 b 206 265 288 97 206 161 l 206 1014 l 233 1014 l 233 265 b 379 126 233 178 290 126 b 522 265 468 126 522 178 z m 579 1014 l 608 1014 l 608 265 b 379 39 608 131 497 39 b 147 265 261 39 147 131 l 147 1014 l 178 1014 l 178 265 b 379 68 178 150 263 68 b 579 265 496 68 579 150 z m 638 1014 l 668 1014 l 668 265 b 379 -19 668 99 539 -19 b 90 265 218 -19 90 99 l 90 1014 l 118 1014 l 118 265 b 379 11 118 113 247 11 b 638 265 510 11 638 113 z "},"":{"ha":757,"x_min":0,"x_max":0,"o":"m 126 1157 b 171 1069 126 1118 144 1092 l 203 1039 l 65 1039 l 65 265 b 207 -10 65 158 114 71 b 456 -117 286 -81 368 -117 b 765 189 626 -117 765 10 l 765 958 l 693 1038 b 703 1081 699 1050 703 1065 b 675 1149 703 1106 693 1131 l 619 1207 b 532 1256 594 1232 568 1256 b 433 1153 474 1256 433 1210 b 478 1069 433 1117 454 1090 l 511 1039 l 497 1039 l 497 265 b 379 151 497 194 451 151 b 332 189 338 151 332 154 l 332 958 l 307 986 b 396 1081 354 989 396 1029 b 368 1149 396 1106 385 1131 l 311 1207 b 224 1256 288 1232 261 1256 b 126 1157 168 1256 126 1211 z m 206 1157 b 224 1176 206 1167 214 1176 b 242 1157 233 1176 242 1167 b 224 1140 242 1147 233 1140 b 206 1157 214 1140 206 1147 z m 181 1157 b 224 1114 181 1133 200 1114 b 268 1157 247 1114 268 1133 b 224 1201 268 1182 247 1201 b 181 1157 200 1201 181 1182 z m 151 1157 b 224 1231 151 1197 183 1231 b 297 1157 264 1231 297 1197 b 224 1085 297 1117 264 1085 b 151 1157 183 1085 151 1117 z m 515 1157 b 532 1176 515 1167 522 1176 b 549 1157 542 1176 549 1167 b 532 1140 549 1147 542 1140 b 515 1157 522 1140 515 1147 z m 488 1157 b 532 1114 488 1133 507 1114 b 576 1157 557 1114 576 1133 b 532 1201 576 1182 557 1201 b 488 1157 507 1201 488 1182 z m 458 1157 b 532 1231 458 1197 490 1231 b 606 1157 572 1231 606 1197 b 532 1085 606 1117 572 1085 b 458 1157 490 1085 458 1117 z m 522 1014 l 550 1014 l 550 265 b 379 97 550 161 469 97 b 206 265 288 97 206 161 l 206 1014 l 233 1014 l 233 265 b 379 126 233 178 290 126 b 522 265 468 126 522 178 z m 579 1014 l 608 1014 l 608 265 b 379 39 608 131 497 39 b 147 265 261 39 147 131 l 147 1014 l 178 1014 l 178 265 b 379 68 178 150 263 68 b 579 265 496 68 579 150 z m 638 1014 l 668 1014 l 668 265 b 379 -19 668 99 539 -19 b 90 265 218 -19 90 99 l 90 1014 l 118 1014 l 118 265 b 379 11 118 113 247 11 b 638 265 510 11 638 113 z "},"":{"ha":743,"x_min":0,"x_max":0,"o":"m 554 1311 l 360 1311 l 263 1042 l 342 961 l 489 961 l 489 682 b 368 567 489 615 450 567 b 324 613 332 567 324 575 l 324 958 l 251 1039 l 57 1039 l 57 682 b 199 414 57 581 106 496 b 279 351 239 379 260 363 l 279 -25 l 360 -97 l 547 -97 l 547 317 b 758 606 667 357 758 469 l 758 958 l 685 1039 l 556 1039 l 625 1231 z m 436 1058 l 410 1058 l 490 1285 l 518 1285 z m 324 1058 l 296 1058 l 378 1285 l 406 1285 z m 382 1058 l 351 1058 l 433 1285 l 463 1285 z m 449 0 l 419 0 l 419 432 b 631 678 533 453 631 560 l 631 1014 l 660 1014 l 660 682 b 449 410 660 549 568 443 z m 544 689 b 367 513 544 592 468 513 b 197 689 271 513 197 592 l 197 1014 l 226 1014 l 226 689 b 368 542 226 600 279 542 b 515 682 468 542 515 600 l 515 1014 l 544 1014 z m 333 0 l 306 0 l 306 407 b 82 682 172 440 82 549 l 82 1014 l 111 1014 l 111 689 b 333 428 111 560 208 447 z m 390 0 l 363 0 l 363 457 b 140 682 243 460 140 572 l 140 1014 l 169 1014 l 169 689 b 378 485 169 581 264 485 b 572 689 492 485 572 581 l 572 1014 l 601 1014 l 601 689 b 390 457 601 572 508 465 z "},"":{"ha":726,"x_min":0,"x_max":0,"o":"m 264 1039 l 69 1039 l 69 -25 l 150 -97 l 338 -97 l 338 128 l 457 128 b 761 439 619 128 761 267 b 669 661 761 525 724 603 b 381 829 565 775 479 829 l 338 829 l 338 958 z m 338 563 l 457 563 b 493 515 485 563 493 550 b 381 397 493 443 453 397 l 338 397 z m 125 1014 l 125 0 l 96 0 l 96 1014 z m 239 803 l 381 803 b 664 515 532 803 664 675 b 381 226 664 354 532 226 l 239 226 l 239 0 l 211 0 l 211 256 l 381 256 b 635 515 513 256 635 375 b 381 775 635 656 513 775 l 211 775 l 211 1014 l 239 1014 z m 239 660 l 239 371 l 381 371 b 518 515 469 371 518 426 b 381 660 518 604 469 660 z m 213 692 l 381 692 b 549 515 482 692 549 624 b 381 339 549 407 482 339 l 213 339 z m 182 717 l 182 313 l 381 313 b 578 515 494 313 578 403 b 381 717 578 626 494 717 z m 153 1014 l 182 1014 l 182 744 l 381 744 b 606 515 503 744 606 650 b 381 285 606 382 503 285 l 182 285 l 182 0 l 153 0 z "}}}
